<svg width="582" height="457" viewBox="0 0 582 457" fill="none" xmlns="http://www.w3.org/2000/svg">
<g clip-path="url(#clip0_826_9623)">
<path d="M0 0H582V456.569H0V0Z" fill="white"/>
<circle cx="291" cy="85" r="36" fill="#D1E0FF"/>
<rect x="191" y="136.052" width="200" height="16" rx="6" fill="#EAECF0"/>
<g filter="url(#filter0_dd_826_9623)">
<rect x="81" y="192.189" width="420" height="92" rx="12" fill="white"/>
<rect x="101" y="208.189" width="380" height="24" rx="6" fill="#EAECF0"/>
<rect x="151" y="244.189" width="280" height="24" rx="6" fill="#EAECF0"/>
<rect x="81.5" y="192.689" width="419" height="91" rx="11.5" stroke="#D0D5DD"/>
</g>
<g filter="url(#filter1_d_826_9623)">
<rect x="171.26" y="309.276" width="239.479" height="58.1034" rx="12" fill="#98A2B3"/>
<g clip-path="url(#clip1_826_9623)">
<path fill-rule="evenodd" clip-rule="evenodd" d="M212.312 324.973C212.337 324.61 212.176 324.259 211.885 324.04C211.594 323.821 211.212 323.765 210.87 323.89C205.289 325.929 199.665 331.309 196.21 337.023C194.912 339.17 196.612 341.608 198.908 341.608H202.192C201.496 344.922 201.203 348.186 201.056 351.71C201.039 352.122 201.258 352.507 201.621 352.702C201.984 352.897 202.426 352.868 202.76 352.626C210.6 346.954 216.082 340.781 218.462 336.82C219.495 335.102 218.468 333.035 216.553 332.701C215.084 332.446 213.425 332.293 211.814 332.206L212.312 324.973Z" fill="white"/>
</g>
<path d="M240.79 345.833C236.615 345.833 233.364 342.723 233.364 338.267C233.364 334.013 236.455 330.822 240.669 330.822C244.322 330.822 246.931 332.989 247.874 336.12H244.282C243.84 334.655 242.515 333.551 240.589 333.551C238.261 333.551 236.495 335.257 236.495 338.348C236.495 341.117 238.04 343.244 240.93 343.244C243.057 343.244 244.402 341.98 244.803 340.194H240.629V337.766H248.054C248.235 342.462 245.385 345.833 240.79 345.833Z" fill="white"/>
<path d="M254.595 345.713C251.384 345.713 249.237 343.485 249.237 340.134C249.237 336.943 251.464 334.615 254.555 334.615C257.946 334.615 260.194 337.364 259.692 340.856H252.086C252.267 342.602 253.11 343.566 254.535 343.566C255.759 343.566 256.582 342.964 256.903 341.9H259.672C259.07 344.328 257.204 345.713 254.595 345.713ZM254.495 336.662C253.19 336.662 252.367 337.505 252.126 339.09H256.742C256.662 337.605 255.819 336.662 254.495 336.662Z" fill="white"/>
<path d="M264.35 339.692V345.532H261.561V334.816H264.13V336.341C264.912 335.277 266.016 334.615 267.421 334.615C269.568 334.615 271.054 336.02 271.054 338.609V345.532H268.284V339.552C268.284 337.966 267.662 337.083 266.398 337.083C265.294 337.083 264.35 337.966 264.35 339.692Z" fill="white"/>
<path d="M278.113 345.713C274.902 345.713 272.755 343.485 272.755 340.134C272.755 336.943 274.982 334.615 278.073 334.615C281.465 334.615 283.713 337.364 283.211 340.856H275.605C275.785 342.602 276.628 343.566 278.053 343.566C279.277 343.566 280.1 342.964 280.421 341.9H283.191C282.589 344.328 280.722 345.713 278.113 345.713ZM278.013 336.662C276.708 336.662 275.886 337.505 275.645 339.09H280.261C280.18 337.605 279.337 336.662 278.013 336.662Z" fill="white"/>
<path d="M287.869 340.334V345.532H285.079V334.816H287.648V336.883C288.431 335.518 290.096 334.695 291.822 334.695V337.585C289.454 337.404 287.869 337.966 287.869 340.334Z" fill="white"/>
<path d="M299.653 345.532V344.208C298.951 345.211 297.887 345.733 296.422 345.733C294.195 345.733 292.71 344.429 292.71 342.422C292.71 340.334 294.395 339.211 297.526 339.211C298.128 339.211 298.65 339.251 299.312 339.331V338.689C299.312 337.485 298.63 336.782 297.466 336.782C296.262 336.782 295.539 337.485 295.439 338.689H292.93C293.091 336.22 294.877 334.615 297.466 334.615C300.276 334.615 301.921 336.16 301.921 338.789V345.532H299.653ZM295.339 342.341C295.339 343.244 295.981 343.806 297.024 343.806C298.449 343.806 299.312 343.024 299.312 341.779V341.017C298.65 340.916 298.188 340.876 297.707 340.876C296.121 340.876 295.339 341.378 295.339 342.341Z" fill="white"/>
<path d="M310.831 342.823V345.251C310.149 345.593 309.507 345.733 308.684 345.733C306.476 345.733 305.091 344.469 305.091 342.06V337.204H302.924V334.816H305.091V331.645H307.861V334.816H310.932V337.204H307.861V341.418C307.861 342.662 308.423 343.164 309.426 343.164C309.948 343.164 310.43 343.044 310.831 342.823Z" fill="white"/>
<path d="M317.056 345.713C313.845 345.713 311.697 343.485 311.697 340.134C311.697 336.943 313.925 334.615 317.016 334.615C320.407 334.615 322.655 337.364 322.153 340.856H314.547C314.728 342.602 315.571 343.566 316.995 343.566C318.22 343.566 319.043 342.964 319.364 341.9H322.133C321.531 344.328 319.665 345.713 317.056 345.713ZM316.955 336.662C315.651 336.662 314.828 337.505 314.587 339.09H319.203C319.123 337.605 318.28 336.662 316.955 336.662Z" fill="white"/>
<path d="M334.598 345.532V344.208C333.895 345.211 332.832 345.733 331.367 345.733C329.139 345.733 327.654 344.429 327.654 342.422C327.654 340.334 329.34 339.211 332.47 339.211C333.072 339.211 333.594 339.251 334.257 339.331V338.689C334.257 337.485 333.574 336.782 332.41 336.782C331.206 336.782 330.484 337.485 330.383 338.689H327.875C328.035 336.22 329.821 334.615 332.41 334.615C335.22 334.615 336.865 336.16 336.865 338.789V345.532H334.598ZM330.283 342.341C330.283 343.244 330.925 343.806 331.969 343.806C333.394 343.806 334.257 343.024 334.257 341.779V341.017C333.594 340.916 333.133 340.876 332.651 340.876C331.066 340.876 330.283 341.378 330.283 342.341Z" fill="white"/>
<path d="M346.755 345.532H343.704V331.123H353.016V333.772H346.755V337.404H352.033V340.033H346.755V345.532Z" fill="white"/>
<path d="M359.253 345.733C356.143 345.733 353.815 343.285 353.815 340.174C353.815 337.043 356.143 334.615 359.253 334.615C362.364 334.615 364.692 337.043 364.692 340.174C364.692 343.285 362.364 345.733 359.253 345.733ZM359.253 343.265C360.638 343.265 361.822 342.161 361.822 340.174C361.822 338.187 360.638 337.103 359.253 337.103C357.869 337.103 356.685 338.187 356.685 340.174C356.685 342.161 357.869 343.265 359.253 343.265Z" fill="white"/>
<path d="M369.262 340.334V345.532H366.472V334.816H369.041V336.883C369.824 335.518 371.489 334.695 373.215 334.695V337.585C370.847 337.404 369.262 337.966 369.262 340.334Z" fill="white"/>
<path d="M377.454 345.532H374.664V334.816H377.233V336.341C378.016 335.257 379.019 334.615 380.444 334.615C381.909 334.615 383.033 335.297 383.575 336.521C384.418 335.337 385.502 334.615 387.107 334.615C389.275 334.615 390.74 336.04 390.74 338.609V345.532H387.97V339.492C387.97 337.986 387.328 337.083 386.104 337.083C385 337.083 384.097 337.946 384.097 339.552V345.532H381.327V339.492C381.327 337.986 380.685 337.083 379.461 337.083C378.337 337.083 377.454 337.946 377.454 339.552V345.532Z" fill="white"/>
</g>
<g clip-path="url(#clip2_826_9623)">
<path fill-rule="evenodd" clip-rule="evenodd" d="M264 392.614C264.473 392.614 264.857 392.998 264.857 393.471V396.328C264.857 396.801 264.473 397.185 264 397.185C263.527 397.185 263.143 396.801 263.143 396.328V393.471C263.143 392.998 263.527 392.614 264 392.614ZM257.654 395.748C257.975 395.4 258.517 395.377 258.865 395.697L260.968 397.628C261.317 397.948 261.34 398.491 261.02 398.839C260.7 399.188 260.157 399.211 259.809 398.891L257.706 396.959C257.357 396.639 257.334 396.097 257.654 395.748ZM260.207 402.389C260.651 402.224 260.877 401.73 260.712 401.286C260.547 400.843 260.053 400.617 259.61 400.782L256.844 401.81C256.4 401.975 256.174 402.469 256.339 402.913C256.504 403.356 256.998 403.582 257.442 403.417L260.207 402.389ZM262.666 404.132C263.09 404.342 263.264 404.856 263.054 405.28L261.785 407.84C261.575 408.264 261.061 408.438 260.636 408.228C260.212 408.017 260.039 407.503 260.249 407.079L261.517 404.519C261.728 404.095 262.242 403.921 262.666 404.132ZM270.294 396.959C270.643 396.639 270.666 396.097 270.345 395.748C270.025 395.4 269.483 395.377 269.134 395.697L267.031 397.628C266.683 397.948 266.66 398.491 266.98 398.839C267.3 399.188 267.842 399.211 268.191 398.891L270.294 396.959ZM267.288 401.286C267.453 400.843 267.946 400.617 268.39 400.782L271.156 401.81C271.6 401.975 271.826 402.469 271.661 402.913C271.496 403.356 271.002 403.582 270.558 403.417L267.793 402.389C267.349 402.224 267.123 401.73 267.288 401.286ZM266.482 404.519C266.272 404.095 265.758 403.921 265.334 404.132C264.909 404.342 264.736 404.856 264.946 405.28L266.215 407.84C266.425 408.264 266.939 408.438 267.363 408.228C267.788 408.017 267.961 407.503 267.751 407.079L266.482 404.519Z" fill="#D0D5DD"/>
</g>
<rect x="278" y="397.465" width="48" height="6" rx="3" fill="#EAECF0"/>
<g clip-path="url(#clip3_826_9623)">
<path d="M574.5 410.667C572.88 410.995 571.245 411.24 569.6 411.4C569.362 411.461 569.111 411.429 568.896 411.31C568.681 411.192 568.519 410.997 568.443 410.764C568.366 410.531 568.381 410.278 568.485 410.055C568.588 409.833 568.773 409.658 569 409.567C570.3 408.867 571.467 408.1 572.767 407.467C573.331 407.21 573.909 406.987 574.5 406.8L576.3 406.367C577.743 406.112 579.202 405.957 580.667 405.9C580.809 405.861 580.958 405.851 581.105 405.872C581.251 405.894 581.391 405.945 581.517 406.023C581.642 406.102 581.75 406.205 581.833 406.328C581.916 406.45 581.973 406.588 582 406.733C582.06 407.016 582.006 407.311 581.85 407.554C581.694 407.797 581.448 407.97 581.167 408.033C579.8 408.533 578.567 409.2 577.233 409.733C575.9 410.267 575.333 410.333 574.5 410.667Z" fill="#528BFF"/>
<path d="M566.666 385.833C566.166 386.533 565.7 387.267 565.166 387.967C564.633 388.667 563.1 390.2 562.1 391.3C562.042 391.421 561.961 391.528 561.86 391.616C561.759 391.704 561.641 391.769 561.513 391.809C561.385 391.849 561.251 391.861 561.118 391.846C560.985 391.831 560.857 391.789 560.741 391.722C560.626 391.655 560.525 391.565 560.446 391.457C560.367 391.349 560.312 391.226 560.283 391.095C560.254 390.965 560.252 390.83 560.278 390.698C560.304 390.567 560.357 390.443 560.433 390.333C560.86 389.008 561.384 387.716 562 386.467C562.295 385.939 562.617 385.427 562.966 384.933C563.312 384.493 563.679 384.07 564.066 383.667C565.077 382.668 566.195 381.785 567.4 381.033C567.626 380.854 567.914 380.772 568.2 380.803C568.487 380.834 568.75 380.977 568.933 381.2C569.036 381.299 569.118 381.419 569.173 381.55C569.229 381.682 569.258 381.824 569.258 381.967C569.258 382.11 569.229 382.251 569.173 382.383C569.118 382.515 569.036 382.634 568.933 382.733C568.115 383.72 567.358 384.755 566.666 385.833Z" fill="#528BFF"/>
<path d="M544.866 384.366C544.57 385.512 544.168 386.628 543.666 387.7C543.642 387.825 543.594 387.943 543.524 388.05C543.454 388.156 543.364 388.247 543.259 388.318C543.153 388.389 543.035 388.439 542.911 388.465C542.786 388.49 542.658 388.491 542.533 388.466C542.288 388.418 542.071 388.276 541.928 388.071C541.785 387.866 541.727 387.613 541.766 387.366C541.766 386.233 541.433 385.2 541.4 384.033C541.354 383.103 541.444 382.171 541.666 381.266C541.933 380.133 542.266 379.1 542.6 377.933C542.641 377.647 542.794 377.388 543.025 377.213C543.256 377.038 543.546 376.962 543.833 377C543.974 377.016 544.109 377.06 544.233 377.13C544.356 377.199 544.464 377.293 544.551 377.404C544.638 377.516 544.702 377.644 544.739 377.78C544.776 377.917 544.785 378.06 544.766 378.2C544.766 379.333 545.033 380.366 545.1 381.533C545.133 382.01 545.133 382.489 545.1 382.966C545.074 383.44 544.995 383.91 544.866 384.366Z" fill="#528BFF"/>
<path d="M526.333 400.333C524.766 400.1 523.233 400 521.7 399.666C521.053 399.555 520.417 399.388 519.8 399.166L517.966 398.5C516.533 397.933 515.166 397.266 513.733 396.7C513.595 396.667 513.465 396.607 513.35 396.524C513.235 396.441 513.138 396.336 513.064 396.215C512.99 396.095 512.94 395.96 512.917 395.821C512.895 395.681 512.9 395.538 512.933 395.4C512.966 395.262 513.026 395.132 513.109 395.017C513.192 394.902 513.297 394.805 513.417 394.73C513.538 394.656 513.672 394.606 513.812 394.584C513.952 394.561 514.095 394.567 514.233 394.6C515.809 394.715 517.378 394.916 518.933 395.2C519.566 395.2 520.233 395.466 520.866 395.666C521.501 395.854 522.124 396.076 522.733 396.333C524.2 396.966 525.5 397.766 526.9 398.5C527.115 398.596 527.287 398.768 527.385 398.983C527.482 399.198 527.497 399.442 527.427 399.667C527.358 399.892 527.208 400.085 527.006 400.207C526.805 400.33 526.565 400.375 526.333 400.333Z" fill="#528BFF"/>
<path d="M502.6 417.633C504.636 416.383 506.904 415.555 509.267 415.2C510.622 414.988 511.996 414.91 513.367 414.966C515.533 414.966 517.567 415.466 519.333 415.666C519.46 415.662 519.587 415.683 519.706 415.727C519.825 415.772 519.934 415.839 520.027 415.926C520.12 416.013 520.194 416.117 520.247 416.232C520.3 416.348 520.329 416.473 520.333 416.6C520.334 416.854 520.238 417.099 520.064 417.284C519.891 417.47 519.653 417.583 519.4 417.6C517.467 417.9 515.233 418.3 512.733 418.566L509.4 418.766C508.333 418.766 507.3 418.766 506.267 418.933C505.257 419.031 504.261 419.243 503.3 419.566C503.173 419.63 503.035 419.668 502.893 419.678C502.752 419.688 502.609 419.67 502.475 419.625C502.34 419.58 502.216 419.509 502.108 419.416C502.001 419.323 501.913 419.21 501.85 419.083C501.786 418.956 501.749 418.818 501.739 418.676C501.728 418.535 501.746 418.393 501.791 418.258C501.836 418.123 501.907 417.999 502 417.892C502.093 417.784 502.206 417.697 502.333 417.633H502.6Z" fill="#528BFF"/>
<path d="M522.7 435.266C522.999 434.631 523.345 434.018 523.734 433.433C524.121 432.855 524.568 432.319 525.067 431.833C526.27 430.738 527.63 429.828 529.101 429.133C529.2 429.044 529.317 428.976 529.444 428.934C529.57 428.892 529.705 428.877 529.838 428.889C529.971 428.901 530.1 428.941 530.217 429.006C530.334 429.071 530.436 429.16 530.517 429.266C530.598 429.372 530.656 429.495 530.687 429.624C530.718 429.754 530.723 429.889 530.699 430.021C530.676 430.153 530.625 430.278 530.551 430.389C530.476 430.5 530.38 430.595 530.267 430.666C529.706 431.266 529.183 431.901 528.701 432.566C528.301 433.133 528.034 433.666 527.667 434.2C527.301 434.733 526.967 435.233 526.6 435.733C525.5 437.267 524.334 438.733 523.267 440.6C523.129 440.827 522.914 440.997 522.66 441.078C522.407 441.159 522.133 441.145 521.889 441.039C521.645 440.933 521.448 440.743 521.333 440.503C521.219 440.263 521.195 439.989 521.267 439.733C521.645 438.214 522.124 436.722 522.7 435.266Z" fill="#528BFF"/>
<path d="M524.433 416.2C524.432 415.984 524.483 415.772 524.581 415.58C524.68 415.389 524.824 415.224 525 415.1L534.633 408.033C534.633 407 534.167 404.933 533.967 402.933C533.803 401.606 533.725 400.27 533.733 398.933C533.769 397.934 533.903 396.94 534.133 395.966C534.205 395.706 534.335 395.465 534.514 395.263C534.693 395.061 534.917 394.902 535.167 394.8C535.572 394.703 535.994 394.703 536.4 394.8C537.241 395.126 538.045 395.539 538.8 396.033L547.267 401.066L557.033 396.566C557.23 396.467 557.447 396.415 557.667 396.415C557.887 396.415 558.104 396.467 558.3 396.566C558.684 396.875 558.973 397.286 559.132 397.753C559.291 398.219 559.315 398.721 559.2 399.2C558.545 402.598 557.631 405.941 556.467 409.2L558.067 410.733C559.768 412.085 561.383 413.544 562.9 415.1C563.648 415.917 564.235 416.866 564.633 417.9C564.866 418.511 564.869 419.185 564.642 419.798C564.416 420.411 563.974 420.921 563.4 421.233C562.112 421.974 560.68 422.429 559.2 422.566H556.867C559.1 424.633 561.333 426.733 563.533 428.9C564.833 430.266 566.1 431.666 567.333 433.066C568.567 434.466 569.767 435.966 570.9 437.466C573.575 440.973 576.056 444.623 578.333 448.4C578.416 448.515 578.474 448.646 578.505 448.785C578.537 448.923 578.54 449.066 578.515 449.206C578.49 449.346 578.438 449.479 578.361 449.598C578.284 449.717 578.184 449.82 578.067 449.9C577.948 449.983 577.815 450.042 577.674 450.074C577.533 450.105 577.387 450.109 577.245 450.084C577.102 450.059 576.966 450.007 576.844 449.93C576.722 449.852 576.616 449.751 576.533 449.633C575.067 447.633 573.5 445.733 571.9 443.833C570.3 441.933 568.667 440.333 566.933 438.3C565.2 436.266 563.6 434.6 562.067 432.733C559.167 429.4 556.4 425.833 553.567 422.4C552.333 422.4 551.2 422.4 550.233 422.133L549.367 424.066C551.733 427.4 554.267 430.733 556.7 434.066C558.667 436.433 560.433 438.966 562 441.566C564.806 445.977 567.258 450.602 569.333 455.4C569.422 455.544 569.476 455.707 569.489 455.876C569.503 456.045 569.476 456.215 569.411 456.371C569.345 456.527 569.244 456.666 569.115 456.775C568.985 456.885 568.832 456.962 568.667 457C568.406 457.127 568.105 457.146 567.83 457.052C567.556 456.958 567.329 456.76 567.2 456.5C564.572 451.884 561.666 447.431 558.5 443.166C557.267 441.4 556.033 439.633 554.867 437.866L552.533 434.2C551.033 431.733 549.6 429.2 548.2 426.666C547.6 427.933 546.933 429.166 546.333 430.2C545.454 431.43 544.316 432.454 543 433.2C542.461 433.501 541.834 433.606 541.226 433.497C540.618 433.388 540.067 433.07 539.667 432.6C538.952 431.732 538.409 430.737 538.067 429.666C537.489 427.584 537.032 425.469 536.7 423.333L536.2 421.166C532.803 420.522 529.46 419.619 526.2 418.466C524.867 417.633 524.4 416.666 524.433 416.2ZM537.933 417.966C538.244 418.017 538.533 418.157 538.764 418.37C538.995 418.584 539.159 418.861 539.233 419.166L540.1 422.3C540.467 423.833 540.733 425.633 541.267 427.5C541.471 428.248 541.773 428.965 542.167 429.633C542.614 429.161 543.015 428.647 543.367 428.1C543.933 427.133 544.567 425.933 545.133 424.766C546.433 422.133 547.533 419.5 547.533 419.5C547.683 419.13 547.95 418.819 548.293 418.614C548.636 418.41 549.036 418.323 549.433 418.366C549.433 418.366 552.3 418.7 555.3 418.9C557.146 418.84 558.985 418.639 560.8 418.3C560.486 417.825 560.116 417.389 559.7 417C558.433 415.666 556.9 414.466 555.8 413.366L553.467 411.033C553.248 410.815 553.097 410.539 553.032 410.237C552.967 409.936 552.991 409.622 553.1 409.333C553.1 409.333 555.333 403.466 556.067 400.1L547.7 403.666C547.518 403.772 547.311 403.827 547.1 403.827C546.889 403.827 546.682 403.772 546.5 403.666C546.5 403.666 536.067 397.566 535.7 397C535.7 397.7 535.9 401.166 536.1 402.6C536.5 405.366 537.033 408.266 537.033 408.266C537.076 408.477 537.058 408.695 536.981 408.896C536.904 409.097 536.772 409.271 536.6 409.4L528.433 415.866C531.733 417 537.933 417.966 537.933 417.966Z" fill="#98A2B3"/>
</g>
</g>
<defs>
<filter id="filter0_dd_826_9623" x="65.9483" y="192.189" width="450.103" height="122.103" filterUnits="userSpaceOnUse" color-interpolation-filters="sRGB">
<feFlood flood-opacity="0" result="BackgroundImageFix"/>
<feColorMatrix in="SourceAlpha" type="matrix" values="0 0 0 0 0 0 0 0 0 0 0 0 0 0 0 0 0 0 127 0" result="hardAlpha"/>
<feMorphology radius="2.50862" operator="erode" in="SourceAlpha" result="effect1_dropShadow_826_9623"/>
<feOffset dy="5.01724"/>
<feGaussianBlur stdDeviation="3.76293"/>
<feColorMatrix type="matrix" values="0 0 0 0 0.0627451 0 0 0 0 0.0941176 0 0 0 0 0.156863 0 0 0 0.03 0"/>
<feBlend mode="normal" in2="BackgroundImageFix" result="effect1_dropShadow_826_9623"/>
<feColorMatrix in="SourceAlpha" type="matrix" values="0 0 0 0 0 0 0 0 0 0 0 0 0 0 0 0 0 0 127 0" result="hardAlpha"/>
<feMorphology radius="5.01724" operator="erode" in="SourceAlpha" result="effect2_dropShadow_826_9623"/>
<feOffset dy="15.0517"/>
<feGaussianBlur stdDeviation="10.0345"/>
<feColorMatrix type="matrix" values="0 0 0 0 0.0627451 0 0 0 0 0.0941176 0 0 0 0 0.156863 0 0 0 0.08 0"/>
<feBlend mode="normal" in2="effect1_dropShadow_826_9623" result="effect2_dropShadow_826_9623"/>
<feBlend mode="normal" in="SourceGraphic" in2="effect2_dropShadow_826_9623" result="shape"/>
</filter>
<filter id="filter1_d_826_9623" x="126.105" y="294.224" width="329.789" height="148.414" filterUnits="userSpaceOnUse" color-interpolation-filters="sRGB">
<feFlood flood-opacity="0" result="BackgroundImageFix"/>
<feColorMatrix in="SourceAlpha" type="matrix" values="0 0 0 0 0 0 0 0 0 0 0 0 0 0 0 0 0 0 127 0" result="hardAlpha"/>
<feMorphology radius="15.0517" operator="erode" in="SourceAlpha" result="effect1_dropShadow_826_9623"/>
<feOffset dy="30.1034"/>
<feGaussianBlur stdDeviation="30.1034"/>
<feColorMatrix type="matrix" values="0 0 0 0 0.0625882 0 0 0 0 0.0926346 0 0 0 0 0.15702 0 0 0 0.18 0"/>
<feBlend mode="normal" in2="BackgroundImageFix" result="effect1_dropShadow_826_9623"/>
<feBlend mode="normal" in="SourceGraphic" in2="effect1_dropShadow_826_9623" result="shape"/>
</filter>
<clipPath id="clip0_826_9623">
<path d="M0 0H582V456.569H0V0Z" fill="white"/>
</clipPath>
<clipPath id="clip1_826_9623">
<rect width="30.1034" height="30.1034" fill="white" transform="translate(191.26 323.276)"/>
</clipPath>
<clipPath id="clip2_826_9623">
<rect width="16" height="16" fill="white" transform="translate(256 392.465)"/>
</clipPath>
<clipPath id="clip3_826_9623">
<rect width="80" height="80" fill="white" transform="matrix(-1 0 0 1 582 377)"/>
</clipPath>
</defs>
</svg>
