<svg width="1216" height="693" viewBox="0 0 1216 693" fill="none" xmlns="http://www.w3.org/2000/svg">
<g opacity="0.7">
<mask id="mask0_826_9653" style="mask-type:alpha" maskUnits="userSpaceOnUse" x="0" y="0" width="1216" height="692">
<rect width="1216" height="692" fill="url(#paint0_radial_826_9653)"/>
</mask>
<g mask="url(#mask0_826_9653)">
<mask id="path-2-inside-1_826_9653" fill="white">
<path d="M0 0H135.111V135.111H0V0Z"/>
</mask>
<path d="M0 0H135.111V135.111H0V0Z" fill="white"/>
<path d="M135.111 135.111V135.956H135.956V135.111H135.111ZM134.267 0V135.111H135.956V0H134.267ZM135.111 134.267H0V135.956H135.111V134.267Z" fill="#B2CCFF" mask="url(#path-2-inside-1_826_9653)"/>
<mask id="path-4-inside-2_826_9653" fill="white">
<path d="M135.111 0H270.222V135.111H135.111V0Z"/>
</mask>
<path d="M135.111 0H270.222V135.111H135.111V0Z" fill="white"/>
<path d="M270.222 135.111V135.956H271.067V135.111H270.222ZM269.378 0V135.111H271.067V0H269.378ZM270.222 134.267H135.111V135.956H270.222V134.267Z" fill="#B2CCFF" mask="url(#path-4-inside-2_826_9653)"/>
<mask id="path-6-inside-3_826_9653" fill="white">
<path d="M270.222 0H405.333V135.111H270.222V0Z"/>
</mask>
<path d="M270.222 0H405.333V135.111H270.222V0Z" fill="white"/>
<path d="M405.333 135.111V135.956H406.178V135.111H405.333ZM404.489 0V135.111H406.178V0H404.489ZM405.333 134.267H270.222V135.956H405.333V134.267Z" fill="#B2CCFF" mask="url(#path-6-inside-3_826_9653)"/>
<mask id="path-8-inside-4_826_9653" fill="white">
<path d="M405.333 0H540.445V135.111H405.333V0Z"/>
</mask>
<path d="M405.333 0H540.445V135.111H405.333V0Z" fill="white"/>
<path d="M540.445 135.111V135.956H541.289V135.111H540.445ZM539.6 0V135.111H541.289V0H539.6ZM540.445 134.267H405.333V135.956H540.445V134.267Z" fill="#B2CCFF" mask="url(#path-8-inside-4_826_9653)"/>
<mask id="path-10-inside-5_826_9653" fill="white">
<path d="M540.444 0H675.555V135.111H540.444V0Z"/>
</mask>
<path d="M540.444 0H675.555V135.111H540.444V0Z" fill="white"/>
<path d="M675.555 135.111V135.956H676.4V135.111H675.555ZM674.711 0V135.111H676.4V0H674.711ZM675.555 134.267H540.444V135.956H675.555V134.267Z" fill="#B2CCFF" mask="url(#path-10-inside-5_826_9653)"/>
<mask id="path-12-inside-6_826_9653" fill="white">
<path d="M675.556 0H810.667V135.111H675.556V0Z"/>
</mask>
<path d="M675.556 0H810.667V135.111H675.556V0Z" fill="#EFF4FF"/>
<path d="M810.667 135.111V135.956H811.511V135.111H810.667ZM809.822 0V135.111H811.511V0H809.822ZM810.667 134.267H675.556V135.956H810.667V134.267Z" fill="#B2CCFF" mask="url(#path-12-inside-6_826_9653)"/>
<mask id="path-14-inside-7_826_9653" fill="white">
<path d="M810.667 0H945.778V135.111H810.667V0Z"/>
</mask>
<path d="M810.667 0H945.778V135.111H810.667V0Z" fill="white"/>
<path d="M945.778 135.111V135.956H946.623V135.111H945.778ZM944.934 0V135.111H946.623V0H944.934ZM945.778 134.267H810.667V135.956H945.778V134.267Z" fill="#B2CCFF" mask="url(#path-14-inside-7_826_9653)"/>
<mask id="path-16-inside-8_826_9653" fill="white">
<path d="M945.778 0H1080.89V135.111H945.778V0Z"/>
</mask>
<path d="M945.778 0H1080.89V135.111H945.778V0Z" fill="white"/>
<path d="M1080.89 135.111V135.956H1081.73V135.111H1080.89ZM1080.04 0V135.111H1081.73V0H1080.04ZM1080.89 134.267H945.778V135.956H1080.89V134.267Z" fill="#B2CCFF" mask="url(#path-16-inside-8_826_9653)"/>
<mask id="path-18-inside-9_826_9653" fill="white">
<path d="M1080.89 0H1216V135.111H1080.89V0Z"/>
</mask>
<path d="M1080.89 0H1216V135.111H1080.89V0Z" fill="white"/>
<path d="M1216 134.267H1080.89V135.956H1216V134.267Z" fill="#B2CCFF" mask="url(#path-18-inside-9_826_9653)"/>
<mask id="path-20-inside-10_826_9653" fill="white">
<path d="M0 135.111H135.111V270.222H0V135.111Z"/>
</mask>
<path d="M0 135.111H135.111V270.222H0V135.111Z" fill="white"/>
<path d="M135.111 270.222V271.067H135.956V270.222H135.111ZM134.267 135.111V270.222H135.956V135.111H134.267ZM135.111 269.378H0V271.067H135.111V269.378Z" fill="#B2CCFF" mask="url(#path-20-inside-10_826_9653)"/>
<mask id="path-22-inside-11_826_9653" fill="white">
<path d="M135.111 135.111H270.222V270.222H135.111V135.111Z"/>
</mask>
<path d="M135.111 135.111H270.222V270.222H135.111V135.111Z" fill="white"/>
<path d="M270.222 270.222V271.067H271.067V270.222H270.222ZM269.378 135.111V270.222H271.067V135.111H269.378ZM270.222 269.378H135.111V271.067H270.222V269.378Z" fill="#B2CCFF" mask="url(#path-22-inside-11_826_9653)"/>
<mask id="path-24-inside-12_826_9653" fill="white">
<path d="M270.222 135.111H405.333V270.222H270.222V135.111Z"/>
</mask>
<path d="M270.222 135.111H405.333V270.222H270.222V135.111Z" fill="white"/>
<path d="M405.333 270.222V271.067H406.178V270.222H405.333ZM404.489 135.111V270.222H406.178V135.111H404.489ZM405.333 269.378H270.222V271.067H405.333V269.378Z" fill="#B2CCFF" mask="url(#path-24-inside-12_826_9653)"/>
<mask id="path-26-inside-13_826_9653" fill="white">
<path d="M405.333 135.111H540.445V270.222H405.333V135.111Z"/>
</mask>
<path d="M405.333 135.111H540.445V270.222H405.333V135.111Z" fill="white"/>
<path d="M540.445 270.222V271.067H541.289V270.222H540.445ZM539.6 135.111V270.222H541.289V135.111H539.6ZM540.445 269.378H405.333V271.067H540.445V269.378Z" fill="#B2CCFF" mask="url(#path-26-inside-13_826_9653)"/>
<mask id="path-28-inside-14_826_9653" fill="white">
<path d="M540.444 135.111H675.555V270.222H540.444V135.111Z"/>
</mask>
<path d="M540.444 135.111H675.555V270.222H540.444V135.111Z" fill="white"/>
<path d="M675.555 270.222V271.067H676.4V270.222H675.555ZM674.711 135.111V270.222H676.4V135.111H674.711ZM675.555 269.378H540.444V271.067H675.555V269.378Z" fill="#B2CCFF" mask="url(#path-28-inside-14_826_9653)"/>
<mask id="path-30-inside-15_826_9653" fill="white">
<path d="M675.556 135.111H810.667V270.222H675.556V135.111Z"/>
</mask>
<path d="M675.556 135.111H810.667V270.222H675.556V135.111Z" fill="white"/>
<path d="M810.667 270.222V271.067H811.511V270.222H810.667ZM809.822 135.111V270.222H811.511V135.111H809.822ZM810.667 269.378H675.556V271.067H810.667V269.378Z" fill="#B2CCFF" mask="url(#path-30-inside-15_826_9653)"/>
<mask id="path-32-inside-16_826_9653" fill="white">
<path d="M810.667 135.111H945.778V270.222H810.667V135.111Z"/>
</mask>
<path d="M810.667 135.111H945.778V270.222H810.667V135.111Z" fill="white"/>
<path d="M945.778 270.222V271.067H946.623V270.222H945.778ZM944.934 135.111V270.222H946.623V135.111H944.934ZM945.778 269.378H810.667V271.067H945.778V269.378Z" fill="#B2CCFF" mask="url(#path-32-inside-16_826_9653)"/>
<mask id="path-34-inside-17_826_9653" fill="white">
<path d="M945.778 135.111H1080.89V270.222H945.778V135.111Z"/>
</mask>
<path d="M945.778 135.111H1080.89V270.222H945.778V135.111Z" fill="white"/>
<path d="M1080.89 270.222V271.067H1081.73V270.222H1080.89ZM1080.04 135.111V270.222H1081.73V135.111H1080.04ZM1080.89 269.378H945.778V271.067H1080.89V269.378Z" fill="#B2CCFF" mask="url(#path-34-inside-17_826_9653)"/>
<mask id="path-36-inside-18_826_9653" fill="white">
<path d="M1080.89 135.111H1216V270.222H1080.89V135.111Z"/>
</mask>
<path d="M1080.89 135.111H1216V270.222H1080.89V135.111Z" fill="white"/>
<path d="M1216 269.378H1080.89V271.067H1216V269.378Z" fill="#B2CCFF" mask="url(#path-36-inside-18_826_9653)"/>
<mask id="path-38-inside-19_826_9653" fill="white">
<path d="M0 270.222H135.111V405.333H0V270.222Z"/>
</mask>
<path d="M0 270.222H135.111V405.333H0V270.222Z" fill="white"/>
<path d="M135.111 405.333V406.178H135.956V405.333H135.111ZM134.267 270.222V405.333H135.956V270.222H134.267ZM135.111 404.489H0V406.178H135.111V404.489Z" fill="#B2CCFF" mask="url(#path-38-inside-19_826_9653)"/>
<mask id="path-40-inside-20_826_9653" fill="white">
<path d="M135.111 270.222H270.222V405.333H135.111V270.222Z"/>
</mask>
<path d="M135.111 270.222H270.222V405.333H135.111V270.222Z" fill="white"/>
<path d="M270.222 405.333V406.178H271.067V405.333H270.222ZM269.378 270.222V405.333H271.067V270.222H269.378ZM270.222 404.489H135.111V406.178H270.222V404.489Z" fill="#B2CCFF" mask="url(#path-40-inside-20_826_9653)"/>
<mask id="path-42-inside-21_826_9653" fill="white">
<path d="M270.222 270.222H405.333V405.333H270.222V270.222Z"/>
</mask>
<path d="M270.222 270.222H405.333V405.333H270.222V270.222Z" fill="#EFF4FF"/>
<path d="M405.333 405.333V406.178H406.178V405.333H405.333ZM404.489 270.222V405.333H406.178V270.222H404.489ZM405.333 404.489H270.222V406.178H405.333V404.489Z" fill="#B2CCFF" mask="url(#path-42-inside-21_826_9653)"/>
<mask id="path-44-inside-22_826_9653" fill="white">
<path d="M405.333 270.222H540.445V405.333H405.333V270.222Z"/>
</mask>
<path d="M405.333 270.222H540.445V405.333H405.333V270.222Z" fill="white"/>
<path d="M540.445 405.333V406.178H541.289V405.333H540.445ZM539.6 270.222V405.333H541.289V270.222H539.6ZM540.445 404.489H405.333V406.178H540.445V404.489Z" fill="#B2CCFF" mask="url(#path-44-inside-22_826_9653)"/>
<mask id="path-46-inside-23_826_9653" fill="white">
<path d="M540.444 270.222H675.555V405.333H540.444V270.222Z"/>
</mask>
<path d="M540.444 270.222H675.555V405.333H540.444V270.222Z" fill="white"/>
<path d="M675.555 405.333V406.178H676.4V405.333H675.555ZM674.711 270.222V405.333H676.4V270.222H674.711ZM675.555 404.489H540.444V406.178H675.555V404.489Z" fill="#B2CCFF" mask="url(#path-46-inside-23_826_9653)"/>
<mask id="path-48-inside-24_826_9653" fill="white">
<path d="M675.556 270.222H810.667V405.333H675.556V270.222Z"/>
</mask>
<path d="M675.556 270.222H810.667V405.333H675.556V270.222Z" fill="white"/>
<path d="M810.667 405.333V406.178H811.511V405.333H810.667ZM809.822 270.222V405.333H811.511V270.222H809.822ZM810.667 404.489H675.556V406.178H810.667V404.489Z" fill="#B2CCFF" mask="url(#path-48-inside-24_826_9653)"/>
<mask id="path-50-inside-25_826_9653" fill="white">
<path d="M810.667 270.222H945.778V405.333H810.667V270.222Z"/>
</mask>
<path d="M810.667 270.222H945.778V405.333H810.667V270.222Z" fill="white"/>
<path d="M945.778 405.333V406.178H946.623V405.333H945.778ZM944.934 270.222V405.333H946.623V270.222H944.934ZM945.778 404.489H810.667V406.178H945.778V404.489Z" fill="#B2CCFF" mask="url(#path-50-inside-25_826_9653)"/>
<mask id="path-52-inside-26_826_9653" fill="white">
<path d="M945.778 270.222H1080.89V405.333H945.778V270.222Z"/>
</mask>
<path d="M945.778 270.222H1080.89V405.333H945.778V270.222Z" fill="white"/>
<path d="M1080.89 405.333V406.178H1081.73V405.333H1080.89ZM1080.04 270.222V405.333H1081.73V270.222H1080.04ZM1080.89 404.489H945.778V406.178H1080.89V404.489Z" fill="#B2CCFF" mask="url(#path-52-inside-26_826_9653)"/>
<mask id="path-54-inside-27_826_9653" fill="white">
<path d="M1080.89 270.222H1216V405.333H1080.89V270.222Z"/>
</mask>
<path d="M1080.89 270.222H1216V405.333H1080.89V270.222Z" fill="white"/>
<path d="M1216 404.489H1080.89V406.178H1216V404.489Z" fill="#B2CCFF" mask="url(#path-54-inside-27_826_9653)"/>
<mask id="path-56-inside-28_826_9653" fill="white">
<path d="M0 405.333H135.111V540.445H0V405.333Z"/>
</mask>
<path d="M0 405.333H135.111V540.445H0V405.333Z" fill="white"/>
<path d="M135.111 540.445V541.289H135.956V540.445H135.111ZM134.267 405.333V540.445H135.956V405.333H134.267ZM135.111 539.6H0V541.289H135.111V539.6Z" fill="#B2CCFF" mask="url(#path-56-inside-28_826_9653)"/>
<mask id="path-58-inside-29_826_9653" fill="white">
<path d="M135.111 405.333H270.222V540.445H135.111V405.333Z"/>
</mask>
<path d="M135.111 405.333H270.222V540.445H135.111V405.333Z" fill="white"/>
<path d="M270.222 540.445V541.289H271.067V540.445H270.222ZM269.378 405.333V540.445H271.067V405.333H269.378ZM270.222 539.6H135.111V541.289H270.222V539.6Z" fill="#B2CCFF" mask="url(#path-58-inside-29_826_9653)"/>
<mask id="path-60-inside-30_826_9653" fill="white">
<path d="M270.222 405.333H405.333V540.445H270.222V405.333Z"/>
</mask>
<path d="M270.222 405.333H405.333V540.445H270.222V405.333Z" fill="white"/>
<path d="M405.333 540.445V541.289H406.178V540.445H405.333ZM404.489 405.333V540.445H406.178V405.333H404.489ZM405.333 539.6H270.222V541.289H405.333V539.6Z" fill="#B2CCFF" mask="url(#path-60-inside-30_826_9653)"/>
<mask id="path-62-inside-31_826_9653" fill="white">
<path d="M405.333 405.333H540.445V540.445H405.333V405.333Z"/>
</mask>
<path d="M405.333 405.333H540.445V540.445H405.333V405.333Z" fill="white"/>
<path d="M540.445 540.445V541.289H541.289V540.445H540.445ZM539.6 405.333V540.445H541.289V405.333H539.6ZM540.445 539.6H405.333V541.289H540.445V539.6Z" fill="#B2CCFF" mask="url(#path-62-inside-31_826_9653)"/>
<mask id="path-64-inside-32_826_9653" fill="white">
<path d="M540.444 405.333H675.555V540.445H540.444V405.333Z"/>
</mask>
<path d="M540.444 405.333H675.555V540.445H540.444V405.333Z" fill="white"/>
<path d="M675.555 540.445V541.289H676.4V540.445H675.555ZM674.711 405.333V540.445H676.4V405.333H674.711ZM675.555 539.6H540.444V541.289H675.555V539.6Z" fill="#B2CCFF" mask="url(#path-64-inside-32_826_9653)"/>
<mask id="path-66-inside-33_826_9653" fill="white">
<path d="M675.556 405.333H810.667V540.445H675.556V405.333Z"/>
</mask>
<path d="M675.556 405.333H810.667V540.445H675.556V405.333Z" fill="white"/>
<path d="M810.667 540.445V541.289H811.511V540.445H810.667ZM809.822 405.333V540.445H811.511V405.333H809.822ZM810.667 539.6H675.556V541.289H810.667V539.6Z" fill="#B2CCFF" mask="url(#path-66-inside-33_826_9653)"/>
<mask id="path-68-inside-34_826_9653" fill="white">
<path d="M810.667 405.333H945.778V540.445H810.667V405.333Z"/>
</mask>
<path d="M810.667 405.333H945.778V540.445H810.667V405.333Z" fill="#EFF4FF"/>
<path d="M945.778 540.445V541.289H946.623V540.445H945.778ZM944.934 405.333V540.445H946.623V405.333H944.934ZM945.778 539.6H810.667V541.289H945.778V539.6Z" fill="#B2CCFF" mask="url(#path-68-inside-34_826_9653)"/>
<mask id="path-70-inside-35_826_9653" fill="white">
<path d="M945.778 405.333H1080.89V540.445H945.778V405.333Z"/>
</mask>
<path d="M945.778 405.333H1080.89V540.445H945.778V405.333Z" fill="white"/>
<path d="M1080.89 540.445V541.289H1081.73V540.445H1080.89ZM1080.04 405.333V540.445H1081.73V405.333H1080.04ZM1080.89 539.6H945.778V541.289H1080.89V539.6Z" fill="#B2CCFF" mask="url(#path-70-inside-35_826_9653)"/>
<mask id="path-72-inside-36_826_9653" fill="white">
<path d="M1080.89 405.333H1216V540.445H1080.89V405.333Z"/>
</mask>
<path d="M1080.89 405.333H1216V540.445H1080.89V405.333Z" fill="white"/>
<path d="M1216 539.6H1080.89V541.289H1216V539.6Z" fill="#B2CCFF" mask="url(#path-72-inside-36_826_9653)"/>
<mask id="path-74-inside-37_826_9653" fill="white">
<path d="M0 540.444H135.111V675.555H0V540.444Z"/>
</mask>
<path d="M0 540.444H135.111V675.555H0V540.444Z" fill="white"/>
<path d="M135.111 675.555V676.4H135.956V675.555H135.111ZM134.267 540.444V675.555H135.956V540.444H134.267ZM135.111 674.711H0V676.4H135.111V674.711Z" fill="#B2CCFF" mask="url(#path-74-inside-37_826_9653)"/>
<mask id="path-76-inside-38_826_9653" fill="white">
<path d="M135.111 540.444H270.222V675.555H135.111V540.444Z"/>
</mask>
<path d="M135.111 540.444H270.222V675.555H135.111V540.444Z" fill="white"/>
<path d="M270.222 675.555V676.4H271.067V675.555H270.222ZM269.378 540.444V675.555H271.067V540.444H269.378ZM270.222 674.711H135.111V676.4H270.222V674.711Z" fill="#B2CCFF" mask="url(#path-76-inside-38_826_9653)"/>
<mask id="path-78-inside-39_826_9653" fill="white">
<path d="M270.222 540.444H405.333V675.555H270.222V540.444Z"/>
</mask>
<path d="M270.222 540.444H405.333V675.555H270.222V540.444Z" fill="white"/>
<path d="M405.333 675.555V676.4H406.178V675.555H405.333ZM404.489 540.444V675.555H406.178V540.444H404.489ZM405.333 674.711H270.222V676.4H405.333V674.711Z" fill="#B2CCFF" mask="url(#path-78-inside-39_826_9653)"/>
<mask id="path-80-inside-40_826_9653" fill="white">
<path d="M405.333 540.444H540.445V675.555H405.333V540.444Z"/>
</mask>
<path d="M405.333 540.444H540.445V675.555H405.333V540.444Z" fill="white"/>
<path d="M540.445 675.555V676.4H541.289V675.555H540.445ZM539.6 540.444V675.555H541.289V540.444H539.6ZM540.445 674.711H405.333V676.4H540.445V674.711Z" fill="#B2CCFF" mask="url(#path-80-inside-40_826_9653)"/>
<mask id="path-82-inside-41_826_9653" fill="white">
<path d="M540.444 540.444H675.555V675.555H540.444V540.444Z"/>
</mask>
<path d="M540.444 540.444H675.555V675.555H540.444V540.444Z" fill="white"/>
<path d="M675.555 675.555V676.4H676.4V675.555H675.555ZM674.711 540.444V675.555H676.4V540.444H674.711ZM675.555 674.711H540.444V676.4H675.555V674.711Z" fill="#B2CCFF" mask="url(#path-82-inside-41_826_9653)"/>
<mask id="path-84-inside-42_826_9653" fill="white">
<path d="M675.556 540.444H810.667V675.555H675.556V540.444Z"/>
</mask>
<path d="M675.556 540.444H810.667V675.555H675.556V540.444Z" fill="white"/>
<path d="M810.667 675.555V676.4H811.511V675.555H810.667ZM809.822 540.444V675.555H811.511V540.444H809.822ZM810.667 674.711H675.556V676.4H810.667V674.711Z" fill="#B2CCFF" mask="url(#path-84-inside-42_826_9653)"/>
<mask id="path-86-inside-43_826_9653" fill="white">
<path d="M810.667 540.444H945.778V675.555H810.667V540.444Z"/>
</mask>
<path d="M810.667 540.444H945.778V675.555H810.667V540.444Z" fill="white"/>
<path d="M945.778 675.555V676.4H946.623V675.555H945.778ZM944.934 540.444V675.555H946.623V540.444H944.934ZM945.778 674.711H810.667V676.4H945.778V674.711Z" fill="#B2CCFF" mask="url(#path-86-inside-43_826_9653)"/>
<mask id="path-88-inside-44_826_9653" fill="white">
<path d="M945.778 540.444H1080.89V675.555H945.778V540.444Z"/>
</mask>
<path d="M945.778 540.444H1080.89V675.555H945.778V540.444Z" fill="#EFF4FF"/>
<path d="M1080.89 675.555V676.4H1081.73V675.555H1080.89ZM1080.04 540.444V675.555H1081.73V540.444H1080.04ZM1080.89 674.711H945.778V676.4H1080.89V674.711Z" fill="#B2CCFF" mask="url(#path-88-inside-44_826_9653)"/>
<mask id="path-90-inside-45_826_9653" fill="white">
<path d="M1080.89 540.444H1216V675.555H1080.89V540.444Z"/>
</mask>
<path d="M1080.89 540.444H1216V675.555H1080.89V540.444Z" fill="white"/>
<path d="M1216 674.711H1080.89V676.4H1216V674.711Z" fill="#B2CCFF" mask="url(#path-90-inside-45_826_9653)"/>
<mask id="path-92-inside-46_826_9653" fill="white">
<path d="M0 675.556H135.111V810.667H0V675.556Z"/>
</mask>
<path d="M0 675.556H135.111V810.667H0V675.556Z" fill="white"/>
<path d="M135.111 810.667V811.511H135.956V810.667H135.111ZM134.267 675.556V810.667H135.956V675.556H134.267ZM135.111 809.822H0V811.511H135.111V809.822Z" fill="#B2CCFF" mask="url(#path-92-inside-46_826_9653)"/>
<mask id="path-94-inside-47_826_9653" fill="white">
<path d="M135.111 675.556H270.222V810.667H135.111V675.556Z"/>
</mask>
<path d="M135.111 675.556H270.222V810.667H135.111V675.556Z" fill="white"/>
<path d="M270.222 810.667V811.511H271.067V810.667H270.222ZM269.378 675.556V810.667H271.067V675.556H269.378ZM270.222 809.822H135.111V811.511H270.222V809.822Z" fill="#B2CCFF" mask="url(#path-94-inside-47_826_9653)"/>
<mask id="path-96-inside-48_826_9653" fill="white">
<path d="M270.222 675.556H405.333V810.667H270.222V675.556Z"/>
</mask>
<path d="M270.222 675.556H405.333V810.667H270.222V675.556Z" fill="white"/>
<path d="M405.333 810.667V811.511H406.178V810.667H405.333ZM404.489 675.556V810.667H406.178V675.556H404.489ZM405.333 809.822H270.222V811.511H405.333V809.822Z" fill="#B2CCFF" mask="url(#path-96-inside-48_826_9653)"/>
<mask id="path-98-inside-49_826_9653" fill="white">
<path d="M405.333 675.556H540.445V810.667H405.333V675.556Z"/>
</mask>
<path d="M405.333 675.556H540.445V810.667H405.333V675.556Z" fill="white"/>
<path d="M540.445 810.667V811.511H541.289V810.667H540.445ZM539.6 675.556V810.667H541.289V675.556H539.6ZM540.445 809.822H405.333V811.511H540.445V809.822Z" fill="#B2CCFF" mask="url(#path-98-inside-49_826_9653)"/>
<mask id="path-100-inside-50_826_9653" fill="white">
<path d="M540.444 675.556H675.555V810.667H540.444V675.556Z"/>
</mask>
<path d="M540.444 675.556H675.555V810.667H540.444V675.556Z" fill="white"/>
<path d="M675.555 810.667V811.511H676.4V810.667H675.555ZM674.711 675.556V810.667H676.4V675.556H674.711ZM675.555 809.822H540.444V811.511H675.555V809.822Z" fill="#B2CCFF" mask="url(#path-100-inside-50_826_9653)"/>
<mask id="path-102-inside-51_826_9653" fill="white">
<path d="M675.556 675.556H810.667V810.667H675.556V675.556Z"/>
</mask>
<path d="M675.556 675.556H810.667V810.667H675.556V675.556Z" fill="white"/>
<path d="M810.667 810.667V811.511H811.511V810.667H810.667ZM809.822 675.556V810.667H811.511V675.556H809.822ZM810.667 809.822H675.556V811.511H810.667V809.822Z" fill="#B2CCFF" mask="url(#path-102-inside-51_826_9653)"/>
<mask id="path-104-inside-52_826_9653" fill="white">
<path d="M810.667 675.556H945.778V810.667H810.667V675.556Z"/>
</mask>
<path d="M810.667 675.556H945.778V810.667H810.667V675.556Z" fill="white"/>
<path d="M945.778 810.667V811.511H946.623V810.667H945.778ZM944.934 675.556V810.667H946.623V675.556H944.934ZM945.778 809.822H810.667V811.511H945.778V809.822Z" fill="#B2CCFF" mask="url(#path-104-inside-52_826_9653)"/>
<mask id="path-106-inside-53_826_9653" fill="white">
<path d="M945.778 675.556H1080.89V810.667H945.778V675.556Z"/>
</mask>
<path d="M945.778 675.556H1080.89V810.667H945.778V675.556Z" fill="white"/>
<path d="M1080.89 810.667V811.511H1081.73V810.667H1080.89ZM1080.04 675.556V810.667H1081.73V675.556H1080.04ZM1080.89 809.822H945.778V811.511H1080.89V809.822Z" fill="#B2CCFF" mask="url(#path-106-inside-53_826_9653)"/>
<mask id="path-108-inside-54_826_9653" fill="white">
<path d="M1080.89 675.556H1216V810.667H1080.89V675.556Z"/>
</mask>
<path d="M1080.89 675.556H1216V810.667H1080.89V675.556Z" fill="white"/>
<path d="M1216 809.822H1080.89V811.511H1216V809.822Z" fill="#B2CCFF" mask="url(#path-108-inside-54_826_9653)"/>
</g>
</g>
<defs>
<radialGradient id="paint0_radial_826_9653" cx="0" cy="0" r="1" gradientUnits="userSpaceOnUse" gradientTransform="translate(608 -6.70541e-05) rotate(90) scale(562.49 582.234)">
<stop stop-color="white"/>
<stop offset="0.991144" stop-color="white" stop-opacity="0"/>
</radialGradient>
</defs>
</svg>
