<svg width="48" height="48" viewBox="0 0 48 48" fill="none" xmlns="http://www.w3.org/2000/svg">
<g clip-path="url(#clip0_822_10156)">
<path fill-rule="evenodd" clip-rule="evenodd" d="M47.5999 16.9399C47.5999 16.4199 47.6999 14.7599 47.5999 13.7399C47.5791 13.2824 47.4488 12.8365 47.2199 12.4399C46.583 11.7629 45.7242 11.3371 44.7999 11.2399C43.189 11.1155 41.5708 11.1155 39.9599 11.2399C34.5799 11.2399 29.2399 10.7799 23.9599 10.5999C22.6199 10.5999 21.2599 10.5999 19.9599 10.5999H15.9599C13.5999 10.5999 8.63989 9.73989 5.21989 10.9199C4.35674 11.1162 3.55507 11.5216 2.88546 12.1005C2.21584 12.6795 1.69881 13.4142 1.37989 14.2399C1.34827 14.3184 1.33307 14.4026 1.33525 14.4873C1.33742 14.5719 1.3569 14.6553 1.39251 14.7321C1.42811 14.8089 1.47908 14.8776 1.54226 14.934C1.60545 14.9904 1.67951 15.0332 1.75989 15.0599C1.91651 15.1119 2.08717 15.1014 2.23623 15.0306C2.3853 14.9598 2.50126 14.8342 2.55989 14.6799C2.93285 13.8576 3.52665 13.1549 4.27521 12.6499C5.02377 12.145 5.89774 11.8577 6.79989 11.8199C9.779 11.6016 12.772 11.6618 15.7399 11.9999H19.7399L23.7399 12.1399C29.1199 12.4199 34.4799 12.9399 39.8599 13.0799C40.7599 13.0799 42.3999 12.8599 43.8599 13.0799C44.4583 13.0429 45.0513 13.2124 45.5399 13.5599C45.6019 14.6857 45.6019 15.8141 45.5399 16.9399C45.5399 19.4399 45.8799 24.3999 45.8599 28.4799C45.9009 30.065 45.8073 31.6507 45.5799 33.2199C45.5333 33.5875 45.393 33.937 45.1723 34.2347C44.9517 34.5325 44.6581 34.7684 44.3199 34.9199C43.4278 35.2389 42.4873 35.4013 41.5399 35.3999C39.2399 35.5399 36.9399 35.5999 34.6399 35.5999C32.3399 35.5999 29.9999 35.5999 27.6999 35.4599C25.0599 35.3599 22.4199 35.3399 19.7999 35.3599C15.7999 35.3599 11.9399 35.4799 7.99989 35.5799C6.55949 35.7453 5.10795 35.7921 3.65989 35.7199C3.27241 35.7286 2.88849 35.6442 2.54045 35.4736C2.19241 35.3031 1.89042 35.0515 1.65989 34.7399C1.46452 34.3492 1.36836 33.9165 1.37989 33.4799C1.37989 32.5999 1.37989 31.6399 1.37989 30.9599L1.61989 15.8599C1.62256 15.7863 1.61071 15.713 1.58501 15.644C1.55931 15.575 1.52027 15.5118 1.47012 15.4579C1.41997 15.4041 1.35969 15.3606 1.29273 15.3301C1.22577 15.2995 1.15344 15.2825 1.07989 15.2799C0.934768 15.2798 0.795279 15.336 0.690815 15.4368C0.586351 15.5375 0.525071 15.6749 0.519888 15.8199L0.139888 30.9799C0.0399736 31.9834 -0.00675842 32.9915 -0.000111623 33.9999C0.0244989 34.5316 0.16802 35.051 0.419888 35.5199C0.669474 35.9189 0.996131 36.2642 1.38075 36.5355C1.76537 36.8068 2.20023 36.9987 2.65989 37.0999C4.42513 37.3903 6.22185 37.4374 7.99989 37.2399C11.9999 37.2399 15.8599 37.2399 19.7599 37.2399C22.3599 37.2399 24.9799 37.3599 27.5799 37.4799C30.1799 37.5999 33.1999 37.7199 36.0199 37.6999C37.8999 37.6999 39.7799 37.6399 41.6599 37.5199C43.1735 37.5669 44.672 37.2078 45.9999 36.4799C46.4645 36.1482 46.8567 35.7254 47.1524 35.2371C47.4482 34.7488 47.6413 34.2053 47.7199 33.6399C47.95 31.9435 48.0437 30.2313 47.9999 28.5199C47.9999 24.4199 47.6599 19.4399 47.5999 16.9399Z" fill="#155EEF"/>
<path fill-rule="evenodd" clip-rule="evenodd" d="M23.4399 22.32C23.5203 22.3342 23.6027 22.3318 23.6821 22.313C23.7616 22.2942 23.8363 22.2594 23.9019 22.2108C23.9674 22.1621 24.0223 22.1006 24.0632 22.0299C24.1041 21.9593 24.1302 21.8811 24.1399 21.8C24.4215 20.6152 24.5293 19.3958 24.4599 18.18C24.4422 17.8156 24.3411 17.4602 24.1642 17.1412C23.9874 16.8221 23.7395 16.548 23.4399 16.34C23.1713 16.1874 22.8687 16.1049 22.5599 16.1C21.8599 16.1 20.8399 16.1 20.3599 16.1L13.5399 16C12.5599 16 11.5399 15.82 10.6399 15.82C9.91189 15.7909 9.18369 15.8718 8.47987 16.06C8.01441 16.1798 7.56949 16.3686 7.15987 16.62C6.88926 16.7741 6.66217 16.9943 6.49987 17.26C6.42517 17.4737 6.42517 17.7063 6.49987 17.92C6.49987 18.16 6.75987 18.74 6.75987 18.8C6.75987 19.28 6.75987 19.76 6.75987 20.24C6.75987 21 6.75987 21.74 6.65987 22.48C6.64865 22.6254 6.69463 22.7695 6.78801 22.8816C6.88138 22.9936 7.0148 23.0648 7.15987 23.08C7.30453 23.0921 7.44847 23.0495 7.56326 22.9606C7.67805 22.8718 7.75534 22.7431 7.77987 22.6C7.87987 21.84 7.99987 21.08 8.07987 20.32C8.15987 19.56 8.07987 19.26 8.07987 18.74C8.07987 18.74 7.91987 18.36 7.85987 18.06L8.79987 17.8C9.21224 17.7601 9.6275 17.7601 10.0399 17.8C11.1599 17.8 12.2399 18.1 13.3799 18.18H14.0999C13.8116 19.7341 13.6113 21.3033 13.4999 22.88C13.4398 24.0459 13.4398 25.2141 13.4999 26.38C13.4999 27.68 13.6199 28.98 13.6799 30.38H12.9199C11.6199 30.38 10.3599 30.66 9.01987 30.82C8.87135 30.82 8.72891 30.879 8.62389 30.984C8.51887 31.089 8.45987 31.2315 8.45987 31.38C8.45987 31.5285 8.51887 31.671 8.62389 31.776C8.72891 31.881 8.87135 31.94 9.01987 31.94C10.3799 32.08 11.6399 32.3 13.0199 32.4H14.6799H16.3599C17.6599 32.4 18.9399 32.16 20.3599 32.04C20.5077 32.0136 20.6415 31.936 20.7379 31.8208C20.8343 31.7056 20.8872 31.5602 20.8872 31.41C20.8872 31.2598 20.8343 31.1144 20.7379 30.9992C20.6415 30.8841 20.5077 30.8064 20.3599 30.78C18.9999 30.66 17.7399 30.5 16.3599 30.42H15.2999C15.4199 29.18 15.5799 27.94 15.6599 26.7C15.6599 25.96 15.6599 25.24 15.6599 24.52C15.6599 23.8 15.6599 23.08 15.6599 22.34C15.6599 21.02 15.5599 19.7 15.5199 18.34H16.2599C17.6399 18.34 19.0199 18.34 20.3799 18.18L22.6599 17.9C23.0599 18.1 23.0399 18.74 23.0799 19.4C23.0833 20.1828 23.0298 20.9649 22.9199 21.74C22.9272 21.8816 22.9828 22.0163 23.0774 22.1219C23.172 22.2274 23.3 22.2973 23.4399 22.32Z" fill="#101828"/>
<path fill-rule="evenodd" clip-rule="evenodd" d="M32.7598 32.2798C33.7998 32.2798 34.7598 32.2798 35.8798 32.1598C36.9998 32.0398 37.8798 31.7998 38.8398 31.6798C39.2388 31.6407 39.6408 31.6407 40.0398 31.6798C40.2086 31.6912 40.3753 31.6374 40.5056 31.5295C40.6358 31.4216 40.7197 31.2678 40.7398 31.0998C40.7509 30.9332 40.6965 30.7688 40.5882 30.6418C40.4798 30.5147 40.3261 30.4351 40.1598 30.4198C39.7034 30.3425 39.2424 30.2957 38.7798 30.2798C37.7998 30.2798 36.7798 30.2798 35.8198 30.2798C34.8598 30.2798 33.7198 30.2798 32.6598 30.2798C31.0847 30.4491 29.5217 30.7162 27.9798 31.0798C27.8331 31.0998 27.6995 31.1751 27.6065 31.2904C27.5136 31.4057 27.4682 31.5521 27.4798 31.6998C27.4997 31.845 27.5759 31.9767 27.6918 32.0664C27.8077 32.1561 27.9542 32.1969 28.0998 32.1798C29.6798 32.1198 31.1998 32.2798 32.7598 32.2798Z" fill="#101828"/>
</g>
<defs>
<clipPath id="clip0_822_10156">
<rect width="48" height="48" fill="white"/>
</clipPath>
</defs>
</svg>
