<svg width="48" height="48" viewBox="0 0 48 48" fill="none" xmlns="http://www.w3.org/2000/svg">
<g clip-path="url(#clip0_822_10145)">
<path fill-rule="evenodd" clip-rule="evenodd" d="M46.7799 29.6998C46.7597 29.5122 46.6666 29.3401 46.5208 29.2204C46.3749 29.1007 46.1879 29.043 45.9999 29.0598C45.9051 29.0698 45.8133 29.0984 45.7297 29.1441C45.646 29.1899 45.5723 29.2517 45.5128 29.3261C45.4533 29.4005 45.4091 29.486 45.3828 29.5777C45.3566 29.6693 45.3488 29.7652 45.3599 29.8598C45.4599 30.9598 45.5599 32.0798 45.6199 33.1998C45.6799 34.3198 45.6199 35.4398 45.6199 36.5398C45.6199 37.0398 45.6199 37.6598 45.6199 38.2398C45.5788 38.5129 45.4908 38.7767 45.3599 39.0198L44.2999 39.1998C43.6799 39.1998 43.0599 39.3598 42.4399 39.3998C41.4799 39.3998 40.4399 39.3998 39.5399 39.5198C36.2399 39.5198 32.1799 39.6398 28.1199 39.6398C24.0599 39.6398 20.1199 39.6398 16.7199 39.6398L6.27992 39.3798C5.51464 39.3623 4.75209 39.282 3.99992 39.1398C3.54911 39.0879 3.1207 38.9151 2.75992 38.6398C2.75992 38.4998 2.75992 38.2398 2.75992 38.0198C2.63992 36.9398 2.53992 35.2398 2.43992 33.3798C2.25992 29.7998 2.15992 25.6798 2.11992 24.5198C1.99127 22.8022 1.99127 21.0774 2.11992 19.3598C2.11929 18.4228 2.43658 17.5132 3.01992 16.7798C3.34144 16.69 3.66893 16.6232 3.99992 16.5798C5.25992 16.4198 7.23992 16.3198 9.43992 16.2798C13.1599 16.2798 17.4399 16.2798 19.7799 16.2798C19.863 16.2852 19.9463 16.2739 20.0249 16.2464C20.1034 16.2189 20.1757 16.1759 20.2373 16.1199C20.2989 16.0639 20.3485 15.9961 20.3834 15.9205C20.4182 15.8449 20.4374 15.763 20.4399 15.6798C20.4454 15.5951 20.4334 15.5102 20.4047 15.4303C20.376 15.3504 20.3312 15.2772 20.2731 15.2153C20.215 15.1535 20.1448 15.1042 20.0668 15.0705C19.9889 15.0369 19.9048 15.0197 19.8199 15.0198C16.6799 14.9198 9.99992 14.6198 5.99992 14.7198C4.64161 14.6523 3.28311 14.8493 1.99992 15.2998C1.1641 16.0464 0.606942 17.0549 0.419925 18.1598C0.0587323 20.2729 -0.0820228 22.4177 -7.54651e-05 24.5598C-7.54651e-05 26.0798 -7.54595e-05 32.5598 0.199925 36.5598C0.243905 37.5268 0.357532 38.4893 0.539925 39.4398C0.620879 39.6489 0.743341 39.8394 0.899925 39.9998C1.48043 40.6512 2.24937 41.1055 3.09992 41.2998C4.09764 41.5248 5.11716 41.6389 6.13992 41.6398L16.6399 41.9998C19.9999 41.9998 23.9999 41.9998 28.1199 41.7998C32.2399 41.5998 36.2399 41.5198 39.5799 41.3598C40.5599 41.3598 41.5799 41.2598 42.5599 41.1598C43.2315 41.1058 43.8993 41.0123 44.5599 40.8798C45.0315 40.8314 45.4951 40.7239 45.9399 40.5598C46.2493 40.4334 46.5139 40.2175 46.6999 39.9398C46.9228 39.6011 47.0726 39.2197 47.1399 38.8198C47.2417 38.0711 47.2752 37.3146 47.2399 36.5598C47.2399 35.4198 47.2399 34.2598 47.1199 33.1198C46.9999 31.9798 46.9199 30.8198 46.7799 29.6998Z" fill="#101828"/>
<path fill-rule="evenodd" clip-rule="evenodd" d="M29.8798 27.7799C32.025 28.8139 34.4263 29.1964 36.7866 28.8801C39.1469 28.5637 41.3627 27.5623 43.1598 25.9999C43.2907 25.8623 43.3636 25.6798 43.3636 25.4899C43.3636 25.3001 43.2907 25.1175 43.1598 24.9799C43.0256 24.8504 42.8464 24.778 42.6598 24.778C42.4733 24.778 42.2941 24.8504 42.1598 24.9799C40.5595 26.2855 38.6114 27.0932 36.5567 27.3029C34.502 27.5126 32.431 27.1152 30.5998 26.1599C28.7718 25.3711 27.3275 23.8947 26.579 22.0497C25.8305 20.2048 25.838 18.1394 26.5998 16.2999C27.4382 14.2085 28.8617 12.4031 30.6998 11.0999C32.499 9.73717 34.6091 8.84365 36.8398 8.49991C38.8766 8.17888 40.9604 8.61272 42.6998 9.71991C43.5238 10.2673 44.2129 10.9944 44.7153 11.8466C45.2176 12.6988 45.52 13.6539 45.5998 14.6399C45.7316 16.4032 45.3934 18.1699 44.6198 19.7599C44.1798 20.5199 43.5998 21.0999 42.6198 20.8399C42.1198 20.6799 42.1198 20.0399 42.0398 19.4399C41.9998 18.4199 41.9998 17.2999 41.9998 16.6599L41.8798 15.2399C41.8798 14.9599 41.8798 14.2599 41.8798 14.0799C41.8482 13.8221 41.7195 13.586 41.5198 13.4199L39.9998 12.7799C38.4799 12.4718 36.9032 12.6122 35.4616 13.1838C34.0199 13.7555 32.7756 14.7339 31.8798 15.9999C31.0762 17.172 30.6954 18.5826 30.7998 19.9999C30.8821 20.5288 31.0832 21.0321 31.3881 21.4721C31.6929 21.912 32.0935 22.2771 32.5598 22.5399C33.2262 22.9841 34.0153 23.2077 34.8156 23.1789C35.616 23.1502 36.387 22.8707 37.0198 22.3799C38.2033 21.4162 39.1651 20.2088 39.8398 18.8399C39.8344 19.5772 39.9354 20.3115 40.1398 21.0199C40.2563 21.4768 40.4832 21.8981 40.8005 22.2468C41.1178 22.5955 41.5159 22.861 41.9598 23.0199C42.8637 23.3164 43.8459 23.2632 44.7124 22.8707C45.5789 22.4782 46.2667 21.7749 46.6398 20.8999C47.6547 18.9041 48.1239 16.6755 47.9998 14.4399C47.8858 13.0926 47.4664 11.7891 46.7733 10.6282C46.0802 9.46724 45.1317 8.47949 43.9998 7.73991C41.7648 6.3265 39.0927 5.7722 36.4798 6.17991C33.865 6.6253 31.4035 7.71857 29.3198 9.35991C27.1794 10.9599 25.5416 13.139 24.5998 15.6399C23.7063 17.9512 23.7594 20.5214 24.7477 22.7938C25.736 25.0661 27.5799 26.8576 29.8798 27.7799ZM36.7198 20.2799C36.3836 20.8229 35.8523 21.2166 35.2349 21.3803C34.6175 21.5439 33.9609 21.4651 33.3998 21.1599C33.0782 20.984 32.811 20.7231 32.6276 20.4056C32.4442 20.0882 32.3516 19.7264 32.3598 19.3599C32.3927 18.4753 32.6696 17.617 33.1598 16.8799C33.8471 15.8061 34.8367 14.9597 36.004 14.4472C37.1714 13.9347 38.4642 13.7791 39.7198 13.9999C39.0796 16.2469 38.0654 18.3699 36.7198 20.2799Z" fill="#155EEF"/>
<path fill-rule="evenodd" clip-rule="evenodd" d="M16.2 31.76C15.46 31.76 14.7 31.76 13.96 31.76C12.2 31.88 10.5 32.14 8.74 32.36C8.64787 32.3435 8.55325 32.3475 8.46281 32.3715C8.37236 32.3956 8.2883 32.4392 8.21653 32.4992C8.14476 32.5593 8.08704 32.6344 8.04743 32.7192C8.00783 32.804 7.9873 32.8964 7.9873 32.99C7.9873 33.0836 8.00783 33.176 8.04743 33.2608C8.08704 33.3456 8.14476 33.4207 8.21653 33.4808C8.2883 33.5409 8.37236 33.5845 8.46281 33.6085C8.55325 33.6326 8.64787 33.6365 8.74 33.62C10.74 33.78 12.74 34.02 14.74 34.1C15.92 34.1 17.12 34.1 18.3 34.1C20.08 34.1 21.84 33.92 23.62 33.92C23.7136 33.9282 23.8078 33.9175 23.8971 33.8885C23.9865 33.8595 24.0691 33.8128 24.14 33.7512C24.2109 33.6896 24.2687 33.6144 24.3099 33.53C24.3512 33.4456 24.375 33.3538 24.38 33.26C24.3911 33.1664 24.3831 33.0716 24.3567 32.9812C24.3302 32.8908 24.2857 32.8066 24.226 32.7338C24.1662 32.661 24.0924 32.601 24.0089 32.5573C23.9254 32.5137 23.8339 32.4874 23.74 32.48C22 32.22 20.26 31.96 18.5 31.82C17.7 31.8 16.96 31.76 16.2 31.76Z" fill="#155EEF"/>
</g>
<defs>
<clipPath id="clip0_822_10145">
<rect width="48" height="48" fill="white"/>
</clipPath>
</defs>
</svg>
