<svg width="48" height="48" viewBox="0 0 48 48" fill="none" xmlns="http://www.w3.org/2000/svg">
<g clip-path="url(#clip0_822_10103)">
<path fill-rule="evenodd" clip-rule="evenodd" d="M20.3001 34.2C16.3001 34.2 7.72012 33.92 4.08012 32.42C3.54012 32.2 3.12012 32.06 3.06012 31.76C2.48012 29.3 1.36012 7.00003 2.20012 2.26003C2.2346 2.10356 2.2055 1.93979 2.11923 1.80476C2.03297 1.66974 1.8966 1.57451 1.74012 1.54003C1.58364 1.50556 1.41987 1.53465 1.28485 1.62092C1.14982 1.70718 1.0546 1.84356 1.02012 2.00003C-0.199882 7.10003 -0.399882 26.86 0.880118 32.28C1.05331 32.9074 1.45218 33.4488 2.00012 33.8C5.36012 36.02 16.2801 35.8 20.3001 35.56C20.4805 35.56 20.6534 35.4884 20.781 35.3609C20.9085 35.2333 20.9801 35.0604 20.9801 34.88C20.9801 34.6997 20.9085 34.5267 20.781 34.3992C20.6534 34.2717 20.4805 34.2 20.3001 34.2Z" fill="#101828"/>
<path fill-rule="evenodd" clip-rule="evenodd" d="M4.2201 1.99998C8.4001 1.81998 35.1401 2.29998 38.5601 3.33998C39.1801 3.97998 39.5601 9.33998 39.7201 10.6C40.1001 13.46 40.3601 15.88 40.5201 18.8C40.5201 18.9591 40.5833 19.1117 40.6958 19.2242C40.8084 19.3368 40.961 19.4 41.1201 19.4C41.2792 19.4 41.4318 19.3368 41.5444 19.2242C41.6569 19.1117 41.7201 18.9591 41.7201 18.8C41.7201 16.18 41.5601 13.1 41.3801 10.44C41.2201 8.11998 41.3801 3.03998 39.8801 1.69998C37.0401 -0.88002 8.5601 0.179979 4.1401 0.559979C4.04554 0.565232 3.95295 0.589057 3.86761 0.630093C3.78226 0.67113 3.70584 0.728574 3.64269 0.799147C3.51517 0.941674 3.44949 1.12902 3.4601 1.31998C3.4707 1.51094 3.55674 1.68986 3.69926 1.81738C3.84179 1.94491 4.02914 2.01059 4.2201 1.99998Z" fill="#101828"/>
<path fill-rule="evenodd" clip-rule="evenodd" d="M6.30019 5.99998C6.58144 6.28089 6.96269 6.43866 7.36019 6.43866C7.75769 6.43866 8.13894 6.28089 8.42019 5.99998C8.59146 5.7126 8.6434 5.36958 8.56491 5.04436C8.48641 4.71915 8.2837 4.4376 8.00019 4.25998C6.74019 3.61998 5.12019 4.89998 6.30019 5.99998Z" fill="#101828"/>
<path fill-rule="evenodd" clip-rule="evenodd" d="M10.8401 5.57995C11.1272 5.85734 11.5108 6.01238 11.9101 6.01238C12.3093 6.01238 12.6929 5.85734 12.9801 5.57995C13.1391 5.30514 13.1903 4.98104 13.1238 4.67057C13.0573 4.36011 12.8777 4.08545 12.6201 3.89995C11.3001 3.15995 9.66006 4.43995 10.8401 5.57995Z" fill="#101828"/>
<path fill-rule="evenodd" clip-rule="evenodd" d="M15.8202 5.58002C15.9671 5.7207 16.1408 5.83046 16.3309 5.90278C16.5211 5.97511 16.7238 6.00853 16.9271 6.00107C17.1304 5.99361 17.3301 5.94542 17.5145 5.85935C17.6988 5.77328 17.8639 5.65109 18.0002 5.50002C18.1592 5.22521 18.2105 4.9011 18.1439 4.59064C18.0774 4.28018 17.8979 4.00552 17.6402 3.82002C16.2602 3.16002 14.6402 4.44002 15.8202 5.58002Z" fill="#101828"/>
<path fill-rule="evenodd" clip-rule="evenodd" d="M3.14003 9.72004C5.66003 9.72004 12.04 10.24 19.8 10.24C26.8 10.24 31.36 9.92004 36.48 9.78004C36.6604 9.78004 36.8333 9.7084 36.9609 9.58087C37.0884 9.45335 37.16 9.28039 37.16 9.10004C37.16 8.91969 37.0884 8.74673 36.9609 8.61921C36.8333 8.49168 36.6604 8.42004 36.48 8.42004C25.34 8.42004 24.36 7.32004 3.10003 8.42004C3.01467 8.42267 2.93067 8.44208 2.85281 8.47717C2.77496 8.51227 2.70477 8.56235 2.64627 8.62456C2.58777 8.68678 2.5421 8.75991 2.51186 8.83977C2.48162 8.91964 2.46741 9.00468 2.47003 9.09004C2.47266 9.1754 2.49207 9.25941 2.52717 9.33726C2.56226 9.41512 2.61234 9.4853 2.67456 9.5438C2.73677 9.6023 2.8099 9.64798 2.88977 9.67822C2.96963 9.70845 3.05467 9.72267 3.14003 9.72004Z" fill="#155EEF"/>
<path fill-rule="evenodd" clip-rule="evenodd" d="M46.26 41.24C44.6951 39.2987 42.6161 37.8364 40.26 37.02C45.86 33.58 45.46 23.62 38.68 22.3C38.592 22.2826 38.5014 22.2828 38.4135 22.3005C38.3255 22.3183 38.242 22.3533 38.1676 22.4034C38.0932 22.4536 38.0295 22.5181 37.9802 22.593C37.9308 22.6679 37.8968 22.7519 37.88 22.84C37.62 24.04 39.46 23.24 41.24 25.5C43.96 29 42.02 37.84 32.88 35.72C25.94 34.3 26.76 22.06 36.34 22.68C36.4188 22.6879 36.4984 22.6802 36.5742 22.6573C36.65 22.6344 36.7206 22.5968 36.7819 22.5467C36.8431 22.4965 36.8939 22.4348 36.9314 22.365C36.9688 22.2953 36.9921 22.2188 37 22.14C37.0079 22.0612 37.0002 21.9816 36.9773 21.9058C36.9544 21.83 36.9169 21.7594 36.8667 21.6982C36.8166 21.6369 36.7548 21.5861 36.6851 21.5486C36.6153 21.5112 36.5388 21.4879 36.46 21.48C34.4243 21.0321 32.295 21.3424 30.4718 22.3527C28.6486 23.363 27.2566 25.0038 26.5571 26.9674C25.8576 28.931 25.8986 31.0823 26.6724 33.0178C27.4462 34.9533 28.8996 36.5399 30.76 37.48C26.36 39.24 22.76 42.82 23.36 47.48C23.36 47.6391 23.4232 47.7917 23.5358 47.9043C23.6483 48.0168 23.8009 48.08 23.96 48.08C24.1191 48.08 24.2718 48.0168 24.3843 47.9043C24.4968 47.7917 24.56 47.6391 24.56 47.48C24.78 44.58 28.56 40.92 30.68 39.34C32.48 38.24 32.44 38.3 32.68 38.1C34.7197 38.5785 36.8522 38.4816 38.84 37.82C40.3945 38.8248 41.8539 39.9696 43.2 41.24C45.0547 42.7829 46.3541 44.89 46.9 47.24C46.9 47.3991 46.9632 47.5517 47.0758 47.6643C47.1883 47.7768 47.3409 47.84 47.5 47.84C47.6591 47.84 47.8118 47.7768 47.9243 47.6643C48.0368 47.5517 48.1 47.3991 48.1 47.24C48.2828 45.0776 47.6236 42.9282 46.26 41.24Z" fill="#101828"/>
<path fill-rule="evenodd" clip-rule="evenodd" d="M34.2201 27.7799C32.7786 28.664 31.1105 29.1088 29.4201 29.0599C29.3414 29.0533 29.262 29.0623 29.1867 29.0864C29.1114 29.1105 29.0416 29.1492 28.9812 29.2003C28.9209 29.2513 28.8712 29.3138 28.835 29.3841C28.7987 29.4544 28.7767 29.5311 28.7701 29.6099C28.7636 29.6887 28.7726 29.768 28.7967 29.8433C28.8208 29.9186 28.8595 29.9884 28.9105 30.0488C28.9616 30.1092 29.0241 30.1589 29.0943 30.1951C29.1646 30.2313 29.2414 30.2533 29.3201 30.2599C33.3201 30.9999 34.9001 30.2599 38.2001 28.0799C39.4401 29.2999 40.5801 30.9399 41.3201 30.0799C41.4472 29.9524 41.5185 29.7798 41.5185 29.5999C41.5185 29.42 41.4472 29.2474 41.3201 29.1199C39.6201 27.3399 39.4601 25.3399 37.6801 25.8599C36.4786 26.4089 35.3218 27.0508 34.2201 27.7799Z" fill="#101828"/>
<path fill-rule="evenodd" clip-rule="evenodd" d="M11.4602 14.28C11.0432 13.6284 10.4353 13.1212 9.71945 12.8277C9.0036 12.5342 8.21464 12.4687 7.46018 12.64C6.9936 12.7937 6.56959 13.0547 6.22224 13.4021C5.87488 13.7495 5.61387 14.1735 5.46018 14.64C5.29542 15.1196 5.26495 15.6351 5.37207 16.1307C5.47919 16.6263 5.71982 17.0832 6.06792 17.4518C6.41601 17.8205 6.85832 18.087 7.34696 18.2224C7.8356 18.3578 8.35197 18.357 8.84018 18.22C9.70822 18.0415 10.4706 17.5274 10.9613 16.7894C11.452 16.0515 11.6313 15.1496 11.4602 14.28ZM8.60018 16C7.72018 16.28 7.28018 15.6 7.52018 14.96C8.42018 12.66 11.7802 15.06 8.60018 16Z" fill="#155EEF"/>
<path fill-rule="evenodd" clip-rule="evenodd" d="M31.8002 15.3C31.5802 15.3 25.8002 14.7 25.5602 14.68C24.3202 14.52 24.0802 12.86 20.6602 14.68C19.7202 15.18 19.8602 15.12 18.6602 14.58C18.1602 14.32 17.0402 13.44 16.1002 13.74C15.1602 14.04 15.1802 14.58 14.9602 15.3C14.9602 15.5 14.4602 16.02 14.8602 16.42C14.9357 16.5192 15.0386 16.5942 15.1562 16.6357C15.2737 16.6772 15.4009 16.6835 15.522 16.6538C15.6431 16.624 15.7528 16.5596 15.8378 16.4683C15.9227 16.377 15.9792 16.2629 16.0002 16.14C16.095 16.0153 16.1631 15.8723 16.2002 15.72C16.2002 15.58 16.5602 15.36 16.6002 15.18C18.2002 16.34 19.0202 17.32 20.8202 16.88C21.551 16.5641 22.307 16.3099 23.0802 16.12C23.2964 16.1378 23.5037 16.2138 23.6802 16.34C24.1938 16.6516 24.7654 16.8558 25.3602 16.94C31.0802 16.94 31.1002 16.94 31.8802 16.94C32.8241 16.8642 33.7565 16.6831 34.6602 16.4C34.8131 16.3341 34.9375 16.2159 35.0111 16.0665C35.0847 15.9171 35.1026 15.7464 35.0616 15.585C35.0207 15.4237 34.9235 15.2821 34.7876 15.1859C34.6518 15.0897 34.486 15.0451 34.3202 15.06C33.4878 15.2065 32.6452 15.2867 31.8002 15.3Z" fill="#101828"/>
<path fill-rule="evenodd" clip-rule="evenodd" d="M24.3201 25.8201C24.3201 24.4601 21.7401 25.6601 20.9001 25.8201C20.0601 25.9801 18.2201 23.8201 16.7401 24.3601C16.4385 24.5001 16.1822 24.7218 16.0001 25.0001C15.6553 25.6352 15.3804 26.3057 15.1801 27.0001C15.1473 27.0723 15.129 27.1503 15.1263 27.2296C15.1236 27.3089 15.1366 27.3879 15.1644 27.4622C15.1923 27.5365 15.2345 27.6046 15.2887 27.6625C15.3428 27.7205 15.4079 27.7672 15.4801 27.8001C15.5524 27.8329 15.6303 27.8512 15.7096 27.8539C15.7889 27.8566 15.868 27.8436 15.9423 27.8158C16.0165 27.7879 16.0846 27.7457 16.1426 27.6915C16.2006 27.6374 16.2473 27.5723 16.2801 27.5001C16.5601 27.0801 17.1801 26.7001 17.4001 26.4001C18.1258 27.0458 18.9673 27.548 19.8801 27.8801C22.0801 28.1801 22.3401 26.8001 23.8801 26.5401C24.026 26.4903 24.1499 26.3911 24.2302 26.2596C24.3106 26.1281 24.3424 25.9726 24.3201 25.8201Z" fill="#101828"/>
<path fill-rule="evenodd" clip-rule="evenodd" d="M5.46001 26.12C5.41727 26.6129 5.50494 27.1083 5.71421 27.5566C5.92349 28.0048 6.24701 28.3902 6.6523 28.6739C7.05759 28.9576 7.53037 29.1296 8.0232 29.1729C8.51602 29.2161 9.01154 29.1288 9.46001 28.92C9.89012 28.7487 10.2737 28.4783 10.5795 28.1308C10.8854 27.7832 11.1048 27.3684 11.22 26.92C12 23.06 5.74001 22 5.46001 26.12ZM9.46001 26.4C9.38804 26.5304 9.28987 26.6446 9.17166 26.7352C9.05345 26.8259 8.91776 26.8911 8.77312 26.9268C8.62848 26.9625 8.47803 26.9679 8.33121 26.9426C8.18439 26.9173 8.04439 26.862 7.92001 26.78C7.73941 26.5792 7.62369 26.3286 7.588 26.0609C7.55231 25.7933 7.59832 25.5211 7.72001 25.28C7.87834 25.1154 8.07905 24.9977 8.30001 24.94C9.86001 24.66 9.60001 26.24 9.52001 26.4H9.46001Z" fill="#155EEF"/>
</g>
<defs>
<clipPath id="clip0_822_10103">
<rect width="48" height="48" fill="white"/>
</clipPath>
</defs>
</svg>
