<svg width="49" height="48" viewBox="0 0 49 48" fill="none" xmlns="http://www.w3.org/2000/svg">
<g clip-path="url(#clip0_822_10161)">
<path fill-rule="evenodd" clip-rule="evenodd" d="M13.6202 27.8801C13.3802 27.5601 11.3602 25.7001 8.56017 30.6401C8.06166 31.5135 7.61424 32.415 7.22017 33.3401C6.58636 34.7362 6.11009 36.1986 5.80017 37.7001C5.55364 39.0496 5.71375 40.4419 6.26017 41.7001C6.7942 42.7457 7.61236 43.6194 8.62064 44.2208C9.62893 44.8222 10.7864 45.127 11.9602 45.1001C13.1079 45.1036 14.2368 44.8085 15.2361 44.244C16.2353 43.6795 17.0707 42.8649 17.6602 41.8801C18.1898 40.8423 18.5003 39.7067 18.5726 38.5438C18.6448 37.3809 18.4772 36.2155 18.0802 35.1201C17.0095 32.474 15.5019 30.0266 13.6202 27.8801ZM15.0402 41.4201C14.0583 42.0991 12.8688 42.4107 11.6802 42.3001C10.6085 42.4255 9.5292 42.1396 8.66017 41.5001C8.34806 41.1919 8.11575 40.8123 7.98333 40.3941C7.85091 39.976 7.82237 39.5318 7.90017 39.1001C8.10336 37.7985 8.45221 36.5238 8.94017 35.3001C9.31702 34.2219 9.79936 33.1836 10.3802 32.2001C10.7202 31.6201 11.0802 31.0801 11.4602 30.5201C13.155 32.1358 14.6158 33.9803 15.8002 36.0001C16.3859 36.831 16.6334 37.8537 16.4922 38.8605C16.3511 39.8672 15.8319 40.7824 15.0402 41.4201Z" fill="#155EEF"/>
<path fill-rule="evenodd" clip-rule="evenodd" d="M25.7401 6.0001C25.5793 6.68672 25.2334 7.31617 24.7401 7.8201C24.3801 8.2001 23.6001 8.46009 23.2001 8.90009C22.9882 9.14077 22.8373 9.42887 22.7601 9.7401C22.6602 10.1339 22.6602 10.5463 22.7601 10.9401C22.9001 11.5201 23.2401 12.1001 23.4201 12.6201C23.5505 12.9683 23.5505 13.3519 23.4201 13.7001C23.3454 13.8483 23.2413 13.9798 23.114 14.0864C22.9868 14.193 22.8391 14.2725 22.6801 14.3201C22.3455 14.4497 21.9747 14.4497 21.6401 14.3201C21.1823 14.1345 20.7869 13.8223 20.5001 13.4201C19.9779 12.7326 19.2897 12.189 18.5001 11.8401C18.0752 11.7281 17.6272 11.7402 17.2089 11.8749C16.7907 12.0096 16.4198 12.2612 16.1401 12.6001C15.6168 13.151 15.2748 13.849 15.1601 14.6001C15.1309 15.8694 15.191 17.1392 15.3401 18.4001C15.3634 19.3441 15.1133 20.2748 14.6201 21.0801C13.6401 22.7001 15.8801 22.1601 17.0601 19.8601C17.205 19.4052 17.2989 18.9357 17.3401 18.4601C17.3401 17.4801 17.1601 16.4601 17.2401 15.3601C17.2581 14.9407 17.4288 14.5423 17.7201 14.2401C17.7201 14.2401 17.9001 14.4201 17.9801 14.4801C18.0601 14.5401 18.4201 14.9201 18.6201 15.1401C19.1662 15.7589 19.8518 16.2388 20.6201 16.5401C21.4778 16.8606 22.4224 16.8606 23.2801 16.5401C23.7375 16.3698 24.1528 16.103 24.4979 15.7579C24.843 15.4128 25.1098 14.9975 25.2801 14.5401C25.6295 13.6671 25.6295 12.6931 25.2801 11.8201C25.1001 11.4001 24.8001 10.9401 24.6001 10.4801C24.5837 10.3136 24.6186 10.1462 24.7001 10.0001L26.1201 8.8601C26.8727 7.97222 27.3398 6.87781 27.4601 5.7201C27.4897 5.45425 27.4897 5.18594 27.4601 4.9201C26.3401 3.5401 25.8801 4.1601 25.7401 6.0001Z" fill="#155EEF"/>
<path fill-rule="evenodd" clip-rule="evenodd" d="M31.5001 23.8601C32.0601 23.4401 32.6201 23.0401 33.2001 22.6601C35.5624 21.2811 37.8157 19.7232 39.9401 18.0001C41.409 16.7191 42.5943 15.1455 43.4201 13.3801C43.698 12.6662 43.698 11.874 43.4201 11.1601C42.9417 10.1229 42.3798 9.1263 41.7401 8.18007C41.1063 6.8207 40.3498 5.52199 39.4801 4.30007C39.0206 3.64738 38.3604 3.16277 37.6001 2.92007C37.1908 2.86223 36.7742 2.94698 36.4201 3.16007C35.8827 3.47472 35.374 3.83612 34.9001 4.24007C34.9001 4.12007 34.7601 3.98007 34.7001 3.88007C33.876 2.69915 32.988 1.56412 32.0401 0.480072C31.9739 0.395622 31.8886 0.32804 31.7913 0.282851C31.694 0.237663 31.5873 0.21615 31.4801 0.220072C31.3986 0.135844 31.2974 0.0733982 31.1856 0.0384559C31.0738 0.00351349 30.955 -0.0028076 30.8401 0.0200719C29.0881 0.443569 27.3804 1.03289 25.7401 1.78007C23.3444 2.93562 21.0081 4.21056 18.7401 5.60007C16.9201 6.80007 15.1001 8.00007 13.3401 9.24007C10.6801 11.2401 8.18007 13.2401 5.74007 15.4201C5.61726 15.5282 5.53903 15.6782 5.52055 15.8408C5.50207 16.0034 5.54467 16.1671 5.64007 16.3001C5.7164 16.3788 5.81349 16.4343 5.92007 16.4601C6.38007 17.6601 6.88007 18.8801 7.42007 20.0801H7.12007L6.74007 20.2401C6.62437 20.3226 6.51718 20.4163 6.42007 20.5201C5.38007 21.6401 5.28007 21.9401 5.50007 22.3401C5.72007 22.7401 5.86007 22.9001 7.50007 22.4801L7.92007 22.3001C8.07635 22.2251 8.21846 22.1236 8.34007 22.0001C8.58007 22.4201 8.78007 22.8801 9.02007 23.2801C9.31992 23.8443 9.66084 24.3858 10.0401 24.9001C10.2561 25.1909 10.5677 25.3963 10.9201 25.4801C12.0583 25.6742 13.225 25.6196 14.3401 25.3201C15.8724 24.901 17.3597 24.3316 18.7801 23.6201C21.1801 22.4601 23.5401 21.2601 25.8201 19.9401C28.1001 18.6201 30.3801 17.1401 32.5001 15.6201C33.7464 14.8143 34.942 13.9327 36.0801 12.9801C36.6302 12.4929 37.0964 11.9186 37.4601 11.2801C37.6337 10.9049 37.676 10.4822 37.5801 10.0801C37.3546 9.25769 37.0464 8.46029 36.6601 7.70007C36.3401 6.98007 35.8801 6.30007 35.5001 5.70007C36.2601 5.42007 37.2401 5.02007 37.1401 4.52007C37.6481 4.85401 38.0504 5.32575 38.3001 5.88007C38.9601 7.04007 39.4601 8.48007 39.8001 9.22007C40.0001 9.66007 40.4801 10.4601 40.8601 11.2201C40.9932 11.51 41.1003 11.8112 41.1801 12.1201C41.1801 12.2401 41.1801 12.3601 41.1801 12.4401C40.453 13.9061 39.4397 15.2118 38.2001 16.2801C36.2034 17.9684 34.0989 19.525 31.9001 20.9401C31.4201 21.3001 30.9401 21.6801 30.4801 22.0801C30.0201 22.4801 29.1601 23.2601 28.4801 23.8801C28.1404 24.1655 27.8197 24.4729 27.5201 24.8001C27.3098 25.039 27.1651 25.3285 27.1001 25.6401C27.0218 26.2761 27.1479 26.9205 27.4601 27.4801C27.8361 28.1962 28.2923 28.8672 28.8201 29.4801C28.279 29.916 27.8361 30.4612 27.5201 31.0801C27.3147 31.565 27.1799 32.0769 27.1201 32.6001C27.059 33.0915 27.059 33.5886 27.1201 34.0801C27.1252 34.1616 27.1463 34.2412 27.1822 34.3145C27.2182 34.3878 27.2683 34.4533 27.3296 34.5072C27.3909 34.5611 27.4623 34.6023 27.5396 34.6285C27.6169 34.6548 27.6986 34.6655 27.7801 34.6601C27.7686 34.7531 27.7686 34.8471 27.7801 34.9401C27.7633 35.128 27.8209 35.3151 27.9406 35.4609C28.0603 35.6068 28.2325 35.6999 28.4201 35.7201C28.6719 35.7585 28.9282 35.7585 29.1801 35.7201C29.1801 35.8201 30.9801 39.4601 31.1801 39.7201C32.1001 41.4601 33.0601 43.1601 34.0401 44.8401C34.6439 45.8553 35.4147 46.7613 36.3201 47.5201C36.9649 47.9382 37.7393 48.1088 38.5001 48.0001C39.0843 47.9833 39.6479 47.7802 40.1084 47.4204C40.569 47.0606 40.9025 46.5629 41.0601 46.0001C41.3598 44.7667 41.3252 43.4757 40.9601 42.2601C40.5979 41.1827 40.1428 40.1388 39.6001 39.1401C38.8201 37.7201 37.8801 36.3801 37.0001 35.0201L35.0001 31.9401C35.1338 31.5312 35.1581 31.0945 35.0703 30.6734C34.9826 30.2522 34.786 29.8615 34.5001 29.5401C34.1642 29.162 33.7555 28.8555 33.2985 28.639C32.8414 28.4225 32.3454 28.3004 31.8401 28.2801C31.3007 28.3067 30.7713 28.4357 30.2801 28.6601C29.9145 28.1796 29.5868 27.6714 29.3001 27.1401C29.0658 26.7921 28.9469 26.3793 28.9601 25.9601L29.9001 25.2001C30.5001 24.7401 30.9401 24.2801 31.5001 23.8601ZM35.7001 10.5401C35.3222 11.022 34.8698 11.4406 34.3601 11.7801C33.3401 12.5401 32.1601 13.2001 31.3001 13.7801C29.1201 15.2401 26.9001 16.5601 24.6601 17.7801C22.4201 19.0001 20.1401 20.3201 17.8001 21.5001C17.1401 21.8601 13.6601 23.3801 12.3001 24.0601C10.8476 22.9077 9.68916 21.4272 8.92007 19.7401C8.24007 18.5201 7.68007 17.2401 7.12007 16.0001C8.24007 15.2001 9.36007 14.4201 10.5001 13.6601C12.0801 12.6401 13.6801 11.6601 15.2801 10.6801L20.0201 7.62007C23.3949 5.10057 27.0866 3.03618 31.0001 1.48007C31.8001 2.54007 32.5601 3.64007 33.2601 4.78007C33.9578 5.94567 34.5663 7.16249 35.0801 8.42007C35.2201 8.76007 35.1801 10.4001 35.7001 10.5401ZM34.0001 33.2001L35.4401 35.8801C36.2001 37.2601 37.0001 38.6201 37.6601 40.0601C38.0732 40.9629 38.4078 41.8997 38.6601 42.8601C38.8288 43.5127 38.8696 44.1919 38.7801 44.8601C38.7801 45.2001 38.6201 45.5201 38.2401 45.5601C37.8601 45.6001 37.5801 45.2201 37.2601 44.9001C36.8051 44.4217 36.3903 43.9066 36.0201 43.3601C29.3601 34.0601 30.7801 35.3601 30.6601 35.0801L31.4601 34.6801L33.2401 33.7401C33.5052 33.5773 33.7591 33.3969 34.0001 33.2001ZM30.5001 30.9201C30.9177 30.7204 31.3774 30.6243 31.8401 30.6401C32.0722 30.6702 32.2927 30.7598 32.4801 30.9001C32.6401 31.0001 32.8801 31.0601 32.8401 31.2401C32.8073 31.3558 32.753 31.4644 32.6801 31.5601C32.4969 31.7506 32.3032 31.9309 32.1001 32.1001L30.7201 33.1401L28.5001 34.2401C28.6401 33.9801 28.5001 33.7001 28.7401 32.8001C28.8332 32.4644 28.982 32.1466 29.1801 31.8601C29.5373 31.4443 29.9904 31.1217 30.5001 30.9201Z" fill="#101828"/>
</g>
<defs>
<clipPath id="clip0_822_10161">
<rect width="48" height="48" fill="white" transform="translate(0.5)"/>
</clipPath>
</defs>
</svg>
