<svg width="49" height="48" viewBox="0 0 49 48" fill="none" xmlns="http://www.w3.org/2000/svg">
<g clip-path="url(#clip0_822_10132)">
<path d="M34.5 5.4201C35.5322 6.2198 36.4655 7.13961 37.28 8.1601L36.1 22.8201C36.1 23.6001 36.64 23.9201 37.06 23.2601C37.66 21.4801 40.08 8.5601 38.78 6.7201C37.1176 4.88803 35.2055 3.2991 33.1 2.0001C33.0317 1.94626 32.9535 1.9064 32.8698 1.88279C32.7861 1.85917 32.6986 1.85228 32.6122 1.86249C32.5259 1.87271 32.4424 1.89983 32.3665 1.94232C32.2906 1.9848 32.2239 2.04182 32.17 2.1101C32.1162 2.17839 32.0763 2.25661 32.0527 2.34031C32.0291 2.424 32.0222 2.51153 32.0324 2.59789C32.0426 2.68424 32.0698 2.76774 32.1122 2.84362C32.1547 2.9195 32.2117 2.98626 32.28 3.0401L34.5 5.4201Z" fill="#155EEF"/>
<path d="M47.5399 39.7202C47.0864 39.158 46.4957 38.7223 45.8247 38.455C45.1537 38.1878 44.4252 38.0981 43.7094 38.1946C42.9937 38.2911 42.3149 38.5705 41.7386 39.006C41.1624 39.4414 40.7082 40.018 40.4198 40.6802C40.2998 40.6802 40.5598 40.6802 39.0998 39.7002C36.6998 38.0202 36.4999 38.5002 33.8999 36.9202C34.1493 36.0507 34.1072 35.1235 33.7798 34.2802L35.7798 33.6202C38.8798 32.0202 37.5598 32.4002 39.7798 30.7602C39.9499 31.33 40.319 31.8198 40.8198 32.1402C40.9472 32.2277 41.104 32.2611 41.2559 32.233C41.4078 32.2048 41.5423 32.1175 41.6299 31.9902C41.7174 31.8629 41.7507 31.706 41.7226 31.5541C41.6945 31.4022 41.6072 31.2677 41.4798 31.1802C41.1841 30.8871 41.0062 30.4957 40.9798 30.0802C40.8954 29.5603 40.98 29.0269 41.2214 28.5587C41.4627 28.0905 41.8479 27.7121 42.3204 27.4792C42.7929 27.2463 43.3277 27.1712 43.846 27.265C44.3644 27.3588 44.8389 27.6165 45.1999 28.0002C45.4951 28.3179 45.6946 28.7126 45.7752 29.1388C45.8558 29.565 45.8142 30.0052 45.6553 30.4088C45.4964 30.8124 45.2266 31.1628 44.877 31.4196C44.5275 31.6764 44.1125 31.8292 43.6798 31.8602C43.2637 31.9401 42.836 31.9401 42.4198 31.8602C41.4598 31.5602 40.5798 33.5002 43.8398 33.3602C44.6346 33.3938 45.4213 33.1898 46.0995 32.774C46.7777 32.3583 47.3166 31.7498 47.6472 31.0263C47.9778 30.3028 48.0852 29.4972 47.9556 28.7123C47.8261 27.9275 47.4655 27.1991 46.9198 26.6202C46.3639 25.9339 45.6058 25.4403 44.7533 25.2096C43.9008 24.9788 42.9972 25.0227 42.171 25.335C41.3449 25.6473 40.6382 26.2121 40.1515 26.9491C39.6648 27.6861 39.4227 28.5578 39.4598 29.4402C39.2198 29.4402 39.4598 29.4402 38.7598 29.7202C36.6731 30.5028 34.7478 31.662 33.0799 33.1402C32.5516 32.5074 31.8489 32.044 31.0591 31.8078C30.2694 31.5715 29.4276 31.5729 28.6387 31.8117C27.8497 32.0506 27.1485 32.5163 26.6224 33.1508C26.0962 33.7853 25.7684 34.5607 25.6799 35.3802C25.6068 36.3582 25.8524 37.3335 26.3798 38.1602C27.5798 39.7202 28.3799 38.2602 27.6999 37.8002C27.4048 37.4332 27.2212 36.9892 27.1711 36.5209C27.1209 36.0527 27.2062 35.5799 27.4168 35.1587C27.6274 34.7375 27.9545 34.3855 28.3592 34.1447C28.7639 33.9039 29.2292 33.7844 29.6999 33.8002C30.0752 33.7896 30.4477 33.8688 30.7864 34.0311C31.125 34.1934 31.4201 34.4342 31.6469 34.7335C31.8738 35.0327 32.026 35.3818 32.0909 35.7517C32.1557 36.1216 32.1314 36.5016 32.0199 36.8602C31.7543 37.4722 31.2746 37.9663 30.6708 38.2498C30.0669 38.5333 29.3803 38.5868 28.7398 38.4002C28.5727 38.3488 28.3921 38.3637 28.2357 38.4419C28.0793 38.5201 27.959 38.6556 27.8998 38.8202C27.6598 39.5402 28.4998 39.7802 29.2398 39.8802C30.0259 40.0167 30.8344 39.9297 31.5734 39.6291C32.3124 39.3286 32.9522 38.8265 33.4198 38.1802C33.5998 38.4402 33.4198 38.1802 34.7598 39.6002C36.1557 40.6284 37.7491 41.357 39.4398 41.7402C39.6782 41.8542 39.9258 41.9478 40.1798 42.0202C40.1067 42.6454 40.1952 43.2789 40.4368 43.8602C40.6784 44.4415 41.0651 44.951 41.5599 45.3402C41.6898 45.4251 41.8482 45.4548 42.0001 45.423C42.152 45.3911 42.285 45.3002 42.3698 45.1702C42.4547 45.0402 42.4845 44.8819 42.4526 44.73C42.4207 44.5781 42.3298 44.4451 42.1999 44.3602C41.9112 44.0724 41.7401 43.6873 41.7199 43.2802C41.6305 42.7611 41.71 42.227 41.9469 41.7565C42.1838 41.286 42.5654 40.904 43.0357 40.6666C43.5059 40.4293 44.0399 40.3491 44.5591 40.438C45.0783 40.5268 45.5553 40.78 45.9198 41.1602C46.2226 41.4735 46.4292 41.8671 46.5153 42.2942C46.6013 42.7213 46.5632 43.1642 46.4054 43.5703C46.2476 43.9765 45.9767 44.3289 45.6248 44.5858C45.2729 44.8428 44.8547 44.9935 44.4198 45.0202C43.9969 45.1003 43.5628 45.1003 43.1398 45.0202C42.1798 44.7202 41.3199 46.6602 44.5599 46.5202C45.3581 46.5452 46.1455 46.3307 46.8208 45.9043C47.4961 45.4779 48.0283 44.8592 48.3488 44.1277C48.6694 43.3962 48.7637 42.5855 48.6195 41.8C48.4753 41.0145 48.0993 40.2902 47.5399 39.7202Z" fill="#101828"/>
<path d="M10.0599 11.72C11.0203 12.0574 12.0119 12.2986 13.0199 12.44C15.0092 12.7331 17.0307 12.7331 19.0199 12.44C19.195 12.44 19.3628 12.3705 19.4866 12.2467C19.6104 12.1229 19.6799 11.9551 19.6799 11.78C19.6799 11.605 19.6104 11.4371 19.4866 11.3133C19.3628 11.1896 19.195 11.12 19.0199 11.12C17.0664 10.5852 15.0445 10.3426 13.0199 10.4C11.9463 10.2968 10.8628 10.3848 9.81993 10.66C9.59993 10.82 9.49993 11.38 10.0599 11.72Z" fill="#101828"/>
<path d="M9.43986 19.4002C9.40046 19.4698 9.37516 19.5464 9.36539 19.6258C9.35563 19.7052 9.3616 19.7857 9.38296 19.8628C9.40431 19.9399 9.44064 20.012 9.48987 20.075C9.5391 20.138 9.60026 20.1908 9.66986 20.2302C9.81042 20.3097 9.97683 20.3302 10.1325 20.2871C10.2881 20.2439 10.4203 20.1407 10.4999 20.0002C12.378 19.9632 14.2563 20.0635 16.1199 20.3002C19.9221 20.2781 23.7206 20.0578 27.4999 19.6402C27.6749 19.6402 27.8428 19.5706 27.9665 19.4469C28.0903 19.3231 28.1599 19.1552 28.1599 18.9802C28.1599 18.8051 28.0903 18.6372 27.9665 18.5135C27.8428 18.3897 27.6749 18.3202 27.4999 18.3202C22.9945 17.9398 18.4652 17.9398 13.9599 18.3202C13.0199 18.5202 10.0399 18.3602 9.43986 19.4002Z" fill="#101828"/>
<path d="M21.3199 27.1801C18.0866 26.5897 14.7731 26.5897 11.5399 27.1801C10.0599 27.4201 9.75986 27.4201 9.53986 27.6201C9.44273 27.6911 9.36916 27.7895 9.32869 27.9028C9.28822 28.0161 9.28272 28.1389 9.3129 28.2553C9.34309 28.3717 9.40756 28.4764 9.49796 28.5557C9.58836 28.635 9.70051 28.6853 9.81986 28.7001C9.91986 28.7001 10.3799 28.7001 10.5799 28.7001C14.1536 29.1787 17.7777 29.1383 21.3399 28.5801C21.5255 28.5775 21.7025 28.5012 21.8319 28.368C21.9613 28.2349 22.0325 28.0558 22.0299 27.8701C22.0272 27.6845 21.9509 27.5075 21.8178 27.3781C21.6846 27.2487 21.5055 27.1775 21.3199 27.1801Z" fill="#101828"/>
<path d="M20.0599 35.6401C14.3343 35.482 8.62037 35.0347 2.9399 34.3001C5.8199 27.1401 5.5199 16.9001 6.3799 5.46011C6.3799 5.28011 6.7599 4.64011 6.9399 4.60011C8.8399 4.14011 18.1999 2.86011 19.3999 2.80011C20.2805 2.73497 21.1658 2.81607 22.0199 3.04011C22.7799 3.32011 24.1399 1.46011 19.3599 1.54011C18.2399 1.54011 7.8599 2.48011 6.2399 2.90011C5.89993 2.95377 5.57956 3.09425 5.30977 3.30798C5.03999 3.5217 4.82993 3.80143 4.6999 4.12011C3.7999 6.46011 3.6199 22.8801 2.0199 30.1201C0.999904 34.8401 0.179904 34.7001 0.619904 35.5201C0.695046 35.6677 0.805652 35.7942 0.941793 35.8885C1.07793 35.9827 1.23535 36.0417 1.3999 36.0601C7.1999 36.5001 14.1999 37.0601 20.0799 36.9401C20.2183 36.8953 20.3387 36.8072 20.4234 36.6889C20.5081 36.5706 20.5526 36.4282 20.5503 36.2827C20.5481 36.1372 20.4993 35.9963 20.411 35.8806C20.3227 35.765 20.1996 35.6807 20.0599 35.6401Z" fill="#101828"/>
<path d="M29.7799 7.70021C30.4799 8.36021 31.7799 9.22021 32.0799 9.94021L31.8799 22.2602C31.8799 22.3364 31.8949 22.4118 31.924 22.4822C31.9532 22.5525 31.9959 22.6165 32.0497 22.6703C32.1036 22.7242 32.1675 22.7669 32.2379 22.7961C32.3083 22.8252 32.3837 22.8402 32.4599 22.8402C32.536 22.8402 32.6114 22.8252 32.6818 22.7961C32.7522 22.7669 32.8161 22.7242 32.87 22.6703C32.9238 22.6165 32.9666 22.5525 32.9957 22.4822C33.0248 22.4118 33.0399 22.3364 33.0399 22.2602C33.0399 21.2002 35.0399 10.9802 34.0599 8.96021C33.3599 7.62021 33.2199 8.08021 26.4199 2.36021C26.2819 2.25147 26.1065 2.20197 25.9321 2.2226C25.7577 2.24323 25.5986 2.3323 25.4899 2.47021C25.3811 2.60813 25.3316 2.78359 25.3522 2.958C25.3729 3.1324 25.4619 3.29147 25.5999 3.40021L29.7799 7.70021Z" fill="#101828"/>
<path d="M22.7799 11.5201C23.8199 13.5201 27.3599 12.6801 29.6399 12.0601C33.6399 11.0001 31.5199 9.04013 30.7999 10.0601C28.8657 10.7 26.7993 10.8309 24.7999 10.4401C24.1999 9.50013 25.6199 4.44013 24.7999 4.14013C23.9799 3.84013 23.8599 5.02013 23.5599 6.14013C23.0599 7.58013 21.8999 9.72013 22.7799 11.5201Z" fill="#101828"/>
</g>
<defs>
<clipPath id="clip0_822_10132">
<rect width="48" height="48" fill="white" transform="translate(0.5)"/>
</clipPath>
</defs>
</svg>
