<svg width="528" height="396" viewBox="0 0 528 396" fill="none" xmlns="http://www.w3.org/2000/svg">
<g clip-path="url(#clip0_822_9653)">
<rect width="528" height="396" fill="#D1E0FF"/>
<g opacity="0.7">
<mask id="mask0_822_9653" style="mask-type:alpha" maskUnits="userSpaceOnUse" x="-264" y="0" width="1056" height="601">
<rect x="-264" y="-6.10352e-05" width="1056" height="601" fill="url(#paint0_radial_822_9653)"/>
</mask>
<g mask="url(#mask0_822_9653)">
<mask id="path-2-inside-1_822_9653" fill="white">
<path d="M-29.3333 -6.10352e-05H88V117.333H-29.3333V-6.10352e-05Z"/>
</mask>
<path d="M-29.3333 -6.10352e-05H88V117.333H-29.3333V-6.10352e-05Z" fill="white"/>
<path d="M88 117.333V118.067H88.7333V117.333H88ZM87.2667 -6.10352e-05V117.333H88.7333V-6.10352e-05H87.2667ZM88 116.6H-29.3333V118.067H88V116.6Z" fill="#B2CCFF" mask="url(#path-2-inside-1_822_9653)"/>
<mask id="path-4-inside-2_822_9653" fill="white">
<path d="M88 -6.10352e-05H205.333V117.333H88V-6.10352e-05Z"/>
</mask>
<path d="M88 -6.10352e-05H205.333V117.333H88V-6.10352e-05Z" fill="white"/>
<path d="M205.333 117.333V118.067H206.067V117.333H205.333ZM204.6 -6.10352e-05V117.333H206.067V-6.10352e-05H204.6ZM205.333 116.6H88V118.067H205.333V116.6Z" fill="#B2CCFF" mask="url(#path-4-inside-2_822_9653)"/>
<mask id="path-6-inside-3_822_9653" fill="white">
<path d="M205.333 -6.10352e-05H322.667V117.333H205.333V-6.10352e-05Z"/>
</mask>
<path d="M205.333 -6.10352e-05H322.667V117.333H205.333V-6.10352e-05Z" fill="white"/>
<path d="M322.667 117.333V118.067H323.4V117.333H322.667ZM321.933 -6.10352e-05V117.333H323.4V-6.10352e-05H321.933ZM322.667 116.6H205.333V118.067H322.667V116.6Z" fill="#B2CCFF" mask="url(#path-6-inside-3_822_9653)"/>
<mask id="path-8-inside-4_822_9653" fill="white">
<path d="M322.667 -6.10352e-05H440V117.333H322.667V-6.10352e-05Z"/>
</mask>
<path d="M322.667 -6.10352e-05H440V117.333H322.667V-6.10352e-05Z" fill="#EFF4FF"/>
<path d="M440 117.333V118.067H440.733V117.333H440ZM439.267 -6.10352e-05V117.333H440.733V-6.10352e-05H439.267ZM440 116.6H322.667V118.067H440V116.6Z" fill="#B2CCFF" mask="url(#path-8-inside-4_822_9653)"/>
<mask id="path-10-inside-5_822_9653" fill="white">
<path d="M440 -6.10352e-05H557.333V117.333H440V-6.10352e-05Z"/>
</mask>
<path d="M440 -6.10352e-05H557.333V117.333H440V-6.10352e-05Z" fill="white"/>
<path d="M557.333 117.333V118.067H558.067V117.333H557.333ZM556.6 -6.10352e-05V117.333H558.067V-6.10352e-05H556.6ZM557.333 116.6H440V118.067H557.333V116.6Z" fill="#B2CCFF" mask="url(#path-10-inside-5_822_9653)"/>
<mask id="path-12-inside-6_822_9653" fill="white">
<path d="M-29.3333 117.333H88V234.667H-29.3333V117.333Z"/>
</mask>
<path d="M-29.3333 117.333H88V234.667H-29.3333V117.333Z" fill="white"/>
<path d="M88 234.667V235.4H88.7333V234.667H88ZM87.2667 117.333V234.667H88.7333V117.333H87.2667ZM88 233.933H-29.3333V235.4H88V233.933Z" fill="#B2CCFF" mask="url(#path-12-inside-6_822_9653)"/>
<mask id="path-14-inside-7_822_9653" fill="white">
<path d="M88 117.333H205.333V234.667H88V117.333Z"/>
</mask>
<path d="M88 117.333H205.333V234.667H88V117.333Z" fill="white"/>
<path d="M205.333 234.667V235.4H206.067V234.667H205.333ZM204.6 117.333V234.667H206.067V117.333H204.6ZM205.333 233.933H88V235.4H205.333V233.933Z" fill="#B2CCFF" mask="url(#path-14-inside-7_822_9653)"/>
<mask id="path-16-inside-8_822_9653" fill="white">
<path d="M205.333 117.333H322.667V234.667H205.333V117.333Z"/>
</mask>
<path d="M205.333 117.333H322.667V234.667H205.333V117.333Z" fill="white"/>
<path d="M322.667 234.667V235.4H323.4V234.667H322.667ZM321.933 117.333V234.667H323.4V117.333H321.933ZM322.667 233.933H205.333V235.4H322.667V233.933Z" fill="#B2CCFF" mask="url(#path-16-inside-8_822_9653)"/>
<mask id="path-18-inside-9_822_9653" fill="white">
<path d="M322.667 117.333H440V234.667H322.667V117.333Z"/>
</mask>
<path d="M322.667 117.333H440V234.667H322.667V117.333Z" fill="white"/>
<path d="M440 234.667V235.4H440.733V234.667H440ZM439.267 117.333V234.667H440.733V117.333H439.267ZM440 233.933H322.667V235.4H440V233.933Z" fill="#B2CCFF" mask="url(#path-18-inside-9_822_9653)"/>
<mask id="path-20-inside-10_822_9653" fill="white">
<path d="M440 117.333H557.333V234.667H440V117.333Z"/>
</mask>
<path d="M440 117.333H557.333V234.667H440V117.333Z" fill="white"/>
<path d="M557.333 234.667V235.4H558.067V234.667H557.333ZM556.6 117.333V234.667H558.067V117.333H556.6ZM557.333 233.933H440V235.4H557.333V233.933Z" fill="#B2CCFF" mask="url(#path-20-inside-10_822_9653)"/>
<mask id="path-22-inside-11_822_9653" fill="white">
<path d="M-29.3333 234.667H88V352H-29.3333V234.667Z"/>
</mask>
<path d="M-29.3333 234.667H88V352H-29.3333V234.667Z" fill="#EFF4FF"/>
<path d="M88 352V352.733H88.7333V352H88ZM87.2667 234.667V352H88.7333V234.667H87.2667ZM88 351.267H-29.3333V352.733H88V351.267Z" fill="#B2CCFF" mask="url(#path-22-inside-11_822_9653)"/>
<mask id="path-24-inside-12_822_9653" fill="white">
<path d="M88 234.667H205.333V352H88V234.667Z"/>
</mask>
<path d="M88 234.667H205.333V352H88V234.667Z" fill="white"/>
<path d="M205.333 352V352.733H206.067V352H205.333ZM204.6 234.667V352H206.067V234.667H204.6ZM205.333 351.267H88V352.733H205.333V351.267Z" fill="#B2CCFF" mask="url(#path-24-inside-12_822_9653)"/>
<mask id="path-26-inside-13_822_9653" fill="white">
<path d="M205.333 234.667H322.667V352H205.333V234.667Z"/>
</mask>
<path d="M205.333 234.667H322.667V352H205.333V234.667Z" fill="white"/>
<path d="M322.667 352V352.733H323.4V352H322.667ZM321.933 234.667V352H323.4V234.667H321.933ZM322.667 351.267H205.333V352.733H322.667V351.267Z" fill="#B2CCFF" mask="url(#path-26-inside-13_822_9653)"/>
<mask id="path-28-inside-14_822_9653" fill="white">
<path d="M322.667 234.667H440V352H322.667V234.667Z"/>
</mask>
<path d="M322.667 234.667H440V352H322.667V234.667Z" fill="white"/>
<path d="M440 352V352.733H440.733V352H440ZM439.267 234.667V352H440.733V234.667H439.267ZM440 351.267H322.667V352.733H440V351.267Z" fill="#B2CCFF" mask="url(#path-28-inside-14_822_9653)"/>
<mask id="path-30-inside-15_822_9653" fill="white">
<path d="M440 234.667H557.333V352H440V234.667Z"/>
</mask>
<path d="M440 234.667H557.333V352H440V234.667Z" fill="white"/>
<path d="M557.333 352V352.733H558.067V352H557.333ZM556.6 234.667V352H558.067V234.667H556.6ZM557.333 351.267H440V352.733H557.333V351.267Z" fill="#B2CCFF" mask="url(#path-30-inside-15_822_9653)"/>
<mask id="path-32-inside-16_822_9653" fill="white">
<path d="M-29.3333 352H88V469.333H-29.3333V352Z"/>
</mask>
<path d="M-29.3333 352H88V469.333H-29.3333V352Z" fill="white"/>
<path d="M88 469.333V470.067H88.7333V469.333H88ZM87.2667 352V469.333H88.7333V352H87.2667ZM88 468.6H-29.3333V470.067H88V468.6Z" fill="#B2CCFF" mask="url(#path-32-inside-16_822_9653)"/>
<mask id="path-34-inside-17_822_9653" fill="white">
<path d="M88 352H205.333V469.333H88V352Z"/>
</mask>
<path d="M88 352H205.333V469.333H88V352Z" fill="white"/>
<path d="M205.333 469.333V470.067H206.067V469.333H205.333ZM204.6 352V469.333H206.067V352H204.6ZM205.333 468.6H88V470.067H205.333V468.6Z" fill="#B2CCFF" mask="url(#path-34-inside-17_822_9653)"/>
<mask id="path-36-inside-18_822_9653" fill="white">
<path d="M205.333 352H322.667V469.333H205.333V352Z"/>
</mask>
<path d="M205.333 352H322.667V469.333H205.333V352Z" fill="white"/>
<path d="M322.667 469.333V470.067H323.4V469.333H322.667ZM321.933 352V469.333H323.4V352H321.933ZM322.667 468.6H205.333V470.067H322.667V468.6Z" fill="#B2CCFF" mask="url(#path-36-inside-18_822_9653)"/>
<mask id="path-38-inside-19_822_9653" fill="white">
<path d="M322.667 352H440V469.333H322.667V352Z"/>
</mask>
<path d="M322.667 352H440V469.333H322.667V352Z" fill="white"/>
<path d="M440 469.333V470.067H440.733V469.333H440ZM439.267 352V469.333H440.733V352H439.267ZM440 468.6H322.667V470.067H440V468.6Z" fill="#B2CCFF" mask="url(#path-38-inside-19_822_9653)"/>
<mask id="path-40-inside-20_822_9653" fill="white">
<path d="M440 352H557.333V469.333H440V352Z"/>
</mask>
<path d="M440 352H557.333V469.333H440V352Z" fill="#EFF4FF"/>
<path d="M557.333 469.333V470.067H558.067V469.333H557.333ZM556.6 352V469.333H558.067V352H556.6ZM557.333 468.6H440V470.067H557.333V468.6Z" fill="#B2CCFF" mask="url(#path-40-inside-20_822_9653)"/>
</g>
</g>
<g filter="url(#filter0_d_822_9653)">
<path d="M32 48C32 39.1634 39.1634 32 48 32H480C488.837 32 496 39.1634 496 48V396H32V48Z" fill="white"/>
<circle cx="264" cy="93.55" r="28" fill="#D1E0FF"/>
<rect x="187.5" y="133.55" width="153" height="12" rx="4" fill="#EAECF0"/>
<g filter="url(#filter1_dd_822_9653)">
<rect x="77.3266" y="177.55" width="373.347" height="80.9" rx="10" fill="white"/>
<path d="M100.527 208.69C96.4866 208.69 93.3266 205.41 93.3266 201.19C93.3266 196.99 96.4866 193.73 100.527 193.73C104.307 193.73 107.267 196.25 107.767 199.93H104.547C104.207 197.87 102.607 196.45 100.567 196.45C98.1066 196.45 96.4466 198.39 96.4466 201.19C96.4466 204.01 98.1066 205.97 100.567 205.97C102.607 205.97 104.187 204.53 104.547 202.47H107.767C107.267 206.19 104.307 208.69 100.527 208.69Z" fill="#101828"/>
<path d="M112.429 203.21V208.39H109.649V197.71H112.209V199.77C112.989 198.41 114.649 197.59 116.369 197.59V200.47C114.009 200.29 112.429 200.85 112.429 203.21Z" fill="#101828"/>
<path d="M122.375 208.57C119.175 208.57 117.035 206.35 117.035 203.01C117.035 199.83 119.255 197.51 122.335 197.51C125.715 197.51 127.955 200.25 127.455 203.73H119.875C120.055 205.47 120.895 206.43 122.315 206.43C123.535 206.43 124.355 205.83 124.675 204.77H127.435C126.835 207.19 124.975 208.57 122.375 208.57ZM122.275 199.55C120.975 199.55 120.155 200.39 119.915 201.97H124.515C124.435 200.49 123.595 199.55 122.275 199.55Z" fill="#101828"/>
<path d="M135.677 208.39V207.07C134.977 208.07 133.917 208.59 132.457 208.59C130.237 208.59 128.757 207.29 128.757 205.29C128.757 203.21 130.437 202.09 133.557 202.09C134.157 202.09 134.677 202.13 135.337 202.21V201.57C135.337 200.37 134.657 199.67 133.497 199.67C132.297 199.67 131.577 200.37 131.477 201.57H128.977C129.137 199.11 130.917 197.51 133.497 197.51C136.297 197.51 137.937 199.05 137.937 201.67V208.39H135.677ZM131.377 205.21C131.377 206.11 132.017 206.67 133.057 206.67C134.477 206.67 135.337 205.89 135.337 204.65V203.89C134.677 203.79 134.217 203.75 133.737 203.75C132.157 203.75 131.377 204.25 131.377 205.21Z" fill="#101828"/>
<path d="M146.817 205.69V208.11C146.137 208.45 145.497 208.59 144.677 208.59C142.477 208.59 141.097 207.33 141.097 204.93V200.09H138.937V197.71H141.097V194.55H143.857V197.71H146.917V200.09H143.857V204.29C143.857 205.53 144.417 206.03 145.417 206.03C145.937 206.03 146.417 205.91 146.817 205.69Z" fill="#101828"/>
<path d="M153.02 208.57C149.82 208.57 147.68 206.35 147.68 203.01C147.68 199.83 149.9 197.51 152.98 197.51C156.36 197.51 158.6 200.25 158.1 203.73H150.52C150.7 205.47 151.54 206.43 152.96 206.43C154.18 206.43 155 205.83 155.32 204.77H158.08C157.48 207.19 155.62 208.57 153.02 208.57ZM152.92 199.55C151.62 199.55 150.8 200.39 150.56 201.97H155.16C155.08 200.49 154.24 199.55 152.92 199.55Z" fill="#101828"/>
<path d="M170.501 208.39V207.07C169.801 208.07 168.741 208.59 167.281 208.59C165.061 208.59 163.581 207.29 163.581 205.29C163.581 203.21 165.261 202.09 168.381 202.09C168.981 202.09 169.501 202.13 170.161 202.21V201.57C170.161 200.37 169.481 199.67 168.321 199.67C167.121 199.67 166.401 200.37 166.301 201.57H163.801C163.961 199.11 165.741 197.51 168.321 197.51C171.121 197.51 172.761 199.05 172.761 201.67V208.39H170.501ZM166.201 205.21C166.201 206.11 166.841 206.67 167.881 206.67C169.301 206.67 170.161 205.89 170.161 204.65V203.89C169.501 203.79 169.041 203.75 168.561 203.75C166.981 203.75 166.201 204.25 166.201 205.21Z" fill="#101828"/>
<path d="M182.617 208.39H179.577V194.03H185.197C188.817 194.03 190.917 195.71 190.917 198.69C190.917 200.63 189.717 202.17 187.677 202.85L191.377 208.39H187.757L184.517 203.31H182.617V208.39ZM182.617 196.55V200.81H185.057C186.897 200.81 187.877 200.09 187.877 198.69C187.877 197.27 186.897 196.55 185.057 196.55H182.617Z" fill="#101828"/>
<path d="M204.288 203.93C204.288 206.67 202.088 208.59 198.488 208.59C194.868 208.59 192.608 206.65 192.388 203.61H195.468C195.548 205.19 196.568 206.21 198.428 206.21C199.968 206.21 201.068 205.53 201.068 204.37C201.068 203.47 200.368 202.93 199.148 202.69L196.788 202.23C194.608 201.81 192.928 200.63 192.928 198.25C192.928 195.69 195.188 193.85 198.288 193.85C201.508 193.85 203.868 195.73 204.068 198.73H200.988C200.888 197.23 199.848 196.21 198.328 196.21C196.848 196.21 196.008 197.05 196.008 198.05C196.008 199.03 196.908 199.45 197.948 199.65L200.408 200.15C202.928 200.65 204.288 201.81 204.288 203.93Z" fill="#101828"/>
<path d="M218.265 194.03L213.065 208.39H209.745L204.585 194.03H207.865L211.505 204.85L215.225 194.03H218.265Z" fill="#101828"/>
<path d="M225.209 203.71H222.949V208.39H219.909V194.03H225.209C228.709 194.03 230.889 195.69 230.889 198.81C230.889 201.93 228.709 203.71 225.209 203.71ZM225.189 196.59H222.949V201.15H225.189C226.909 201.15 227.869 200.25 227.869 198.83C227.869 197.41 226.909 196.59 225.189 196.59Z" fill="#101828"/>
<path d="M245.655 208.39L243.635 201.45L241.635 208.39H238.855L235.815 197.71H238.515L240.335 204.47L242.295 197.71H245.035L246.935 204.47L248.735 197.71H251.475L248.415 208.39H245.655Z" fill="#101828"/>
<path d="M257.239 208.57C254.039 208.57 251.899 206.35 251.899 203.01C251.899 199.83 254.119 197.51 257.199 197.51C260.579 197.51 262.819 200.25 262.319 203.73H254.739C254.919 205.47 255.759 206.43 257.179 206.43C258.399 206.43 259.219 205.83 259.539 204.77H262.299C261.699 207.19 259.839 208.57 257.239 208.57ZM257.139 199.55C255.839 199.55 255.019 200.39 254.779 201.97H259.379C259.299 200.49 258.459 199.55 257.139 199.55Z" fill="#101828"/>
<path d="M263.285 203.05C263.285 199.89 265.145 197.51 268.025 197.51C269.305 197.51 270.385 198.07 271.185 199.09V194.03H273.945V208.39H271.405V206.85C270.565 207.97 269.405 208.59 268.025 208.59C265.145 208.59 263.285 206.17 263.285 203.05ZM266.145 203.05C266.145 205.05 267.285 206.11 268.645 206.11C270.025 206.11 271.165 205.03 271.165 203.01C271.165 200.99 270.005 199.97 268.645 199.97C267.285 199.97 266.145 201.01 266.145 203.05Z" fill="#101828"/>
<path d="M275.727 203.05C275.727 199.89 277.587 197.51 280.467 197.51C281.747 197.51 282.827 198.07 283.627 199.09V194.03H286.387V208.39H283.847V206.85C283.007 207.97 281.847 208.59 280.467 208.59C277.587 208.59 275.727 206.17 275.727 203.05ZM278.587 203.05C278.587 205.05 279.727 206.11 281.087 206.11C282.467 206.11 283.607 205.03 283.607 203.01C283.607 200.99 282.447 199.97 281.087 199.97C279.727 199.97 278.587 201.01 278.587 203.05Z" fill="#101828"/>
<path d="M292.088 195.23C292.088 196.17 291.328 196.87 290.228 196.87C289.148 196.87 288.388 196.17 288.388 195.23C288.388 194.25 289.148 193.55 290.228 193.55C291.328 193.55 292.088 194.25 292.088 195.23ZM291.648 208.39H288.868V197.71H291.648V208.39Z" fill="#101828"/>
<path d="M296.902 202.57V208.39H294.122V197.71H296.682V199.23C297.462 198.17 298.562 197.51 299.962 197.51C302.102 197.51 303.582 198.91 303.582 201.49V208.39H300.822V202.43C300.822 200.85 300.202 199.97 298.942 199.97C297.842 199.97 296.902 200.85 296.902 202.57Z" fill="#101828"/>
<path d="M310.517 212.45C307.637 212.45 305.717 210.89 305.597 208.43H308.277C308.397 209.65 309.177 210.29 310.497 210.29C312.037 210.29 312.837 209.47 312.837 207.93V206.37C312.257 207.39 311.157 207.99 309.857 207.99C307.237 207.99 305.277 205.77 305.277 202.75C305.277 199.65 307.117 197.51 309.757 197.51C311.197 197.51 312.277 198.07 313.057 199.17V197.71H315.597V207.89C315.597 210.73 313.677 212.45 310.517 212.45ZM308.057 202.75C308.057 204.49 308.957 205.59 310.397 205.59C311.857 205.59 312.817 204.45 312.817 202.77C312.817 201.03 311.857 199.91 310.397 199.91C308.977 199.91 308.057 201.01 308.057 202.75Z" fill="#101828"/>
<path d="M326.066 208.39H323.306V200.09H321.146V197.71H323.306V197.13C323.306 195.01 324.446 193.81 326.666 193.81C327.346 193.81 327.926 193.93 328.386 194.13V196.33C328.086 196.21 327.686 196.15 327.326 196.15C326.566 196.15 326.066 196.45 326.066 197.19V197.71H328.846V200.09H326.066V208.39Z" fill="#101828"/>
<path d="M334.701 208.59C331.601 208.59 329.281 206.15 329.281 203.05C329.281 199.93 331.601 197.51 334.701 197.51C337.801 197.51 340.121 199.93 340.121 203.05C340.121 206.15 337.801 208.59 334.701 208.59ZM334.701 206.13C336.081 206.13 337.261 205.03 337.261 203.05C337.261 201.07 336.081 199.99 334.701 199.99C333.321 199.99 332.141 201.07 332.141 203.05C332.141 205.03 333.321 206.13 334.701 206.13Z" fill="#101828"/>
<path d="M344.675 203.21V208.39H341.895V197.71H344.455V199.77C345.235 198.41 346.895 197.59 348.615 197.59V200.47C346.255 200.29 344.675 200.85 344.675 203.21Z" fill="#101828"/>
<path d="M352.839 208.39H350.059V197.71H352.619V199.23C353.399 198.15 354.399 197.51 355.819 197.51C357.279 197.51 358.399 198.19 358.939 199.41C359.779 198.23 360.859 197.51 362.459 197.51C364.619 197.51 366.079 198.93 366.079 201.49V208.39H363.319V202.37C363.319 200.87 362.679 199.97 361.459 199.97C360.359 199.97 359.459 200.83 359.459 202.43V208.39H356.699V202.37C356.699 200.87 356.059 199.97 354.839 199.97C353.719 199.97 352.839 200.83 352.839 202.43V208.39Z" fill="#101828"/>
<path d="M376.418 208.39H373.658V200.09H371.498V197.71H373.658V197.13C373.658 195.01 374.798 193.81 377.018 193.81C377.698 193.81 378.278 193.93 378.738 194.13V196.33C378.438 196.21 378.038 196.15 377.678 196.15C376.918 196.15 376.418 196.45 376.418 197.19V197.71H379.198V200.09H376.418V208.39Z" fill="#101828"/>
<path d="M385.053 208.59C381.953 208.59 379.633 206.15 379.633 203.05C379.633 199.93 381.953 197.51 385.053 197.51C388.153 197.51 390.473 199.93 390.473 203.05C390.473 206.15 388.153 208.59 385.053 208.59ZM385.053 206.13C386.433 206.13 387.613 205.03 387.613 203.05C387.613 201.07 386.433 199.99 385.053 199.99C383.673 199.99 382.493 201.07 382.493 203.05C382.493 205.03 383.673 206.13 385.053 206.13Z" fill="#101828"/>
<path d="M395.027 203.21V208.39H392.247V197.71H394.807V199.77C395.587 198.41 397.247 197.59 398.967 197.59V200.47C396.607 200.29 395.027 200.85 395.027 203.21Z" fill="#101828"/>
<path d="M411.231 205.69V208.11C410.551 208.45 409.911 208.59 409.091 208.59C406.891 208.59 405.511 207.33 405.511 204.93V200.09H403.351V197.71H405.511V194.55H408.271V197.71H411.331V200.09H408.271V204.29C408.271 205.53 408.831 206.03 409.831 206.03C410.351 206.03 410.831 205.91 411.231 205.69Z" fill="#101828"/>
<path d="M415.808 202.57V208.39H413.028V194.03H415.808V199.11C416.548 198.13 417.468 197.51 418.868 197.51C421.008 197.51 422.488 198.91 422.488 201.49V208.39H419.728V202.43C419.728 200.85 419.108 199.97 417.848 199.97C416.748 199.97 415.808 200.85 415.808 202.57Z" fill="#101828"/>
<path d="M429.524 208.57C426.324 208.57 424.184 206.35 424.184 203.01C424.184 199.83 426.404 197.51 429.484 197.51C432.864 197.51 435.104 200.25 434.604 203.73H427.024C427.204 205.47 428.044 206.43 429.464 206.43C430.684 206.43 431.504 205.83 431.824 204.77H434.584C433.984 207.19 432.124 208.57 429.524 208.57ZM429.424 199.55C428.124 199.55 427.304 200.39 427.064 201.97H431.664C431.584 200.49 430.744 199.55 429.424 199.55Z" fill="#101828"/>
<path d="M143.693 238.39L141.673 231.45L139.673 238.39H136.893L133.853 227.71H136.553L138.373 234.47L140.333 227.71H143.073L144.973 234.47L146.773 227.71H149.513L146.453 238.39H143.693Z" fill="#101828"/>
<path d="M155.276 238.57C152.076 238.57 149.936 236.35 149.936 233.01C149.936 229.83 152.156 227.51 155.236 227.51C158.616 227.51 160.856 230.25 160.356 233.73H152.776C152.956 235.47 153.796 236.43 155.216 236.43C156.436 236.43 157.256 235.83 157.576 234.77H160.336C159.736 237.19 157.876 238.57 155.276 238.57ZM155.176 229.55C153.876 229.55 153.056 230.39 152.816 231.97H157.416C157.336 230.49 156.496 229.55 155.176 229.55Z" fill="#101828"/>
<path d="M161.322 233.05C161.322 229.89 163.182 227.51 166.062 227.51C167.342 227.51 168.422 228.07 169.222 229.09V224.03H171.982V238.39H169.442V236.85C168.602 237.97 167.442 238.59 166.062 238.59C163.182 238.59 161.322 236.17 161.322 233.05ZM164.182 233.05C164.182 235.05 165.322 236.11 166.682 236.11C168.062 236.11 169.202 235.03 169.202 233.01C169.202 230.99 168.042 229.97 166.682 229.97C165.322 229.97 164.182 231.01 164.182 233.05Z" fill="#101828"/>
<path d="M173.764 233.05C173.764 229.89 175.624 227.51 178.504 227.51C179.784 227.51 180.864 228.07 181.664 229.09V224.03H184.424V238.39H181.884V236.85C181.044 237.97 179.884 238.59 178.504 238.59C175.624 238.59 173.764 236.17 173.764 233.05ZM176.624 233.05C176.624 235.05 177.764 236.11 179.124 236.11C180.504 236.11 181.644 235.03 181.644 233.01C181.644 230.99 180.484 229.97 179.124 229.97C177.764 229.97 176.624 231.01 176.624 233.05Z" fill="#101828"/>
<path d="M190.125 225.23C190.125 226.17 189.365 226.87 188.265 226.87C187.185 226.87 186.425 226.17 186.425 225.23C186.425 224.25 187.185 223.55 188.265 223.55C189.365 223.55 190.125 224.25 190.125 225.23ZM189.685 238.39H186.905V227.71H189.685V238.39Z" fill="#101828"/>
<path d="M194.939 232.57V238.39H192.159V227.71H194.719V229.23C195.499 228.17 196.599 227.51 197.999 227.51C200.139 227.51 201.619 228.91 201.619 231.49V238.39H198.859V232.43C198.859 230.85 198.239 229.97 196.979 229.97C195.879 229.97 194.939 230.85 194.939 232.57Z" fill="#101828"/>
<path d="M208.555 242.45C205.675 242.45 203.755 240.89 203.635 238.43H206.315C206.435 239.65 207.215 240.29 208.535 240.29C210.075 240.29 210.875 239.47 210.875 237.93V236.37C210.295 237.39 209.195 237.99 207.895 237.99C205.275 237.99 203.315 235.77 203.315 232.75C203.315 229.65 205.155 227.51 207.795 227.51C209.235 227.51 210.315 228.07 211.095 229.17V227.71H213.635V237.89C213.635 240.73 211.715 242.45 208.555 242.45ZM206.095 232.75C206.095 234.49 206.995 235.59 208.435 235.59C209.895 235.59 210.855 234.45 210.855 232.77C210.855 231.03 209.895 229.91 208.435 229.91C207.015 229.91 206.095 231.01 206.095 232.75Z" fill="#101828"/>
<path d="M225.043 238.59C221.943 238.59 219.623 236.15 219.623 233.05C219.623 229.93 221.943 227.51 225.043 227.51C228.143 227.51 230.463 229.93 230.463 233.05C230.463 236.15 228.143 238.59 225.043 238.59ZM225.043 236.13C226.423 236.13 227.603 235.03 227.603 233.05C227.603 231.07 226.423 229.99 225.043 229.99C223.663 229.99 222.483 231.07 222.483 233.05C222.483 235.03 223.663 236.13 225.043 236.13Z" fill="#101828"/>
<path d="M235.724 238.39H232.964V230.09H230.804V227.71H232.964V227.13C232.964 225.01 234.104 223.81 236.324 223.81C237.004 223.81 237.584 223.93 238.044 224.13V226.33C237.744 226.21 237.344 226.15 236.984 226.15C236.224 226.15 235.724 226.45 235.724 227.19V227.71H238.504V230.09H235.724V238.39Z" fill="#101828"/>
<path d="M249.652 233.71H247.392V238.39H244.352V224.03H249.652C253.152 224.03 255.332 225.69 255.332 228.81C255.332 231.93 253.152 233.71 249.652 233.71ZM249.632 226.59H247.392V231.15H249.632C251.352 231.15 252.312 230.25 252.312 228.83C252.312 227.41 251.352 226.59 249.632 226.59Z" fill="#101828"/>
<path d="M263.324 238.39V237.07C262.624 238.07 261.564 238.59 260.104 238.59C257.884 238.59 256.404 237.29 256.404 235.29C256.404 233.21 258.084 232.09 261.204 232.09C261.804 232.09 262.324 232.13 262.984 232.21V231.57C262.984 230.37 262.304 229.67 261.144 229.67C259.944 229.67 259.224 230.37 259.124 231.57H256.624C256.784 229.11 258.564 227.51 261.144 227.51C263.944 227.51 265.584 229.05 265.584 231.67V238.39H263.324ZM259.024 235.21C259.024 236.11 259.664 236.67 260.704 236.67C262.124 236.67 262.984 235.89 262.984 234.65V233.89C262.324 233.79 261.864 233.75 261.384 233.75C259.804 233.75 259.024 234.25 259.024 235.21Z" fill="#101828"/>
<path d="M274.479 233.89V227.71H277.239V238.39H274.699V236.99C274.119 237.93 272.939 238.59 271.579 238.59C269.439 238.59 267.879 237.29 267.879 234.51V227.71H270.659V233.97C270.659 235.47 271.399 236.13 272.519 236.13C273.519 236.13 274.479 235.33 274.479 233.89Z" fill="#101828"/>
<path d="M282.537 238.39H279.737V224.03H282.537V238.39Z" fill="#101828"/>
<path d="M295.57 238.39V237.07C294.87 238.07 293.81 238.59 292.35 238.59C290.13 238.59 288.65 237.29 288.65 235.29C288.65 233.21 290.33 232.09 293.45 232.09C294.05 232.09 294.57 232.13 295.23 232.21V231.57C295.23 230.37 294.55 229.67 293.39 229.67C292.19 229.67 291.47 230.37 291.37 231.57H288.87C289.03 229.11 290.81 227.51 293.39 227.51C296.19 227.51 297.83 229.05 297.83 231.67V238.39H295.57ZM291.27 235.21C291.27 236.11 291.91 236.67 292.95 236.67C294.37 236.67 295.23 235.89 295.23 234.65V233.89C294.57 233.79 294.11 233.75 293.63 233.75C292.05 233.75 291.27 234.25 291.27 235.21Z" fill="#101828"/>
<path d="M303.005 232.57V238.39H300.225V227.71H302.785V229.23C303.565 228.17 304.665 227.51 306.065 227.51C308.205 227.51 309.685 228.91 309.685 231.49V238.39H306.925V232.43C306.925 230.85 306.305 229.97 305.045 229.97C303.945 229.97 303.005 230.85 303.005 232.57Z" fill="#101828"/>
<path d="M311.381 233.05C311.381 229.89 313.241 227.51 316.121 227.51C317.401 227.51 318.481 228.07 319.281 229.09V224.03H322.041V238.39H319.501V236.85C318.661 237.97 317.501 238.59 316.121 238.59C313.241 238.59 311.381 236.17 311.381 233.05ZM314.241 233.05C314.241 235.05 315.381 236.11 316.741 236.11C318.121 236.11 319.261 235.03 319.261 233.01C319.261 230.99 318.101 229.97 316.741 229.97C315.381 229.97 314.241 231.01 314.241 233.05Z" fill="#101828"/>
<path d="M335.462 238.39L331.702 228.85V238.39H328.942V224.03H332.582L336.742 234.67L340.922 224.03H344.562V238.39H341.802V228.77L338.002 238.39H335.462Z" fill="#101828"/>
<path d="M353.617 238.39V237.07C352.917 238.07 351.857 238.59 350.397 238.59C348.177 238.59 346.697 237.29 346.697 235.29C346.697 233.21 348.377 232.09 351.497 232.09C352.097 232.09 352.617 232.13 353.277 232.21V231.57C353.277 230.37 352.597 229.67 351.437 229.67C350.237 229.67 349.517 230.37 349.417 231.57H346.917C347.077 229.11 348.857 227.51 351.437 227.51C354.237 227.51 355.877 229.05 355.877 231.67V238.39H353.617ZM349.317 235.21C349.317 236.11 349.957 236.67 350.997 236.67C352.417 236.67 353.277 235.89 353.277 234.65V233.89C352.617 233.79 352.157 233.75 351.677 233.75C350.097 233.75 349.317 234.25 349.317 235.21Z" fill="#101828"/>
<path d="M361.052 233.21V238.39H358.272V227.71H360.832V229.77C361.612 228.41 363.272 227.59 364.992 227.59V230.47C362.632 230.29 361.052 230.85 361.052 233.21Z" fill="#101828"/>
<path d="M369.656 225.23C369.656 226.17 368.896 226.87 367.796 226.87C366.716 226.87 365.956 226.17 365.956 225.23C365.956 224.25 366.716 223.55 367.796 223.55C368.896 223.55 369.656 224.25 369.656 225.23ZM369.216 238.39H366.436V227.71H369.216V238.39Z" fill="#101828"/>
<path d="M376.41 238.59C373.31 238.59 370.99 236.15 370.99 233.05C370.99 229.93 373.31 227.51 376.41 227.51C379.51 227.51 381.83 229.93 381.83 233.05C381.83 236.15 379.51 238.59 376.41 238.59ZM376.41 236.13C377.79 236.13 378.97 235.03 378.97 233.05C378.97 231.07 377.79 229.99 376.41 229.99C375.03 229.99 373.85 231.07 373.85 233.05C373.85 235.03 375.03 236.13 376.41 236.13Z" fill="#101828"/>
<path d="M386.384 232.57V238.39H383.604V227.71H386.164V229.23C386.944 228.17 388.044 227.51 389.444 227.51C391.584 227.51 393.064 228.91 393.064 231.49V238.39H390.304V232.43C390.304 230.85 389.684 229.97 388.424 229.97C387.324 229.97 386.384 230.85 386.384 232.57Z" fill="#101828"/>
<rect x="77.8266" y="178.05" width="372.347" height="79.9" rx="9.5" stroke="#D0D5DD"/>
</g>
<g filter="url(#filter2_d_822_9653)">
<rect x="167.766" y="278.45" width="192.468" height="44" rx="10" fill="#155EEF"/>
<g clip-path="url(#clip1_822_9653)">
<path fill-rule="evenodd" clip-rule="evenodd" d="M200.549 289.804C200.569 289.514 200.441 289.234 200.209 289.059C199.977 288.885 199.673 288.84 199.4 288.94C194.95 290.566 190.466 294.855 187.712 299.41C186.677 301.122 188.033 303.066 189.863 303.066H192.481C191.927 305.708 191.693 308.31 191.575 311.12C191.562 311.448 191.737 311.755 192.026 311.91C192.315 312.066 192.668 312.042 192.934 311.85C199.184 307.328 203.555 302.406 205.453 299.248C206.276 297.879 205.458 296.23 203.931 295.965C202.759 295.761 201.437 295.639 200.152 295.569L200.549 289.804Z" fill="white"/>
</g>
<path d="M224.686 306.434C221.358 306.434 218.766 303.954 218.766 300.402C218.766 297.01 221.23 294.466 224.59 294.466C227.502 294.466 229.582 296.194 230.334 298.69H227.47C227.118 297.522 226.062 296.642 224.526 296.642C222.67 296.642 221.262 298.002 221.262 300.466C221.262 302.674 222.494 304.37 224.798 304.37C226.494 304.37 227.566 303.362 227.886 301.938H224.558V300.002H230.478C230.622 303.746 228.35 306.434 224.686 306.434Z" fill="white"/>
<path d="M235.692 306.338C233.132 306.338 231.42 304.562 231.42 301.89C231.42 299.346 233.196 297.49 235.66 297.49C238.364 297.49 240.156 299.682 239.756 302.466H233.692C233.836 303.858 234.508 304.626 235.644 304.626C236.62 304.626 237.276 304.146 237.532 303.298H239.74C239.26 305.234 237.772 306.338 235.692 306.338ZM235.612 299.122C234.572 299.122 233.916 299.794 233.724 301.058H237.404C237.34 299.874 236.668 299.122 235.612 299.122Z" fill="white"/>
<path d="M243.47 301.538V306.194H241.246V297.65H243.294V298.866C243.918 298.018 244.798 297.49 245.918 297.49C247.63 297.49 248.814 298.61 248.814 300.674V306.194H246.606V301.426C246.606 300.162 246.11 299.458 245.102 299.458C244.222 299.458 243.47 300.162 243.47 301.538Z" fill="white"/>
<path d="M254.442 306.338C251.882 306.338 250.17 304.562 250.17 301.89C250.17 299.346 251.946 297.49 254.41 297.49C257.114 297.49 258.906 299.682 258.506 302.466H252.442C252.586 303.858 253.258 304.626 254.394 304.626C255.37 304.626 256.026 304.146 256.282 303.298H258.49C258.01 305.234 256.522 306.338 254.442 306.338ZM254.362 299.122C253.322 299.122 252.666 299.794 252.474 301.058H256.154C256.09 299.874 255.418 299.122 254.362 299.122Z" fill="white"/>
<path d="M262.22 302.05V306.194H259.996V297.65H262.044V299.298C262.668 298.21 263.996 297.554 265.372 297.554V299.858C263.484 299.714 262.22 300.162 262.22 302.05Z" fill="white"/>
<path d="M271.615 306.194V305.138C271.055 305.938 270.207 306.354 269.039 306.354C267.263 306.354 266.079 305.314 266.079 303.714C266.079 302.05 267.423 301.154 269.919 301.154C270.399 301.154 270.815 301.186 271.343 301.25V300.738C271.343 299.778 270.799 299.218 269.871 299.218C268.911 299.218 268.335 299.778 268.255 300.738H266.255C266.383 298.77 267.807 297.49 269.871 297.49C272.111 297.49 273.423 298.722 273.423 300.818V306.194H271.615ZM268.175 303.65C268.175 304.37 268.687 304.818 269.519 304.818C270.655 304.818 271.343 304.194 271.343 303.202V302.594C270.815 302.514 270.447 302.482 270.063 302.482C268.799 302.482 268.175 302.882 268.175 303.65Z" fill="white"/>
<path d="M280.527 304.034V305.97C279.983 306.242 279.471 306.354 278.815 306.354C277.055 306.354 275.951 305.346 275.951 303.426V299.554H274.223V297.65H275.951V295.122H278.159V297.65H280.607V299.554H278.159V302.914C278.159 303.906 278.607 304.306 279.407 304.306C279.823 304.306 280.207 304.21 280.527 304.034Z" fill="white"/>
<path d="M285.489 306.338C282.929 306.338 281.217 304.562 281.217 301.89C281.217 299.346 282.993 297.49 285.457 297.49C288.161 297.49 289.953 299.682 289.553 302.466H283.489C283.633 303.858 284.305 304.626 285.441 304.626C286.417 304.626 287.073 304.146 287.329 303.298H289.537C289.057 305.234 287.569 306.338 285.489 306.338ZM285.409 299.122C284.369 299.122 283.713 299.794 283.521 301.058H287.201C287.137 299.874 286.465 299.122 285.409 299.122Z" fill="white"/>
<path d="M299.475 306.194V305.138C298.915 305.938 298.067 306.354 296.899 306.354C295.123 306.354 293.939 305.314 293.939 303.714C293.939 302.05 295.283 301.154 297.779 301.154C298.259 301.154 298.675 301.186 299.203 301.25V300.738C299.203 299.778 298.659 299.218 297.731 299.218C296.771 299.218 296.195 299.778 296.115 300.738H294.115C294.243 298.77 295.667 297.49 297.731 297.49C299.971 297.49 301.283 298.722 301.283 300.818V306.194H299.475ZM296.035 303.65C296.035 304.37 296.547 304.818 297.379 304.818C298.515 304.818 299.203 304.194 299.203 303.202V302.594C298.675 302.514 298.307 302.482 297.923 302.482C296.659 302.482 296.035 302.882 296.035 303.65Z" fill="white"/>
<path d="M309.167 306.194H306.735V294.706H314.159V296.818H309.167V299.714H313.375V301.81H309.167V306.194Z" fill="white"/>
<path d="M319.131 306.354C316.651 306.354 314.795 304.402 314.795 301.922C314.795 299.426 316.651 297.49 319.131 297.49C321.611 297.49 323.467 299.426 323.467 301.922C323.467 304.402 321.611 306.354 319.131 306.354ZM319.131 304.386C320.235 304.386 321.179 303.506 321.179 301.922C321.179 300.338 320.235 299.474 319.131 299.474C318.027 299.474 317.083 300.338 317.083 301.922C317.083 303.506 318.027 304.386 319.131 304.386Z" fill="white"/>
<path d="M327.111 302.05V306.194H324.887V297.65H326.935V299.298C327.559 298.21 328.887 297.554 330.263 297.554V299.858C328.375 299.714 327.111 300.162 327.111 302.05Z" fill="white"/>
<path d="M333.642 306.194H331.418V297.65H333.466V298.866C334.09 298.002 334.89 297.49 336.026 297.49C337.194 297.49 338.09 298.034 338.522 299.01C339.194 298.066 340.058 297.49 341.338 297.49C343.066 297.49 344.234 298.626 344.234 300.674V306.194H342.026V301.378C342.026 300.178 341.514 299.458 340.538 299.458C339.658 299.458 338.938 300.146 338.938 301.426V306.194H336.73V301.378C336.73 300.178 336.218 299.458 335.242 299.458C334.346 299.458 333.642 300.146 333.642 301.426V306.194Z" fill="white"/>
</g>
<g clip-path="url(#clip2_822_9653)">
<path fill-rule="evenodd" clip-rule="evenodd" d="M237 346.598C237.473 346.598 237.857 346.982 237.857 347.456V350.313C237.857 350.786 237.473 351.17 237 351.17C236.527 351.17 236.143 350.786 236.143 350.313V347.456C236.143 346.982 236.527 346.598 237 346.598ZM230.654 349.733C230.975 349.384 231.517 349.361 231.865 349.681L233.968 351.613C234.317 351.933 234.34 352.475 234.02 352.824C233.7 353.173 233.157 353.196 232.809 352.875L230.706 350.944C230.357 350.624 230.334 350.082 230.654 349.733ZM233.207 356.373C233.651 356.208 233.877 355.715 233.712 355.271C233.547 354.827 233.053 354.601 232.61 354.766L229.844 355.795C229.4 355.96 229.174 356.453 229.339 356.897C229.504 357.341 229.998 357.567 230.442 357.402L233.207 356.373ZM235.666 358.116C236.09 358.326 236.264 358.84 236.054 359.265L234.785 361.825C234.575 362.249 234.061 362.422 233.636 362.212C233.212 362.002 233.039 361.488 233.249 361.064L234.518 358.504C234.728 358.079 235.242 357.906 235.666 358.116ZM243.294 350.944C243.643 350.624 243.666 350.082 243.345 349.733C243.025 349.384 242.483 349.361 242.134 349.681L240.031 351.613C239.683 351.933 239.66 352.475 239.98 352.824C240.3 353.173 240.842 353.196 241.191 352.875L243.294 350.944ZM240.288 355.271C240.453 354.827 240.947 354.601 241.39 354.766L244.156 355.795C244.6 355.96 244.826 356.453 244.661 356.897C244.496 357.341 244.002 357.567 243.558 357.402L240.793 356.373C240.349 356.208 240.123 355.715 240.288 355.271ZM239.482 358.504C239.272 358.079 238.758 357.906 238.334 358.116C237.909 358.326 237.736 358.84 237.946 359.265L239.215 361.825C239.425 362.249 239.939 362.422 240.363 362.212C240.788 362.002 240.961 361.488 240.751 361.064L239.482 358.504Z" fill="#D0D5DD"/>
</g>
<rect x="251" y="351.45" width="48" height="6" rx="3" fill="#EAECF0"/>
<g clip-path="url(#clip3_822_9653)">
<path d="M454 312.933C452.704 313.196 451.396 313.392 450.08 313.52C449.89 313.568 449.688 313.543 449.516 313.448C449.345 313.354 449.215 313.198 449.154 313.011C449.093 312.825 449.105 312.622 449.188 312.444C449.271 312.266 449.418 312.127 449.6 312.053C450.64 311.493 451.573 310.88 452.613 310.373C453.064 310.168 453.527 309.99 454 309.84L455.44 309.493C456.594 309.29 457.762 309.165 458.933 309.12C459.047 309.088 459.166 309.081 459.284 309.098C459.401 309.115 459.513 309.156 459.613 309.219C459.713 309.282 459.8 309.364 459.866 309.462C459.933 309.56 459.978 309.67 460 309.787C460.048 310.013 460.004 310.249 459.88 310.443C459.755 310.638 459.559 310.776 459.333 310.827C458.24 311.227 457.253 311.76 456.186 312.187C455.12 312.613 454.666 312.667 454 312.933Z" fill="#528BFF"/>
<path d="M447.733 293.067C447.333 293.627 446.96 294.214 446.533 294.774C446.106 295.334 444.88 296.56 444.08 297.44C444.034 297.537 443.969 297.623 443.888 297.693C443.807 297.763 443.713 297.816 443.61 297.847C443.508 297.879 443.401 297.889 443.294 297.877C443.188 297.865 443.086 297.831 442.993 297.778C442.9 297.724 442.82 297.652 442.757 297.566C442.694 297.479 442.649 297.381 442.626 297.276C442.603 297.172 442.602 297.064 442.622 296.959C442.643 296.854 442.685 296.755 442.746 296.667C443.088 295.607 443.507 294.573 444 293.574C444.236 293.151 444.494 292.742 444.773 292.347C445.049 291.995 445.343 291.656 445.653 291.334C446.461 290.535 447.356 289.828 448.32 289.227C448.501 289.084 448.731 289.018 448.96 289.043C449.19 289.067 449.4 289.182 449.546 289.36C449.629 289.44 449.694 289.535 449.739 289.64C449.783 289.746 449.806 289.859 449.806 289.974C449.806 290.088 449.783 290.201 449.739 290.307C449.694 290.412 449.629 290.507 449.546 290.587C448.892 291.376 448.287 292.204 447.733 293.067Z" fill="#528BFF"/>
<path d="M430.293 291.893C430.056 292.81 429.735 293.703 429.333 294.56C429.314 294.66 429.275 294.755 429.219 294.84C429.163 294.925 429.091 294.998 429.007 295.055C428.923 295.112 428.828 295.152 428.729 295.172C428.629 295.192 428.526 295.193 428.426 295.173C428.23 295.135 428.057 295.021 427.942 294.857C427.828 294.693 427.782 294.491 427.813 294.293C427.813 293.387 427.546 292.56 427.52 291.627C427.483 290.883 427.555 290.137 427.733 289.413C427.946 288.507 428.213 287.68 428.48 286.747C428.513 286.517 428.635 286.31 428.82 286.171C429.004 286.031 429.237 285.97 429.466 286C429.579 286.013 429.688 286.049 429.786 286.104C429.885 286.16 429.971 286.234 430.041 286.324C430.11 286.413 430.161 286.515 430.191 286.625C430.22 286.734 430.228 286.848 430.213 286.96C430.213 287.867 430.426 288.693 430.48 289.627C430.506 290.008 430.506 290.392 430.48 290.773C430.459 291.152 430.396 291.528 430.293 291.893Z" fill="#528BFF"/>
<path d="M415.466 304.667C414.213 304.48 412.986 304.4 411.76 304.133C411.242 304.044 410.734 303.91 410.24 303.733L408.773 303.2C407.626 302.747 406.533 302.213 405.386 301.76C405.276 301.734 405.172 301.686 405.08 301.62C404.988 301.553 404.91 301.469 404.851 301.373C404.791 301.276 404.752 301.169 404.734 301.057C404.716 300.945 404.72 300.83 404.746 300.72C404.773 300.61 404.82 300.506 404.887 300.414C404.953 300.322 405.037 300.244 405.134 300.185C405.23 300.125 405.338 300.085 405.45 300.067C405.562 300.05 405.676 300.054 405.786 300.08C407.047 300.173 408.302 300.333 409.546 300.56C410.053 300.56 410.586 300.773 411.093 300.933C411.6 301.083 412.099 301.261 412.586 301.467C413.76 301.973 414.8 302.613 415.92 303.2C416.092 303.277 416.23 303.415 416.308 303.587C416.385 303.759 416.397 303.954 416.342 304.134C416.286 304.314 416.166 304.468 416.005 304.566C415.844 304.664 415.652 304.7 415.466 304.667Z" fill="#528BFF"/>
<path d="M396.48 318.507C398.109 317.506 399.923 316.844 401.813 316.56C402.898 316.391 403.996 316.328 405.093 316.373C406.826 316.373 408.453 316.773 409.866 316.933C409.968 316.93 410.069 316.946 410.164 316.982C410.26 317.017 410.347 317.071 410.421 317.141C410.495 317.21 410.555 317.293 410.597 317.386C410.64 317.478 410.663 317.578 410.666 317.68C410.667 317.883 410.59 318.079 410.451 318.227C410.313 318.376 410.123 318.466 409.92 318.48C408.373 318.72 406.586 319.04 404.586 319.253L401.92 319.413C401.066 319.413 400.24 319.413 399.413 319.547C398.605 319.625 397.809 319.795 397.04 320.053C396.938 320.104 396.828 320.134 396.714 320.142C396.601 320.15 396.487 320.136 396.38 320.1C396.272 320.064 396.172 320.007 396.087 319.933C396.001 319.859 395.93 319.768 395.88 319.667C395.829 319.565 395.799 319.454 395.791 319.341C395.783 319.228 395.797 319.114 395.833 319.006C395.869 318.899 395.925 318.799 396 318.713C396.074 318.628 396.165 318.557 396.266 318.507H396.48Z" fill="#528BFF"/>
<path d="M412.56 332.613C412.799 332.105 413.076 331.615 413.387 331.147C413.697 330.684 414.054 330.255 414.454 329.867C415.416 328.991 416.503 328.263 417.68 327.707C417.76 327.635 417.853 327.581 417.955 327.547C418.056 327.514 418.164 327.501 418.27 327.511C418.376 327.521 418.48 327.553 418.573 327.605C418.667 327.657 418.748 327.728 418.813 327.813C418.878 327.898 418.924 327.996 418.949 328.1C418.975 328.204 418.978 328.312 418.959 328.417C418.94 328.522 418.9 328.623 418.84 328.711C418.781 328.8 418.704 328.876 418.614 328.933C418.164 329.413 417.746 329.921 417.36 330.453C417.04 330.907 416.827 331.333 416.534 331.76C416.24 332.187 415.974 332.587 415.68 332.987C414.8 334.213 413.867 335.387 413.014 336.88C412.903 337.062 412.731 337.198 412.528 337.262C412.325 337.327 412.106 337.316 411.911 337.231C411.716 337.147 411.558 336.994 411.466 336.802C411.375 336.61 411.356 336.392 411.414 336.187C411.716 334.971 412.099 333.778 412.56 332.613Z" fill="#528BFF"/>
<path d="M413.946 317.36C413.945 317.188 413.986 317.018 414.065 316.864C414.144 316.711 414.259 316.579 414.4 316.48L422.106 310.827C422.106 310 421.733 308.347 421.573 306.747C421.442 305.685 421.38 304.616 421.386 303.547C421.415 302.747 421.522 301.952 421.706 301.173C421.764 300.965 421.868 300.772 422.011 300.611C422.155 300.449 422.333 300.322 422.533 300.24C422.857 300.163 423.195 300.163 423.52 300.24C424.192 300.501 424.836 300.832 425.44 301.227L432.213 305.253L440.026 301.653C440.183 301.574 440.357 301.532 440.533 301.532C440.709 301.532 440.883 301.574 441.04 301.653C441.347 301.9 441.578 302.229 441.705 302.602C441.833 302.975 441.852 303.377 441.76 303.76C441.236 306.479 440.505 309.153 439.573 311.76L440.853 312.987C442.214 314.068 443.506 315.235 444.72 316.48C445.318 317.134 445.788 317.893 446.106 318.72C446.293 319.209 446.295 319.748 446.114 320.239C445.932 320.729 445.579 321.137 445.12 321.387C444.089 321.98 442.943 322.344 441.76 322.453H439.893C441.68 324.107 443.466 325.787 445.226 327.52C446.266 328.613 447.28 329.733 448.266 330.853C449.253 331.973 450.213 333.173 451.12 334.373C453.26 337.179 455.245 340.099 457.066 343.12C457.132 343.212 457.179 343.317 457.204 343.428C457.229 343.538 457.232 343.653 457.212 343.765C457.192 343.877 457.15 343.983 457.088 344.079C457.027 344.174 456.947 344.256 456.853 344.32C456.759 344.387 456.652 344.434 456.539 344.459C456.426 344.485 456.309 344.487 456.196 344.468C456.082 344.448 455.973 344.406 455.875 344.344C455.777 344.282 455.693 344.201 455.626 344.107C454.453 342.507 453.2 340.987 451.92 339.467C450.64 337.947 449.333 336.667 447.946 335.04C446.56 333.413 445.28 332.08 444.053 330.587C441.733 327.92 439.52 325.067 437.253 322.32C436.266 322.32 435.36 322.32 434.586 322.107L433.893 323.653C435.786 326.32 437.813 328.987 439.76 331.653C441.333 333.547 442.746 335.573 444 337.653C446.244 341.182 448.206 344.882 449.866 348.72C449.938 348.835 449.98 348.966 449.991 349.101C450.002 349.236 449.98 349.372 449.928 349.497C449.876 349.622 449.795 349.733 449.691 349.82C449.588 349.908 449.465 349.969 449.333 350C449.124 350.102 448.884 350.117 448.664 350.042C448.444 349.967 448.263 349.808 448.16 349.6C446.057 345.907 443.733 342.345 441.2 338.933C440.213 337.52 439.226 336.107 438.293 334.693L436.426 331.76C435.226 329.787 434.08 327.76 432.96 325.733C432.48 326.747 431.946 327.733 431.466 328.56C430.763 329.544 429.853 330.363 428.8 330.96C428.368 331.201 427.867 331.285 427.38 331.198C426.894 331.11 426.453 330.856 426.133 330.48C425.562 329.786 425.127 328.99 424.853 328.133C424.391 326.467 424.026 324.775 423.76 323.067L423.36 321.333C420.642 320.817 417.968 320.095 415.36 319.173C414.293 318.507 413.92 317.733 413.946 317.36ZM424.746 318.773C424.995 318.813 425.226 318.926 425.411 319.097C425.596 319.267 425.727 319.489 425.786 319.733L426.48 322.24C426.773 323.467 426.986 324.907 427.413 326.4C427.576 326.998 427.818 327.572 428.133 328.107C428.491 327.729 428.812 327.318 429.093 326.88C429.546 326.107 430.053 325.147 430.506 324.213C431.546 322.107 432.426 320 432.426 320C432.546 319.704 432.76 319.455 433.034 319.292C433.309 319.128 433.629 319.058 433.946 319.093C433.946 319.093 436.24 319.36 438.64 319.52C440.117 319.472 441.587 319.312 443.04 319.04C442.788 318.66 442.493 318.311 442.16 318C441.146 316.933 439.92 315.973 439.04 315.093L437.173 313.227C436.998 313.052 436.878 312.831 436.826 312.59C436.773 312.349 436.792 312.098 436.88 311.867C436.88 311.867 438.666 307.173 439.253 304.48L432.56 307.333C432.414 307.418 432.248 307.462 432.08 307.462C431.911 307.462 431.746 307.418 431.6 307.333C431.6 307.333 423.253 302.453 422.96 302C422.96 302.56 423.12 305.333 423.28 306.48C423.6 308.693 424.026 311.013 424.026 311.013C424.061 311.182 424.046 311.356 423.985 311.517C423.923 311.678 423.818 311.817 423.68 311.92L417.146 317.093C419.786 318 424.746 318.773 424.746 318.773Z" fill="#98A2B3"/>
</g>
</g>
<circle cx="48" cy="48" r="4" fill="#D0D5DD"/>
<circle cx="61" cy="48" r="4" fill="#D0D5DD"/>
<circle cx="74" cy="48" r="4" fill="#D0D5DD"/>
<rect x="452" y="42" width="12" height="12" rx="4" fill="#EAECF0"/>
<rect x="472" y="42" width="12" height="12" rx="4" fill="#EAECF0"/>
</g>
<defs>
<filter id="filter0_d_822_9653" x="-20" y="12" width="568" height="468" filterUnits="userSpaceOnUse" color-interpolation-filters="sRGB">
<feFlood flood-opacity="0" result="BackgroundImageFix"/>
<feColorMatrix in="SourceAlpha" type="matrix" values="0 0 0 0 0 0 0 0 0 0 0 0 0 0 0 0 0 0 127 0" result="hardAlpha"/>
<feMorphology radius="12" operator="erode" in="SourceAlpha" result="effect1_dropShadow_822_9653"/>
<feOffset dy="32"/>
<feGaussianBlur stdDeviation="32"/>
<feColorMatrix type="matrix" values="0 0 0 0 0.0625882 0 0 0 0 0.0926346 0 0 0 0 0.15702 0 0 0 0.14 0"/>
<feBlend mode="normal" in2="BackgroundImageFix" result="effect1_dropShadow_822_9653"/>
<feBlend mode="normal" in="SourceGraphic" in2="effect1_dropShadow_822_9653" result="shape"/>
</filter>
<filter id="filter1_dd_822_9653" x="65.3266" y="177.55" width="397.347" height="104.9" filterUnits="userSpaceOnUse" color-interpolation-filters="sRGB">
<feFlood flood-opacity="0" result="BackgroundImageFix"/>
<feColorMatrix in="SourceAlpha" type="matrix" values="0 0 0 0 0 0 0 0 0 0 0 0 0 0 0 0 0 0 127 0" result="hardAlpha"/>
<feMorphology radius="2" operator="erode" in="SourceAlpha" result="effect1_dropShadow_822_9653"/>
<feOffset dy="4"/>
<feGaussianBlur stdDeviation="3"/>
<feColorMatrix type="matrix" values="0 0 0 0 0.0627451 0 0 0 0 0.0941176 0 0 0 0 0.156863 0 0 0 0.03 0"/>
<feBlend mode="normal" in2="BackgroundImageFix" result="effect1_dropShadow_822_9653"/>
<feColorMatrix in="SourceAlpha" type="matrix" values="0 0 0 0 0 0 0 0 0 0 0 0 0 0 0 0 0 0 127 0" result="hardAlpha"/>
<feMorphology radius="4" operator="erode" in="SourceAlpha" result="effect2_dropShadow_822_9653"/>
<feOffset dy="12"/>
<feGaussianBlur stdDeviation="8"/>
<feColorMatrix type="matrix" values="0 0 0 0 0.0627451 0 0 0 0 0.0941176 0 0 0 0 0.156863 0 0 0 0.08 0"/>
<feBlend mode="normal" in2="effect1_dropShadow_822_9653" result="effect2_dropShadow_822_9653"/>
<feBlend mode="normal" in="SourceGraphic" in2="effect2_dropShadow_822_9653" result="shape"/>
</filter>
<filter id="filter2_d_822_9653" x="131.766" y="266.45" width="264.468" height="116" filterUnits="userSpaceOnUse" color-interpolation-filters="sRGB">
<feFlood flood-opacity="0" result="BackgroundImageFix"/>
<feColorMatrix in="SourceAlpha" type="matrix" values="0 0 0 0 0 0 0 0 0 0 0 0 0 0 0 0 0 0 127 0" result="hardAlpha"/>
<feMorphology radius="12" operator="erode" in="SourceAlpha" result="effect1_dropShadow_822_9653"/>
<feOffset dy="24"/>
<feGaussianBlur stdDeviation="24"/>
<feColorMatrix type="matrix" values="0 0 0 0 0.0625882 0 0 0 0 0.0926346 0 0 0 0 0.15702 0 0 0 0.18 0"/>
<feBlend mode="normal" in2="BackgroundImageFix" result="effect1_dropShadow_822_9653"/>
<feBlend mode="normal" in="SourceGraphic" in2="effect1_dropShadow_822_9653" result="shape"/>
</filter>
<radialGradient id="paint0_radial_822_9653" cx="0" cy="0" r="1" gradientUnits="userSpaceOnUse" gradientTransform="translate(264 -0.000119271) rotate(90) scale(488.521 505.624)">
<stop stop-color="white"/>
<stop offset="0.991144" stop-color="white" stop-opacity="0"/>
</radialGradient>
<clipPath id="clip0_822_9653">
<rect width="528" height="396" fill="white"/>
</clipPath>
<clipPath id="clip1_822_9653">
<rect width="24" height="24" fill="white" transform="translate(183.766 288.45)"/>
</clipPath>
<clipPath id="clip2_822_9653">
<rect width="16" height="16" fill="white" transform="translate(229 346.45)"/>
</clipPath>
<clipPath id="clip3_822_9653">
<rect width="64" height="64" fill="white" transform="matrix(-1 0 0 1 460 286)"/>
</clipPath>
</defs>
</svg>
