<svg width="528" height="396" viewBox="0 0 528 396" fill="none" xmlns="http://www.w3.org/2000/svg">
<g clip-path="url(#clip0_822_9919)">
<rect width="528" height="396" fill="#D1E0FF"/>
<g opacity="0.7">
<mask id="mask0_822_9919" style="mask-type:alpha" maskUnits="userSpaceOnUse" x="-264" y="0" width="1056" height="601">
<rect x="-264" y="-6.10352e-05" width="1056" height="601" fill="url(#paint0_radial_822_9919)"/>
</mask>
<g mask="url(#mask0_822_9919)">
<mask id="path-2-inside-1_822_9919" fill="white">
<path d="M-29.3334 -6.10352e-05H88V117.333H-29.3334V-6.10352e-05Z"/>
</mask>
<path d="M-29.3334 -6.10352e-05H88V117.333H-29.3334V-6.10352e-05Z" fill="white"/>
<path d="M88 117.333V118.067H88.7333V117.333H88ZM87.2666 -6.10352e-05V117.333H88.7333V-6.10352e-05H87.2666ZM88 116.6H-29.3334V118.067H88V116.6Z" fill="#B2CCFF" mask="url(#path-2-inside-1_822_9919)"/>
<mask id="path-4-inside-2_822_9919" fill="white">
<path d="M88 -6.10352e-05H205.333V117.333H88V-6.10352e-05Z"/>
</mask>
<path d="M88 -6.10352e-05H205.333V117.333H88V-6.10352e-05Z" fill="white"/>
<path d="M205.333 117.333V118.067H206.067V117.333H205.333ZM204.6 -6.10352e-05V117.333H206.067V-6.10352e-05H204.6ZM205.333 116.6H88V118.067H205.333V116.6Z" fill="#B2CCFF" mask="url(#path-4-inside-2_822_9919)"/>
<mask id="path-6-inside-3_822_9919" fill="white">
<path d="M205.333 -6.10352e-05H322.667V117.333H205.333V-6.10352e-05Z"/>
</mask>
<path d="M205.333 -6.10352e-05H322.667V117.333H205.333V-6.10352e-05Z" fill="white"/>
<path d="M322.667 117.333V118.067H323.4V117.333H322.667ZM321.933 -6.10352e-05V117.333H323.4V-6.10352e-05H321.933ZM322.667 116.6H205.333V118.067H322.667V116.6Z" fill="#B2CCFF" mask="url(#path-6-inside-3_822_9919)"/>
<mask id="path-8-inside-4_822_9919" fill="white">
<path d="M322.667 -6.10352e-05H440V117.333H322.667V-6.10352e-05Z"/>
</mask>
<path d="M322.667 -6.10352e-05H440V117.333H322.667V-6.10352e-05Z" fill="#EFF4FF"/>
<path d="M440 117.333V118.067H440.733V117.333H440ZM439.267 -6.10352e-05V117.333H440.733V-6.10352e-05H439.267ZM440 116.6H322.667V118.067H440V116.6Z" fill="#B2CCFF" mask="url(#path-8-inside-4_822_9919)"/>
<mask id="path-10-inside-5_822_9919" fill="white">
<path d="M440 -6.10352e-05H557.333V117.333H440V-6.10352e-05Z"/>
</mask>
<path d="M440 -6.10352e-05H557.333V117.333H440V-6.10352e-05Z" fill="white"/>
<path d="M557.333 117.333V118.067H558.067V117.333H557.333ZM556.6 -6.10352e-05V117.333H558.067V-6.10352e-05H556.6ZM557.333 116.6H440V118.067H557.333V116.6Z" fill="#B2CCFF" mask="url(#path-10-inside-5_822_9919)"/>
<mask id="path-12-inside-6_822_9919" fill="white">
<path d="M-29.3334 117.333H88V234.667H-29.3334V117.333Z"/>
</mask>
<path d="M-29.3334 117.333H88V234.667H-29.3334V117.333Z" fill="white"/>
<path d="M88 234.667V235.4H88.7333V234.667H88ZM87.2666 117.333V234.667H88.7333V117.333H87.2666ZM88 233.933H-29.3334V235.4H88V233.933Z" fill="#B2CCFF" mask="url(#path-12-inside-6_822_9919)"/>
<mask id="path-14-inside-7_822_9919" fill="white">
<path d="M88 117.333H205.333V234.667H88V117.333Z"/>
</mask>
<path d="M88 117.333H205.333V234.667H88V117.333Z" fill="white"/>
<path d="M205.333 234.667V235.4H206.067V234.667H205.333ZM204.6 117.333V234.667H206.067V117.333H204.6ZM205.333 233.933H88V235.4H205.333V233.933Z" fill="#B2CCFF" mask="url(#path-14-inside-7_822_9919)"/>
<mask id="path-16-inside-8_822_9919" fill="white">
<path d="M205.333 117.333H322.667V234.667H205.333V117.333Z"/>
</mask>
<path d="M205.333 117.333H322.667V234.667H205.333V117.333Z" fill="white"/>
<path d="M322.667 234.667V235.4H323.4V234.667H322.667ZM321.933 117.333V234.667H323.4V117.333H321.933ZM322.667 233.933H205.333V235.4H322.667V233.933Z" fill="#B2CCFF" mask="url(#path-16-inside-8_822_9919)"/>
<mask id="path-18-inside-9_822_9919" fill="white">
<path d="M322.667 117.333H440V234.667H322.667V117.333Z"/>
</mask>
<path d="M322.667 117.333H440V234.667H322.667V117.333Z" fill="white"/>
<path d="M440 234.667V235.4H440.733V234.667H440ZM439.267 117.333V234.667H440.733V117.333H439.267ZM440 233.933H322.667V235.4H440V233.933Z" fill="#B2CCFF" mask="url(#path-18-inside-9_822_9919)"/>
<mask id="path-20-inside-10_822_9919" fill="white">
<path d="M440 117.333H557.333V234.667H440V117.333Z"/>
</mask>
<path d="M440 117.333H557.333V234.667H440V117.333Z" fill="white"/>
<path d="M557.333 234.667V235.4H558.067V234.667H557.333ZM556.6 117.333V234.667H558.067V117.333H556.6ZM557.333 233.933H440V235.4H557.333V233.933Z" fill="#B2CCFF" mask="url(#path-20-inside-10_822_9919)"/>
<mask id="path-22-inside-11_822_9919" fill="white">
<path d="M-29.3334 234.667H88V352H-29.3334V234.667Z"/>
</mask>
<path d="M-29.3334 234.667H88V352H-29.3334V234.667Z" fill="#EFF4FF"/>
<path d="M88 352V352.733H88.7333V352H88ZM87.2666 234.667V352H88.7333V234.667H87.2666ZM88 351.267H-29.3334V352.733H88V351.267Z" fill="#B2CCFF" mask="url(#path-22-inside-11_822_9919)"/>
<mask id="path-24-inside-12_822_9919" fill="white">
<path d="M88 234.667H205.333V352H88V234.667Z"/>
</mask>
<path d="M88 234.667H205.333V352H88V234.667Z" fill="white"/>
<path d="M205.333 352V352.733H206.067V352H205.333ZM204.6 234.667V352H206.067V234.667H204.6ZM205.333 351.267H88V352.733H205.333V351.267Z" fill="#B2CCFF" mask="url(#path-24-inside-12_822_9919)"/>
<mask id="path-26-inside-13_822_9919" fill="white">
<path d="M205.333 234.667H322.667V352H205.333V234.667Z"/>
</mask>
<path d="M205.333 234.667H322.667V352H205.333V234.667Z" fill="white"/>
<path d="M322.667 352V352.733H323.4V352H322.667ZM321.933 234.667V352H323.4V234.667H321.933ZM322.667 351.267H205.333V352.733H322.667V351.267Z" fill="#B2CCFF" mask="url(#path-26-inside-13_822_9919)"/>
<mask id="path-28-inside-14_822_9919" fill="white">
<path d="M322.667 234.667H440V352H322.667V234.667Z"/>
</mask>
<path d="M322.667 234.667H440V352H322.667V234.667Z" fill="white"/>
<path d="M440 352V352.733H440.733V352H440ZM439.267 234.667V352H440.733V234.667H439.267ZM440 351.267H322.667V352.733H440V351.267Z" fill="#B2CCFF" mask="url(#path-28-inside-14_822_9919)"/>
<mask id="path-30-inside-15_822_9919" fill="white">
<path d="M440 234.667H557.333V352H440V234.667Z"/>
</mask>
<path d="M440 234.667H557.333V352H440V234.667Z" fill="white"/>
<path d="M557.333 352V352.733H558.067V352H557.333ZM556.6 234.667V352H558.067V234.667H556.6ZM557.333 351.267H440V352.733H557.333V351.267Z" fill="#B2CCFF" mask="url(#path-30-inside-15_822_9919)"/>
<mask id="path-32-inside-16_822_9919" fill="white">
<path d="M-29.3334 352H88V469.333H-29.3334V352Z"/>
</mask>
<path d="M-29.3334 352H88V469.333H-29.3334V352Z" fill="white"/>
<path d="M88 469.333V470.067H88.7333V469.333H88ZM87.2666 352V469.333H88.7333V352H87.2666ZM88 468.6H-29.3334V470.067H88V468.6Z" fill="#B2CCFF" mask="url(#path-32-inside-16_822_9919)"/>
<mask id="path-34-inside-17_822_9919" fill="white">
<path d="M88 352H205.333V469.333H88V352Z"/>
</mask>
<path d="M88 352H205.333V469.333H88V352Z" fill="white"/>
<path d="M205.333 469.333V470.067H206.067V469.333H205.333ZM204.6 352V469.333H206.067V352H204.6ZM205.333 468.6H88V470.067H205.333V468.6Z" fill="#B2CCFF" mask="url(#path-34-inside-17_822_9919)"/>
<mask id="path-36-inside-18_822_9919" fill="white">
<path d="M205.333 352H322.667V469.333H205.333V352Z"/>
</mask>
<path d="M205.333 352H322.667V469.333H205.333V352Z" fill="white"/>
<path d="M322.667 469.333V470.067H323.4V469.333H322.667ZM321.933 352V469.333H323.4V352H321.933ZM322.667 468.6H205.333V470.067H322.667V468.6Z" fill="#B2CCFF" mask="url(#path-36-inside-18_822_9919)"/>
<mask id="path-38-inside-19_822_9919" fill="white">
<path d="M322.667 352H440V469.333H322.667V352Z"/>
</mask>
<path d="M322.667 352H440V469.333H322.667V352Z" fill="white"/>
<path d="M440 469.333V470.067H440.733V469.333H440ZM439.267 352V469.333H440.733V352H439.267ZM440 468.6H322.667V470.067H440V468.6Z" fill="#B2CCFF" mask="url(#path-38-inside-19_822_9919)"/>
<mask id="path-40-inside-20_822_9919" fill="white">
<path d="M440 352H557.333V469.333H440V352Z"/>
</mask>
<path d="M440 352H557.333V469.333H440V352Z" fill="#EFF4FF"/>
<path d="M557.333 469.333V470.067H558.067V469.333H557.333ZM556.6 352V469.333H558.067V352H556.6ZM557.333 468.6H440V470.067H557.333V468.6Z" fill="#B2CCFF" mask="url(#path-40-inside-20_822_9919)"/>
</g>
</g>
<g filter="url(#filter0_d_822_9919)">
<g clip-path="url(#clip1_822_9919)">
<path d="M32 48C32 39.1634 39.1634 32 48 32H480C488.837 32 496 39.1634 496 48V396H32V48Z" fill="white"/>
<path d="M93.52 100.304C93.52 102.496 91.76 104.032 88.88 104.032C85.984 104.032 84.176 102.48 84 100.048H86.464C86.528 101.312 87.344 102.128 88.832 102.128C90.064 102.128 90.944 101.584 90.944 100.656C90.944 99.936 90.384 99.504 89.408 99.312L87.52 98.944C85.776 98.608 84.432 97.664 84.432 95.76C84.432 93.712 86.24 92.24 88.72 92.24C91.296 92.24 93.184 93.744 93.344 96.144H90.88C90.8 94.944 89.968 94.128 88.752 94.128C87.568 94.128 86.896 94.8 86.896 95.6C86.896 96.384 87.616 96.72 88.448 96.88L90.416 97.28C92.432 97.68 93.52 98.608 93.52 100.304Z" fill="#344054"/>
<path d="M97.3454 99.216V103.872H95.1214V92.384H97.3454V96.448C97.9374 95.664 98.6734 95.168 99.7934 95.168C101.505 95.168 102.689 96.288 102.689 98.352V103.872H100.481V99.104C100.481 97.84 99.9854 97.136 98.9774 97.136C98.0974 97.136 97.3454 97.84 97.3454 99.216Z" fill="#344054"/>
<path d="M109.694 103.872V102.816C109.134 103.616 108.286 104.032 107.118 104.032C105.342 104.032 104.158 102.992 104.158 101.392C104.158 99.728 105.502 98.832 107.998 98.832C108.478 98.832 108.894 98.864 109.422 98.928V98.416C109.422 97.456 108.878 96.896 107.95 96.896C106.99 96.896 106.414 97.456 106.334 98.416H104.334C104.462 96.448 105.886 95.168 107.95 95.168C110.19 95.168 111.502 96.4 111.502 98.496V103.872H109.694ZM106.254 101.328C106.254 102.048 106.766 102.496 107.598 102.496C108.734 102.496 109.422 101.872 109.422 100.88V100.272C108.894 100.192 108.526 100.16 108.142 100.16C106.878 100.16 106.254 100.56 106.254 101.328Z" fill="#344054"/>
<path d="M115.642 99.728V103.872H113.418V95.328H115.466V96.976C116.09 95.888 117.418 95.232 118.794 95.232V97.536C116.906 97.392 115.642 97.84 115.642 99.728Z" fill="#344054"/>
<path d="M123.599 104.016C121.039 104.016 119.327 102.24 119.327 99.568C119.327 97.024 121.103 95.168 123.567 95.168C126.271 95.168 128.063 97.36 127.663 100.144H121.599C121.743 101.536 122.415 102.304 123.551 102.304C124.527 102.304 125.183 101.824 125.439 100.976H127.647C127.167 102.912 125.679 104.016 123.599 104.016ZM123.519 96.8C122.479 96.8 121.823 97.472 121.631 98.736H125.311C125.247 97.552 124.575 96.8 123.519 96.8Z" fill="#344054"/>
<path d="M140.112 103.872H132.688V92.384H135.12V101.68H140.112V103.872Z" fill="#344054"/>
<path d="M144.166 93.344C144.166 94.096 143.558 94.656 142.678 94.656C141.814 94.656 141.206 94.096 141.206 93.344C141.206 92.56 141.814 92 142.678 92C143.558 92 144.166 92.56 144.166 93.344ZM143.814 103.872H141.59V95.328H143.814V103.872Z" fill="#344054"/>
<path d="M148.017 99.216V103.872H145.793V95.328H147.841V96.544C148.465 95.696 149.345 95.168 150.465 95.168C152.177 95.168 153.361 96.288 153.361 98.352V103.872H151.153V99.104C151.153 97.84 150.657 97.136 149.649 97.136C148.769 97.136 148.017 97.84 148.017 99.216Z" fill="#344054"/>
<path d="M157.502 103.872H155.278V92.384H157.502V98.944L160.622 95.328H163.182L159.646 99.424L163.598 103.872H160.766L157.502 99.904V103.872Z" fill="#344054"/>
<rect x="84" y="116.032" width="206" height="10" rx="2" fill="#EAECF0"/>
<rect x="84" y="132.032" width="146" height="10" rx="2" fill="#EAECF0"/>
<g filter="url(#filter1_dd_822_9919)">
<rect x="84" y="158.032" width="360" height="40" rx="10" fill="white"/>
<rect x="100" y="170.032" width="216" height="16" rx="4" fill="#EAECF0"/>
<g clip-path="url(#clip2_822_9919)">
<path d="M342.5 180.532L347.5 175.532" stroke="#155EEF" stroke-width="1.66667" stroke-linecap="round" stroke-linejoin="round"/>
<path d="M344.167 173.032L344.552 172.585C345.334 171.804 346.394 171.365 347.499 171.365C348.604 171.365 349.664 171.804 350.445 172.586C351.227 173.367 351.666 174.427 351.666 175.532C351.665 176.637 351.226 177.697 350.445 178.479L350 178.865" stroke="#155EEF" stroke-width="1.66667" stroke-linecap="round" stroke-linejoin="round"/>
<path d="M345.833 183.032L345.502 183.477C344.712 184.259 343.645 184.697 342.533 184.697C341.421 184.697 340.354 184.259 339.563 183.477C339.174 183.092 338.864 182.633 338.653 182.127C338.442 181.621 338.333 181.079 338.333 180.531C338.333 179.983 338.442 179.44 338.653 178.934C338.864 178.429 339.174 177.97 339.563 177.584L340 177.199" stroke="#155EEF" stroke-width="1.66667" stroke-linecap="round" stroke-linejoin="round"/>
</g>
<path d="M366.488 183.242C363.66 183.242 361.448 180.946 361.448 177.992C361.448 175.052 363.66 172.77 366.488 172.77C369.134 172.77 371.206 174.534 371.556 177.11H369.302C369.064 175.668 367.944 174.674 366.516 174.674C364.794 174.674 363.632 176.032 363.632 177.992C363.632 179.966 364.794 181.338 366.516 181.338C367.944 181.338 369.05 180.33 369.302 178.888H371.556C371.206 181.492 369.134 183.242 366.488 183.242ZM376.178 183.172C374.008 183.172 372.384 181.464 372.384 179.294C372.384 177.11 374.008 175.416 376.178 175.416C378.348 175.416 379.972 177.11 379.972 179.294C379.972 181.464 378.348 183.172 376.178 183.172ZM376.178 181.45C377.144 181.45 377.97 180.68 377.97 179.294C377.97 177.908 377.144 177.152 376.178 177.152C375.212 177.152 374.386 177.908 374.386 179.294C374.386 180.68 375.212 181.45 376.178 181.45ZM388.676 179.294C388.676 181.506 387.374 183.172 385.358 183.172C384.476 183.172 383.72 182.794 383.16 182.066V185.734H381.214V175.556H383.006V176.648C383.58 175.85 384.406 175.416 385.358 175.416C387.374 175.416 388.676 177.096 388.676 179.294ZM386.674 179.294C386.674 177.894 385.876 177.138 384.924 177.138C383.972 177.138 383.174 177.88 383.174 179.294C383.174 180.708 383.972 181.436 384.924 181.436C385.876 181.436 386.674 180.722 386.674 179.294ZM396.397 175.556L392.757 185.734H390.643L391.707 182.948L388.767 175.556H390.867L392.743 180.68L394.451 175.556H396.397ZM406.841 183.032H400.345V172.98H402.473V181.114H406.841V183.032ZM410.388 173.82C410.388 174.478 409.856 174.968 409.086 174.968C408.33 174.968 407.798 174.478 407.798 173.82C407.798 173.134 408.33 172.644 409.086 172.644C409.856 172.644 410.388 173.134 410.388 173.82ZM410.08 183.032H408.134V175.556H410.08V183.032ZM413.757 178.958V183.032H411.811V175.556H413.603V176.62C414.149 175.878 414.919 175.416 415.899 175.416C417.397 175.416 418.433 176.396 418.433 178.202V183.032H416.501V178.86C416.501 177.754 416.067 177.138 415.185 177.138C414.415 177.138 413.757 177.754 413.757 178.958ZM422.056 183.032H420.11V172.98H422.056V178.72L424.786 175.556H427.026L423.932 179.14L427.39 183.032H424.912L422.056 179.56V183.032Z" fill="#155EEF"/>
<rect x="84.5" y="158.532" width="359" height="39" rx="9.5" stroke="#D0D5DD"/>
</g>
<rect x="84" y="226.032" width="360" height="1" fill="#EAECF0"/>
<path d="M86.432 266.904H84V255.416H91.424V257.528H86.432V260.424H90.64V262.52H86.432V266.904Z" fill="#344054"/>
<path d="M96.3965 267.064C93.9165 267.064 92.0605 265.112 92.0605 262.632C92.0605 260.136 93.9165 258.2 96.3965 258.2C98.8765 258.2 100.733 260.136 100.733 262.632C100.733 265.112 98.8765 267.064 96.3965 267.064ZM96.3965 265.096C97.5005 265.096 98.4445 264.216 98.4445 262.632C98.4445 261.048 97.5005 260.184 96.3965 260.184C95.2925 260.184 94.3485 261.048 94.3485 262.632C94.3485 264.216 95.2925 265.096 96.3965 265.096Z" fill="#344054"/>
<path d="M104.376 262.76V266.904H102.152V258.36H104.2V260.008C104.824 258.92 106.152 258.264 107.528 258.264V260.568C105.64 260.424 104.376 260.872 104.376 262.76Z" fill="#344054"/>
<path d="M110.907 266.904H108.683V258.36H110.731V259.576C111.355 258.712 112.155 258.2 113.291 258.2C114.459 258.2 115.355 258.744 115.787 259.72C116.459 258.776 117.323 258.2 118.603 258.2C120.331 258.2 121.499 259.336 121.499 261.384V266.904H119.291V262.088C119.291 260.888 118.779 260.168 117.803 260.168C116.923 260.168 116.203 260.856 116.203 262.136V266.904H113.995V262.088C113.995 260.888 113.483 260.168 112.507 260.168C111.611 260.168 110.907 260.856 110.907 262.136V266.904Z" fill="#344054"/>
<path d="M135.754 263.336C135.754 265.528 133.994 267.064 131.114 267.064C128.218 267.064 126.409 265.512 126.233 263.08H128.698C128.762 264.344 129.577 265.16 131.065 265.16C132.297 265.16 133.177 264.616 133.177 263.688C133.177 262.968 132.618 262.536 131.642 262.344L129.754 261.976C128.01 261.64 126.665 260.696 126.665 258.792C126.665 256.744 128.473 255.272 130.953 255.272C133.529 255.272 135.417 256.776 135.577 259.176H133.114C133.034 257.976 132.202 257.16 130.986 257.16C129.802 257.16 129.13 257.832 129.13 258.632C129.13 259.416 129.85 259.752 130.682 259.912L132.649 260.312C134.665 260.712 135.754 261.64 135.754 263.336Z" fill="#344054"/>
<path d="M142.477 263.304V258.36H144.685V266.904H142.653V265.784C142.189 266.536 141.245 267.064 140.157 267.064C138.445 267.064 137.197 266.024 137.197 263.8V258.36H139.421V263.368C139.421 264.568 140.013 265.096 140.909 265.096C141.709 265.096 142.477 264.456 142.477 263.304Z" fill="#344054"/>
<path d="M155.211 262.632C155.211 265.128 153.723 267.064 151.419 267.064C150.315 267.064 149.387 266.568 148.731 265.672V266.904H146.683V255.416H148.907V259.464C149.531 258.632 150.395 258.2 151.419 258.2C153.723 258.2 155.211 260.104 155.211 262.632ZM152.923 262.632C152.923 261 152.011 260.168 150.923 260.168C149.851 260.168 148.923 260.984 148.923 262.6C148.923 264.216 149.819 265.08 150.923 265.08C152.011 265.08 152.923 264.232 152.923 262.632Z" fill="#344054"/>
<path d="M158.86 266.904H156.636V258.36H158.684V259.576C159.308 258.712 160.108 258.2 161.244 258.2C162.412 258.2 163.308 258.744 163.74 259.72C164.412 258.776 165.276 258.2 166.556 258.2C168.284 258.2 169.452 259.336 169.452 261.384V266.904H167.244V262.088C167.244 260.888 166.732 260.168 165.756 260.168C164.876 260.168 164.156 260.856 164.156 262.136V266.904H161.948V262.088C161.948 260.888 161.436 260.168 160.46 260.168C159.564 260.168 158.86 260.856 158.86 262.136V266.904Z" fill="#344054"/>
<path d="M173.931 256.376C173.931 257.128 173.323 257.688 172.443 257.688C171.579 257.688 170.971 257.128 170.971 256.376C170.971 255.592 171.579 255.032 172.443 255.032C173.323 255.032 173.931 255.592 173.931 256.376ZM173.579 266.904H171.355V258.36H173.579V266.904Z" fill="#344054"/>
<path d="M182.774 264.168C182.774 265.96 181.414 267.064 178.982 267.064C176.55 267.064 175.19 265.896 175.014 263.992H177.142C177.158 264.872 177.91 265.432 179.014 265.432C179.878 265.432 180.534 265.16 180.534 264.552C180.534 264.008 180.182 263.784 179.366 263.624L177.83 263.336C176.294 263.064 175.366 262.216 175.366 260.888C175.366 259.304 176.726 258.2 178.854 258.2C180.998 258.2 182.47 259.336 182.63 261.176H180.502C180.422 260.344 179.798 259.832 178.854 259.832C178.038 259.832 177.494 260.136 177.494 260.68C177.494 261.192 177.846 261.4 178.614 261.544L180.262 261.848C181.926 262.168 182.774 262.936 182.774 264.168Z" fill="#344054"/>
<path d="M191.508 264.168C191.508 265.96 190.148 267.064 187.716 267.064C185.284 267.064 183.924 265.896 183.748 263.992H185.876C185.892 264.872 186.644 265.432 187.748 265.432C188.612 265.432 189.268 265.16 189.268 264.552C189.268 264.008 188.916 263.784 188.1 263.624L186.564 263.336C185.028 263.064 184.1 262.216 184.1 260.888C184.1 259.304 185.46 258.2 187.588 258.2C189.732 258.2 191.204 259.336 191.364 261.176H189.236C189.156 260.344 188.532 259.832 187.588 259.832C186.772 259.832 186.228 260.136 186.228 260.68C186.228 261.192 186.58 261.4 187.348 261.544L188.996 261.848C190.66 262.168 191.508 262.936 191.508 264.168Z" fill="#344054"/>
<path d="M195.603 256.376C195.603 257.128 194.995 257.688 194.115 257.688C193.251 257.688 192.643 257.128 192.643 256.376C192.643 255.592 193.251 255.032 194.115 255.032C194.995 255.032 195.603 255.592 195.603 256.376ZM195.251 266.904H193.027V258.36H195.251V266.904Z" fill="#344054"/>
<path d="M201.006 267.064C198.526 267.064 196.67 265.112 196.67 262.632C196.67 260.136 198.526 258.2 201.006 258.2C203.486 258.2 205.342 260.136 205.342 262.632C205.342 265.112 203.486 267.064 201.006 267.064ZM201.006 265.096C202.11 265.096 203.054 264.216 203.054 262.632C203.054 261.048 202.11 260.184 201.006 260.184C199.902 260.184 198.958 261.048 198.958 262.632C198.958 264.216 199.902 265.096 201.006 265.096Z" fill="#344054"/>
<path d="M208.985 262.248V266.904H206.761V258.36H208.809V259.576C209.433 258.728 210.313 258.2 211.433 258.2C213.145 258.2 214.329 259.32 214.329 261.384V266.904H212.121V262.136C212.121 260.872 211.625 260.168 210.617 260.168C209.737 260.168 208.985 260.872 208.985 262.248Z" fill="#344054"/>
<path d="M223.462 264.168C223.462 265.96 222.101 267.064 219.669 267.064C217.237 267.064 215.877 265.896 215.701 263.992H217.829C217.845 264.872 218.597 265.432 219.701 265.432C220.565 265.432 221.221 265.16 221.221 264.552C221.221 264.008 220.869 263.784 220.053 263.624L218.518 263.336C216.982 263.064 216.053 262.216 216.053 260.888C216.053 259.304 217.413 258.2 219.541 258.2C221.685 258.2 223.157 259.336 223.317 261.176H221.189C221.109 260.344 220.485 259.832 219.541 259.832C218.725 259.832 218.181 260.136 218.181 260.68C218.181 261.192 218.533 261.4 219.301 261.544L220.949 261.848C222.613 262.168 223.462 262.936 223.462 264.168Z" fill="#344054"/>
<g filter="url(#filter2_dd_822_9919)">
<g clip-path="url(#clip3_822_9919)">
<mask id="path-55-inside-21_822_9919" fill="white">
<path d="M84 289.064C84 283.541 88.4772 279.064 94 279.064H434C439.523 279.064 444 283.541 444 289.064V399.064H84V289.064Z"/>
</mask>
<path d="M84 289.064C84 283.541 88.4772 279.064 94 279.064H434C439.523 279.064 444 283.541 444 289.064V399.064H84V289.064Z" fill="white"/>
<mask id="path-57-inside-22_822_9919" fill="white">
<path d="M84 279.064H179V399.064H84V279.064Z"/>
</mask>
<path d="M84 279.064H179V399.064H84V279.064Z" fill="white"/>
<path d="M178 279.064V399.064H180V279.064H178Z" fill="#EAECF0" mask="url(#path-57-inside-22_822_9919)"/>
<mask id="path-59-inside-23_822_9919" fill="white">
<path d="M179 279.064H249V399.064H179V279.064Z"/>
</mask>
<path d="M179 279.064H249V399.064H179V279.064Z" fill="white"/>
<path d="M248 279.064V399.064H250V279.064H248Z" fill="#EAECF0" mask="url(#path-59-inside-23_822_9919)"/>
<mask id="path-61-inside-24_822_9919" fill="white">
<path d="M249 279.064H344V399.064H249V279.064Z"/>
</mask>
<path d="M249 279.064H344V399.064H249V279.064Z" fill="white"/>
<path d="M343 279.064V399.064H345V279.064H343Z" fill="#EAECF0" mask="url(#path-61-inside-24_822_9919)"/>
<mask id="path-63-inside-25_822_9919" fill="white">
<path d="M344 279.064H401V399.064H344V279.064Z"/>
</mask>
<path d="M344 279.064H401V399.064H344V279.064Z" fill="white"/>
<path d="M400 279.064V399.064H402V279.064H400Z" fill="#EAECF0" mask="url(#path-63-inside-25_822_9919)"/>
<mask id="path-65-inside-26_822_9919" fill="white">
<path d="M401 279.064H443V399.064H401V279.064Z"/>
</mask>
<path d="M401 279.064H443V399.064H401V279.064Z" fill="white"/>
<path d="M442 279.064V399.064H444V279.064H442Z" fill="#EAECF0" mask="url(#path-65-inside-26_822_9919)"/>
<mask id="path-67-inside-27_822_9919" fill="white">
<path d="M443 279.064H531V399.064H443V279.064Z"/>
</mask>
<path d="M443 279.064H531V399.064H443V279.064Z" fill="white"/>
<path d="M530 279.064V399.064H532V279.064H530Z" fill="#EAECF0" mask="url(#path-67-inside-27_822_9919)"/>
<rect x="95" y="289.064" width="64" height="8" rx="2" fill="#D1E0FF"/>
<rect x="95" y="318.064" width="72" height="12" rx="2" fill="#EAECF0"/>
<rect x="95" y="339.064" width="55" height="12" rx="2" fill="#EAECF0"/>
<rect x="95" y="360.064" width="66" height="12" rx="2" fill="#EAECF0"/>
<rect x="95" y="381.064" width="43" height="12" rx="2" fill="#EAECF0"/>
<rect x="188" y="289.064" width="36" height="8" rx="2" fill="#D1E0FF"/>
<rect x="258" y="289.064" width="52" height="8" rx="2" fill="#D1E0FF"/>
<rect x="354" y="289.064" width="29" height="8" rx="2" fill="#D1E0FF"/>
<rect x="411" y="289.064" width="20" height="8" rx="2" fill="#D1E0FF"/>
<rect x="84" y="307.032" width="359" height="1" fill="#EAECF0"/>
</g>
<path d="M83 289.064C83 282.989 87.9249 278.064 94 278.064H434C440.075 278.064 445 282.989 445 289.064H443C443 284.093 438.971 280.064 434 280.064H94C89.0294 280.064 85 284.093 85 289.064H83ZM444 399.064H84H444ZM83 399.064V289.064C83 282.989 87.9249 278.064 94 278.064V280.064C89.0294 280.064 85 284.093 85 289.064V399.064H83ZM434 278.064C440.075 278.064 445 282.989 445 289.064V399.064H443V289.064C443 284.093 438.971 280.064 434 280.064V278.064Z" fill="#EAECF0" mask="url(#path-55-inside-21_822_9919)"/>
</g>
<g clip-path="url(#clip4_822_9919)">
<path fill-rule="evenodd" clip-rule="evenodd" d="M404.239 127.067C403.104 126.548 401.86 126.311 400.613 126.374C399.55 126.467 398.53 126.835 397.653 127.44C396.95 127.925 396.322 128.509 395.786 129.174L394.186 128.027C393.778 127.756 393.35 127.515 392.906 127.307C392.319 127.04 391.706 126.854 391.119 126.56C390.533 126.267 389.226 125.92 388.266 125.68H388.053C388.424 124.998 388.6 124.226 388.562 123.45C388.525 122.675 388.275 121.924 387.839 121.28C388.559 121.067 389.279 120.854 389.999 120.56C390.719 120.267 391.119 120.08 391.679 119.814C392.23 119.543 392.764 119.241 393.279 118.907C394.186 118.347 395.013 117.734 395.946 117.147L396.346 117.467C396.633 117.712 396.957 117.91 397.306 118.054C398.042 118.431 398.853 118.64 399.679 118.667C400.115 118.694 400.551 118.694 400.986 118.667C401.191 118.641 401.379 118.538 401.512 118.38C401.645 118.222 401.714 118.02 401.706 117.814C401.699 117.712 401.673 117.613 401.627 117.521C401.582 117.43 401.519 117.349 401.442 117.282C401.366 117.215 401.276 117.164 401.18 117.132C401.083 117.099 400.981 117.086 400.879 117.094C400.533 117.12 400.186 117.12 399.839 117.094C399.525 117.054 399.219 116.964 398.933 116.827L397.679 116C397.556 115.872 397.449 115.728 397.359 115.574C397.359 115.574 397.359 115.574 397.359 115.36L397.199 115.174C397.126 114.927 397.102 114.667 397.13 114.411C397.157 114.155 397.235 113.906 397.359 113.68C397.737 112.999 398.278 112.422 398.933 112C399.502 111.538 400.182 111.235 400.906 111.12C401.688 111.093 402.467 111.22 403.199 111.494C403.856 111.709 404.426 112.13 404.826 112.694C405.064 113.092 405.205 113.541 405.238 114.005C405.27 114.468 405.193 114.932 405.013 115.36C404.837 115.845 404.542 116.277 404.155 116.617C403.768 116.957 403.302 117.195 402.799 117.307C402.684 117.32 402.573 117.356 402.473 117.413C402.372 117.471 402.284 117.548 402.214 117.64C402.144 117.732 402.094 117.838 402.066 117.95C402.039 118.063 402.034 118.179 402.053 118.294C402.086 118.525 402.207 118.734 402.391 118.878C402.575 119.022 402.807 119.09 403.039 119.067C403.863 118.971 404.651 118.679 405.338 118.215C406.025 117.751 406.59 117.129 406.986 116.4C407.419 115.629 407.652 114.762 407.666 113.877C407.68 112.993 407.474 112.119 407.066 111.334C406.459 110.146 405.461 109.203 404.239 108.667C403.106 108.143 401.859 107.914 400.613 108C399.548 108.081 398.525 108.45 397.653 109.067C396.379 109.891 395.385 111.081 394.799 112.48C394.468 113.412 394.468 114.429 394.799 115.36L392.133 116.374L390.453 117.094C389.893 117.36 389.359 117.654 388.826 117.974C388.293 118.294 387.199 119.067 386.426 119.627C385.486 118.949 384.428 118.452 383.306 118.16C381.699 117.767 380.013 117.85 378.453 118.4C377.646 118.694 376.92 119.173 376.332 119.798C375.744 120.423 375.31 121.177 375.066 122C374.862 122.827 374.867 123.692 375.081 124.516C375.296 125.34 375.712 126.098 376.293 126.72C377.262 127.773 378.496 128.547 379.866 128.96C380.936 129.265 382.06 129.323 383.155 129.129C384.25 128.934 385.287 128.494 386.186 127.84C386.41 127.666 386.615 127.469 386.799 127.254L387.013 127.387C387.706 127.787 388.293 128.267 388.959 128.694L389.893 129.227C390.346 129.387 390.773 129.6 391.253 129.76C391.733 129.92 392.479 130.027 393.066 130.24L394.773 130.854C394.407 131.717 394.357 132.681 394.63 133.578C394.902 134.475 395.482 135.247 396.266 135.76C396.56 135.996 396.882 136.193 397.226 136.347C397.555 136.495 397.893 136.62 398.239 136.72C398.682 136.852 399.138 136.932 399.599 136.96C400.034 137 400.471 137 400.906 136.96C401.008 136.954 401.107 136.927 401.198 136.882C401.29 136.836 401.371 136.773 401.438 136.697C401.505 136.62 401.556 136.531 401.588 136.434C401.62 136.337 401.633 136.235 401.626 136.134C401.635 136.024 401.619 135.914 401.58 135.811C401.541 135.709 401.48 135.616 401.401 135.539C401.322 135.463 401.227 135.405 401.123 135.369C401.019 135.334 400.909 135.322 400.799 135.334C400.453 135.36 400.106 135.36 399.759 135.334C399.45 135.269 399.147 135.18 398.853 135.067L397.599 134.24C397.281 133.954 397.072 133.566 397.008 133.143C396.945 132.719 397.032 132.287 397.253 131.92C397.622 131.226 398.164 130.638 398.826 130.214C399.403 129.769 400.081 129.476 400.799 129.36C401.582 129.307 402.367 129.435 403.093 129.734C403.494 129.845 403.865 130.043 404.182 130.313C404.498 130.583 404.752 130.92 404.925 131.298C405.097 131.677 405.185 132.089 405.182 132.505C405.179 132.921 405.085 133.331 404.906 133.707C404.729 134.188 404.433 134.616 404.046 134.951C403.659 135.287 403.194 135.519 402.693 135.627C402.476 135.681 402.286 135.812 402.16 135.997C402.035 136.182 401.982 136.406 402.011 136.628C402.041 136.85 402.152 137.052 402.322 137.197C402.492 137.342 402.709 137.419 402.933 137.414C403.752 137.305 404.535 137.008 405.22 136.545C405.905 136.083 406.473 135.467 406.879 134.747C407.31 133.997 407.552 133.154 407.585 132.29C407.617 131.426 407.439 130.567 407.066 129.787C406.477 128.573 405.475 127.609 404.239 127.067ZM380.506 127.067C379.569 126.656 378.765 125.991 378.186 125.147C377.948 124.811 377.791 124.425 377.727 124.018C377.664 123.611 377.695 123.195 377.819 122.802C377.943 122.41 378.156 122.051 378.442 121.755C378.728 121.458 379.078 121.232 379.466 121.094C380.467 120.735 381.55 120.67 382.586 120.907C383.657 121.065 384.664 121.517 385.493 122.214C387.333 124.107 385.119 129.04 380.506 127.147V127.067Z" fill="#98A2B3"/>
<path fill-rule="evenodd" clip-rule="evenodd" d="M356.96 78.08C356.696 78.0269 356.424 78.0269 356.16 78.08C355.618 77.9738 355.058 78.0008 354.528 78.1587C353.999 78.3167 353.516 78.6008 353.12 78.9867C352 80.6934 352 82 350.213 93.52C349.68 97.12 348.747 100.427 348.107 103.6C347.413 107.173 346.8 110.507 346.08 113.653C345.409 115.979 344.857 118.338 344.427 120.72C344.359 121.108 344.395 121.507 344.531 121.877C344.666 122.247 344.897 122.575 345.2 122.827C347.641 123.772 350.169 124.477 352.747 124.933C359.413 126.4 368.32 127.947 369.84 128.213C369.95 128.237 370.064 128.238 370.175 128.217C370.286 128.196 370.392 128.153 370.486 128.091C370.58 128.029 370.661 127.949 370.724 127.856C370.787 127.762 370.831 127.657 370.853 127.547C370.877 127.436 370.878 127.322 370.857 127.212C370.836 127.101 370.793 126.995 370.731 126.901C370.669 126.807 370.589 126.726 370.496 126.663C370.402 126.6 370.297 126.556 370.187 126.533C368.667 126.213 359.867 124.267 353.307 122.533C351.266 122.052 349.254 121.456 347.28 120.747C347.573 118.773 348.853 114.587 348.907 114.293C349.387 112.107 349.867 109.867 350.267 107.493C351.6 99.7867 352.373 92.72 354.48 82.1867C354.48 82.1867 354.693 80.8534 354.72 80.8267C355.009 80.6163 355.334 80.4625 355.68 80.3734C356.293 80.2134 356.773 80.3734 356.987 80.1867C357.627 79.7067 357.653 78.2667 356.96 78.08Z" fill="#98A2B3"/>
<path fill-rule="evenodd" clip-rule="evenodd" d="M392 98.7467C392.213 97.84 392.373 96.96 392.507 96.08C392.64 95.2 392.773 94.32 392.88 93.4134C393.093 91.4934 393.2 89.4934 393.413 87.0667C393.453 86.9182 393.453 86.7619 393.413 86.6134C393.413 86.6134 393.627 86.4267 393.653 86.2667C393.701 86.0405 393.658 85.8047 393.533 85.6101C393.408 85.4155 393.212 85.2778 392.987 85.2267C392.248 84.8069 391.431 84.5437 390.587 84.4534C389.813 84.4534 388.907 85.7867 389.493 86.4267C389.737 86.7395 390.089 86.9491 390.48 87.0134H391.76C391.227 89.28 390.72 91.2 390.293 93.0134C390.107 93.92 389.92 94.8 389.76 95.68C389.6 96.56 389.467 97.44 389.36 98.3467C389.173 100.24 387.573 107.253 387.413 109.68C387.394 109.778 387.395 109.879 387.416 109.977C387.436 110.075 387.476 110.168 387.534 110.25C387.591 110.332 387.664 110.402 387.749 110.455C387.833 110.508 387.928 110.544 388.027 110.56C388.125 110.579 388.226 110.578 388.324 110.558C388.422 110.537 388.514 110.497 388.597 110.44C388.679 110.383 388.748 110.309 388.802 110.225C388.855 110.14 388.891 110.045 388.907 109.947C389.013 109.227 391.813 99.6 392 98.7467Z" fill="#98A2B3"/>
<path fill-rule="evenodd" clip-rule="evenodd" d="M399.413 84.48C399.184 83.5091 398.748 82.5994 398.133 81.8134C397.495 80.8954 396.612 80.1758 395.583 79.7371C394.555 79.2985 393.424 79.1585 392.32 79.3334H391.333C388.32 78.72 386.133 78.0267 383.147 77.3867C382.08 77.12 380.907 76.9334 379.547 76.6934C378.187 76.4534 376.32 76.08 374.747 75.92C363.36 74.6934 362.96 73.5467 360 76.2134C359.649 76.524 359.343 76.8832 359.093 77.28C357.12 80.4534 356.72 85.9467 352.8 106.613C352.48 108.213 351.493 110.747 351.173 112.987C350.969 114.094 351.015 115.233 351.307 116.32C351.52 116.784 351.842 117.188 352.246 117.5C352.65 117.811 353.124 118.019 353.627 118.107C356.64 118.96 363.653 119.253 369.227 120.347C369.337 120.374 369.452 120.38 369.564 120.362C369.677 120.345 369.785 120.305 369.881 120.246C369.978 120.186 370.062 120.108 370.128 120.015C370.195 119.923 370.242 119.818 370.267 119.707C370.315 119.484 370.276 119.252 370.156 119.058C370.037 118.864 369.847 118.724 369.627 118.667C365.707 117.68 361.04 117.04 357.627 116.373C355.76 116.027 353.28 115.84 353.733 115.28C353.733 115.28 353.893 115.467 353.92 115.573C353.761 114.575 353.834 113.553 354.133 112.587C354.56 110.667 355.28 108.613 355.6 107.253C356.107 104.987 356.72 102.72 357.067 100.427C359.733 82.4267 358.507 84.4267 360.773 79.9467C361.128 79.253 361.557 78.6002 362.053 78C362.734 77.1349 363.665 76.5015 364.72 76.1867C367.04 76.8534 369.333 77.44 371.68 77.8934C374.027 78.3467 376.533 78.7734 379.093 79.2534C382.853 79.7334 385.28 80.24 388 80.64L389.12 80.8C385.867 83.4667 385.947 84.9334 383.44 94.1334C383.2 94.96 383.013 95.76 382.853 96.5867C382.693 97.4134 382.587 98.2134 382.48 99.04C382.213 100.987 380.373 110.427 380.213 112.373C380.194 112.486 380.198 112.6 380.224 112.711C380.25 112.822 380.298 112.926 380.365 113.018C380.433 113.11 380.517 113.188 380.615 113.247C380.712 113.305 380.821 113.344 380.933 113.36C381.156 113.399 381.385 113.347 381.57 113.217C381.755 113.087 381.881 112.889 381.92 112.667C382.4 110.773 384.587 101.44 385.147 99.5734C385.36 98.7734 385.547 97.9467 385.707 97.1467C385.89 96.3366 386.032 95.5178 386.133 94.6934C386.853 88.0267 388.96 83.6267 390.427 82.5334C390.819 82.1822 391.285 81.9216 391.789 81.7699C392.294 81.6182 392.826 81.5791 393.347 81.6554C393.868 81.7317 394.367 81.9215 394.807 82.2114C395.247 82.5014 395.618 82.8844 395.893 83.3334C396.332 83.9451 396.599 84.6634 396.667 85.4134C396.758 86.2999 396.758 87.1935 396.667 88.08C396.667 89.68 396.427 91.36 396.213 92.9867C396.036 94.6708 395.769 96.3443 395.413 98L394.667 101.36C394.587 101.568 394.525 101.782 394.48 102H393.813C393.447 101.977 393.087 101.896 392.747 101.76C391.947 101.76 391.36 102.96 392.747 103.52C393.23 103.781 393.771 103.918 394.32 103.918C394.869 103.918 395.41 103.781 395.893 103.52C396.14 103.4 396.331 103.19 396.427 102.933C396.555 102.569 396.653 102.194 396.72 101.813L397.76 98.6134C398.278 96.9508 398.696 95.2589 399.013 93.5467C399.325 91.844 399.548 90.1261 399.68 88.4C399.77 87.0873 399.68 85.7685 399.413 84.48Z" fill="#528BFF"/>
<path fill-rule="evenodd" clip-rule="evenodd" d="M383.467 88.1867C383.499 88.0781 383.51 87.9642 383.498 87.8515C383.486 87.7388 383.452 87.6296 383.397 87.5303C383.342 87.431 383.269 87.3436 383.18 87.2732C383.091 87.2027 382.989 87.1507 382.88 87.12C380.453 86.2933 378 85.4933 375.493 84.88C374.427 84.6133 373.333 84.4 372.24 84.2133C371.147 84.0267 370.053 83.8933 368.96 83.8133C366.395 83.6359 363.823 83.5914 361.253 83.68C361.142 83.659 361.027 83.6629 360.917 83.6913C360.807 83.7198 360.704 83.7722 360.617 83.8448C360.529 83.9173 360.459 84.0083 360.41 84.1112C360.362 84.2141 360.337 84.3263 360.337 84.44C360.337 84.5537 360.362 84.666 360.41 84.7688C360.459 84.8717 360.529 84.9627 360.617 85.0353C360.704 85.1078 360.807 85.1602 360.917 85.1887C361.027 85.2172 361.142 85.221 361.253 85.2C364.107 85.6 366.907 86.24 369.76 86.7467C371.467 87.04 373.173 87.28 374.853 87.52C377.52 87.92 380 88.2667 382.533 88.8C382.737 88.827 382.943 88.7799 383.114 88.6672C383.286 88.5546 383.411 88.384 383.467 88.1867Z" fill="#528BFF"/>
<path fill-rule="evenodd" clip-rule="evenodd" d="M378.293 96.8267C378.385 96.6175 378.392 96.381 378.312 96.167C378.232 95.9531 378.073 95.7785 377.867 95.68C377.272 95.3745 376.646 95.1332 376 94.96C375.12 94.6667 374.187 94.48 373.333 94.2667C372.48 94.0533 371.973 93.9733 371.28 93.8667C370.246 93.7337 369.203 93.6802 368.16 93.7067C366.398 93.8114 364.654 94.1156 362.96 94.6133C362.862 94.6273 362.768 94.6605 362.682 94.711C362.597 94.7614 362.523 94.8282 362.463 94.9074C362.404 94.9867 362.361 95.0769 362.336 95.1728C362.312 95.2688 362.306 95.3686 362.32 95.4667C362.334 95.5647 362.367 95.659 362.418 95.7443C362.468 95.8295 362.535 95.904 362.614 95.9634C362.693 96.0228 362.784 96.0661 362.88 96.0906C362.976 96.1152 363.075 96.1207 363.173 96.1067C363.84 96.1067 364.48 96.1067 365.147 96.1067C366.48 96.1067 367.813 96.4267 369.04 96.56C370.267 96.6933 371.707 96.56 372.96 96.8267C373.76 96.8267 374.667 96.8267 375.627 96.8267C376.143 96.8678 376.653 96.9662 377.147 97.12C377.34 97.2224 377.565 97.2491 377.777 97.1949C377.989 97.1407 378.173 97.0094 378.293 96.8267Z" fill="#528BFF"/>
<path fill-rule="evenodd" clip-rule="evenodd" d="M371.28 103.333C370.564 103.111 369.834 102.942 369.093 102.827C368.354 102.685 367.605 102.596 366.853 102.56C365.071 102.513 363.288 102.602 361.52 102.827C361.343 102.86 361.183 102.954 361.068 103.093C360.953 103.232 360.89 103.406 360.89 103.587C360.89 103.767 360.953 103.942 361.068 104.08C361.183 104.219 361.343 104.313 361.52 104.347C363.493 104.613 365.28 105.093 367.147 105.44C368.293 105.653 369.387 105.813 370.533 105.973C372.213 106.24 373.92 106.427 375.6 106.8C375.819 106.868 376.056 106.847 376.261 106.742C376.465 106.638 376.62 106.458 376.693 106.24C376.761 106.021 376.74 105.784 376.636 105.58C376.531 105.375 376.351 105.22 376.133 105.147C374.555 104.442 372.934 103.837 371.28 103.333Z" fill="#528BFF"/>
</g>
</g>
</g>
<circle cx="48" cy="48" r="4" fill="#D0D5DD"/>
<circle cx="61" cy="48" r="4" fill="#D0D5DD"/>
<circle cx="74" cy="48" r="4" fill="#D0D5DD"/>
<rect x="452" y="42" width="12" height="12" rx="4" fill="#EAECF0"/>
<rect x="472" y="42" width="12" height="12" rx="4" fill="#EAECF0"/>
</g>
<defs>
<filter id="filter0_d_822_9919" x="-20" y="12" width="568" height="468" filterUnits="userSpaceOnUse" color-interpolation-filters="sRGB">
<feFlood flood-opacity="0" result="BackgroundImageFix"/>
<feColorMatrix in="SourceAlpha" type="matrix" values="0 0 0 0 0 0 0 0 0 0 0 0 0 0 0 0 0 0 127 0" result="hardAlpha"/>
<feMorphology radius="12" operator="erode" in="SourceAlpha" result="effect1_dropShadow_822_9919"/>
<feOffset dy="32"/>
<feGaussianBlur stdDeviation="32"/>
<feColorMatrix type="matrix" values="0 0 0 0 0.0625882 0 0 0 0 0.0926346 0 0 0 0 0.15702 0 0 0 0.14 0"/>
<feBlend mode="normal" in2="BackgroundImageFix" result="effect1_dropShadow_822_9919"/>
<feBlend mode="normal" in="SourceGraphic" in2="effect1_dropShadow_822_9919" result="shape"/>
</filter>
<filter id="filter1_dd_822_9919" x="72" y="158.032" width="384" height="64" filterUnits="userSpaceOnUse" color-interpolation-filters="sRGB">
<feFlood flood-opacity="0" result="BackgroundImageFix"/>
<feColorMatrix in="SourceAlpha" type="matrix" values="0 0 0 0 0 0 0 0 0 0 0 0 0 0 0 0 0 0 127 0" result="hardAlpha"/>
<feMorphology radius="2" operator="erode" in="SourceAlpha" result="effect1_dropShadow_822_9919"/>
<feOffset dy="4"/>
<feGaussianBlur stdDeviation="3"/>
<feColorMatrix type="matrix" values="0 0 0 0 0.0627451 0 0 0 0 0.0941176 0 0 0 0 0.156863 0 0 0 0.03 0"/>
<feBlend mode="normal" in2="BackgroundImageFix" result="effect1_dropShadow_822_9919"/>
<feColorMatrix in="SourceAlpha" type="matrix" values="0 0 0 0 0 0 0 0 0 0 0 0 0 0 0 0 0 0 127 0" result="hardAlpha"/>
<feMorphology radius="4" operator="erode" in="SourceAlpha" result="effect2_dropShadow_822_9919"/>
<feOffset dy="12"/>
<feGaussianBlur stdDeviation="8"/>
<feColorMatrix type="matrix" values="0 0 0 0 0.0627451 0 0 0 0 0.0941176 0 0 0 0 0.156863 0 0 0 0.08 0"/>
<feBlend mode="normal" in2="effect1_dropShadow_822_9919" result="effect2_dropShadow_822_9919"/>
<feBlend mode="normal" in="SourceGraphic" in2="effect2_dropShadow_822_9919" result="shape"/>
</filter>
<filter id="filter2_dd_822_9919" x="64" y="279.064" width="400" height="160" filterUnits="userSpaceOnUse" color-interpolation-filters="sRGB">
<feFlood flood-opacity="0" result="BackgroundImageFix"/>
<feColorMatrix in="SourceAlpha" type="matrix" values="0 0 0 0 0 0 0 0 0 0 0 0 0 0 0 0 0 0 127 0" result="hardAlpha"/>
<feMorphology radius="4" operator="erode" in="SourceAlpha" result="effect1_dropShadow_822_9919"/>
<feOffset dy="8"/>
<feGaussianBlur stdDeviation="4"/>
<feColorMatrix type="matrix" values="0 0 0 0 0.0627451 0 0 0 0 0.0941176 0 0 0 0 0.156863 0 0 0 0.03 0"/>
<feBlend mode="normal" in2="BackgroundImageFix" result="effect1_dropShadow_822_9919"/>
<feColorMatrix in="SourceAlpha" type="matrix" values="0 0 0 0 0 0 0 0 0 0 0 0 0 0 0 0 0 0 127 0" result="hardAlpha"/>
<feMorphology radius="4" operator="erode" in="SourceAlpha" result="effect2_dropShadow_822_9919"/>
<feOffset dy="20"/>
<feGaussianBlur stdDeviation="12"/>
<feColorMatrix type="matrix" values="0 0 0 0 0.0627451 0 0 0 0 0.0941176 0 0 0 0 0.156863 0 0 0 0.08 0"/>
<feBlend mode="normal" in2="effect1_dropShadow_822_9919" result="effect2_dropShadow_822_9919"/>
<feBlend mode="normal" in="SourceGraphic" in2="effect2_dropShadow_822_9919" result="shape"/>
</filter>
<radialGradient id="paint0_radial_822_9919" cx="0" cy="0" r="1" gradientUnits="userSpaceOnUse" gradientTransform="translate(264 -0.000119271) rotate(90) scale(488.521 505.624)">
<stop stop-color="white"/>
<stop offset="0.991144" stop-color="white" stop-opacity="0"/>
</radialGradient>
<clipPath id="clip0_822_9919">
<rect width="528" height="396" fill="white"/>
</clipPath>
<clipPath id="clip1_822_9919">
<path d="M32 48C32 39.1634 39.1634 32 48 32H480C488.837 32 496 39.1634 496 48V396H32V48Z" fill="white"/>
</clipPath>
<clipPath id="clip2_822_9919">
<rect width="20" height="20" fill="white" transform="translate(335 168.032)"/>
</clipPath>
<clipPath id="clip3_822_9919">
<path d="M84 289.064C84 283.541 88.4772 279.064 94 279.064H434C439.523 279.064 444 283.541 444 289.064V399.064H84V289.064Z" fill="white"/>
</clipPath>
<clipPath id="clip4_822_9919">
<rect width="64" height="64" fill="white" transform="translate(344 74)"/>
</clipPath>
</defs>
</svg>
