<svg width="528" height="396" viewBox="0 0 528 396" fill="none" xmlns="http://www.w3.org/2000/svg">
<g clip-path="url(#clip0_822_9784)">
<rect width="528" height="396" fill="#D1E0FF"/>
<g opacity="0.7">
<mask id="mask0_822_9784" style="mask-type:alpha" maskUnits="userSpaceOnUse" x="-264" y="0" width="1056" height="601">
<rect x="-264" y="-6.10352e-05" width="1056" height="601" fill="url(#paint0_radial_822_9784)"/>
</mask>
<g mask="url(#mask0_822_9784)">
<mask id="path-2-inside-1_822_9784" fill="white">
<path d="M-29.3334 -6.10352e-05H88V117.333H-29.3334V-6.10352e-05Z"/>
</mask>
<path d="M-29.3334 -6.10352e-05H88V117.333H-29.3334V-6.10352e-05Z" fill="white"/>
<path d="M88 117.333V118.067H88.7333V117.333H88ZM87.2666 -6.10352e-05V117.333H88.7333V-6.10352e-05H87.2666ZM88 116.6H-29.3334V118.067H88V116.6Z" fill="#B2CCFF" mask="url(#path-2-inside-1_822_9784)"/>
<mask id="path-4-inside-2_822_9784" fill="white">
<path d="M88 -6.10352e-05H205.333V117.333H88V-6.10352e-05Z"/>
</mask>
<path d="M88 -6.10352e-05H205.333V117.333H88V-6.10352e-05Z" fill="white"/>
<path d="M205.333 117.333V118.067H206.067V117.333H205.333ZM204.6 -6.10352e-05V117.333H206.067V-6.10352e-05H204.6ZM205.333 116.6H88V118.067H205.333V116.6Z" fill="#B2CCFF" mask="url(#path-4-inside-2_822_9784)"/>
<mask id="path-6-inside-3_822_9784" fill="white">
<path d="M205.333 -6.10352e-05H322.667V117.333H205.333V-6.10352e-05Z"/>
</mask>
<path d="M205.333 -6.10352e-05H322.667V117.333H205.333V-6.10352e-05Z" fill="white"/>
<path d="M322.667 117.333V118.067H323.4V117.333H322.667ZM321.933 -6.10352e-05V117.333H323.4V-6.10352e-05H321.933ZM322.667 116.6H205.333V118.067H322.667V116.6Z" fill="#B2CCFF" mask="url(#path-6-inside-3_822_9784)"/>
<mask id="path-8-inside-4_822_9784" fill="white">
<path d="M322.667 -6.10352e-05H440V117.333H322.667V-6.10352e-05Z"/>
</mask>
<path d="M322.667 -6.10352e-05H440V117.333H322.667V-6.10352e-05Z" fill="#EFF4FF"/>
<path d="M440 117.333V118.067H440.733V117.333H440ZM439.267 -6.10352e-05V117.333H440.733V-6.10352e-05H439.267ZM440 116.6H322.667V118.067H440V116.6Z" fill="#B2CCFF" mask="url(#path-8-inside-4_822_9784)"/>
<mask id="path-10-inside-5_822_9784" fill="white">
<path d="M440 -6.10352e-05H557.333V117.333H440V-6.10352e-05Z"/>
</mask>
<path d="M440 -6.10352e-05H557.333V117.333H440V-6.10352e-05Z" fill="white"/>
<path d="M557.333 117.333V118.067H558.067V117.333H557.333ZM556.6 -6.10352e-05V117.333H558.067V-6.10352e-05H556.6ZM557.333 116.6H440V118.067H557.333V116.6Z" fill="#B2CCFF" mask="url(#path-10-inside-5_822_9784)"/>
<mask id="path-12-inside-6_822_9784" fill="white">
<path d="M-29.3334 117.333H88V234.667H-29.3334V117.333Z"/>
</mask>
<path d="M-29.3334 117.333H88V234.667H-29.3334V117.333Z" fill="white"/>
<path d="M88 234.667V235.4H88.7333V234.667H88ZM87.2666 117.333V234.667H88.7333V117.333H87.2666ZM88 233.933H-29.3334V235.4H88V233.933Z" fill="#B2CCFF" mask="url(#path-12-inside-6_822_9784)"/>
<mask id="path-14-inside-7_822_9784" fill="white">
<path d="M88 117.333H205.333V234.667H88V117.333Z"/>
</mask>
<path d="M88 117.333H205.333V234.667H88V117.333Z" fill="white"/>
<path d="M205.333 234.667V235.4H206.067V234.667H205.333ZM204.6 117.333V234.667H206.067V117.333H204.6ZM205.333 233.933H88V235.4H205.333V233.933Z" fill="#B2CCFF" mask="url(#path-14-inside-7_822_9784)"/>
<mask id="path-16-inside-8_822_9784" fill="white">
<path d="M205.333 117.333H322.667V234.667H205.333V117.333Z"/>
</mask>
<path d="M205.333 117.333H322.667V234.667H205.333V117.333Z" fill="white"/>
<path d="M322.667 234.667V235.4H323.4V234.667H322.667ZM321.933 117.333V234.667H323.4V117.333H321.933ZM322.667 233.933H205.333V235.4H322.667V233.933Z" fill="#B2CCFF" mask="url(#path-16-inside-8_822_9784)"/>
<mask id="path-18-inside-9_822_9784" fill="white">
<path d="M322.667 117.333H440V234.667H322.667V117.333Z"/>
</mask>
<path d="M322.667 117.333H440V234.667H322.667V117.333Z" fill="white"/>
<path d="M440 234.667V235.4H440.733V234.667H440ZM439.267 117.333V234.667H440.733V117.333H439.267ZM440 233.933H322.667V235.4H440V233.933Z" fill="#B2CCFF" mask="url(#path-18-inside-9_822_9784)"/>
<mask id="path-20-inside-10_822_9784" fill="white">
<path d="M440 117.333H557.333V234.667H440V117.333Z"/>
</mask>
<path d="M440 117.333H557.333V234.667H440V117.333Z" fill="white"/>
<path d="M557.333 234.667V235.4H558.067V234.667H557.333ZM556.6 117.333V234.667H558.067V117.333H556.6ZM557.333 233.933H440V235.4H557.333V233.933Z" fill="#B2CCFF" mask="url(#path-20-inside-10_822_9784)"/>
<mask id="path-22-inside-11_822_9784" fill="white">
<path d="M-29.3334 234.667H88V352H-29.3334V234.667Z"/>
</mask>
<path d="M-29.3334 234.667H88V352H-29.3334V234.667Z" fill="#EFF4FF"/>
<path d="M88 352V352.733H88.7333V352H88ZM87.2666 234.667V352H88.7333V234.667H87.2666ZM88 351.267H-29.3334V352.733H88V351.267Z" fill="#B2CCFF" mask="url(#path-22-inside-11_822_9784)"/>
<mask id="path-24-inside-12_822_9784" fill="white">
<path d="M88 234.667H205.333V352H88V234.667Z"/>
</mask>
<path d="M88 234.667H205.333V352H88V234.667Z" fill="white"/>
<path d="M205.333 352V352.733H206.067V352H205.333ZM204.6 234.667V352H206.067V234.667H204.6ZM205.333 351.267H88V352.733H205.333V351.267Z" fill="#B2CCFF" mask="url(#path-24-inside-12_822_9784)"/>
<mask id="path-26-inside-13_822_9784" fill="white">
<path d="M205.333 234.667H322.667V352H205.333V234.667Z"/>
</mask>
<path d="M205.333 234.667H322.667V352H205.333V234.667Z" fill="white"/>
<path d="M322.667 352V352.733H323.4V352H322.667ZM321.933 234.667V352H323.4V234.667H321.933ZM322.667 351.267H205.333V352.733H322.667V351.267Z" fill="#B2CCFF" mask="url(#path-26-inside-13_822_9784)"/>
<mask id="path-28-inside-14_822_9784" fill="white">
<path d="M322.667 234.667H440V352H322.667V234.667Z"/>
</mask>
<path d="M322.667 234.667H440V352H322.667V234.667Z" fill="white"/>
<path d="M440 352V352.733H440.733V352H440ZM439.267 234.667V352H440.733V234.667H439.267ZM440 351.267H322.667V352.733H440V351.267Z" fill="#B2CCFF" mask="url(#path-28-inside-14_822_9784)"/>
<mask id="path-30-inside-15_822_9784" fill="white">
<path d="M440 234.667H557.333V352H440V234.667Z"/>
</mask>
<path d="M440 234.667H557.333V352H440V234.667Z" fill="white"/>
<path d="M557.333 352V352.733H558.067V352H557.333ZM556.6 234.667V352H558.067V234.667H556.6ZM557.333 351.267H440V352.733H557.333V351.267Z" fill="#B2CCFF" mask="url(#path-30-inside-15_822_9784)"/>
<mask id="path-32-inside-16_822_9784" fill="white">
<path d="M-29.3334 352H88V469.333H-29.3334V352Z"/>
</mask>
<path d="M-29.3334 352H88V469.333H-29.3334V352Z" fill="white"/>
<path d="M88 469.333V470.067H88.7333V469.333H88ZM87.2666 352V469.333H88.7333V352H87.2666ZM88 468.6H-29.3334V470.067H88V468.6Z" fill="#B2CCFF" mask="url(#path-32-inside-16_822_9784)"/>
<mask id="path-34-inside-17_822_9784" fill="white">
<path d="M88 352H205.333V469.333H88V352Z"/>
</mask>
<path d="M88 352H205.333V469.333H88V352Z" fill="white"/>
<path d="M205.333 469.333V470.067H206.067V469.333H205.333ZM204.6 352V469.333H206.067V352H204.6ZM205.333 468.6H88V470.067H205.333V468.6Z" fill="#B2CCFF" mask="url(#path-34-inside-17_822_9784)"/>
<mask id="path-36-inside-18_822_9784" fill="white">
<path d="M205.333 352H322.667V469.333H205.333V352Z"/>
</mask>
<path d="M205.333 352H322.667V469.333H205.333V352Z" fill="white"/>
<path d="M322.667 469.333V470.067H323.4V469.333H322.667ZM321.933 352V469.333H323.4V352H321.933ZM322.667 468.6H205.333V470.067H322.667V468.6Z" fill="#B2CCFF" mask="url(#path-36-inside-18_822_9784)"/>
<mask id="path-38-inside-19_822_9784" fill="white">
<path d="M322.667 352H440V469.333H322.667V352Z"/>
</mask>
<path d="M322.667 352H440V469.333H322.667V352Z" fill="white"/>
<path d="M440 469.333V470.067H440.733V469.333H440ZM439.267 352V469.333H440.733V352H439.267ZM440 468.6H322.667V470.067H440V468.6Z" fill="#B2CCFF" mask="url(#path-38-inside-19_822_9784)"/>
<mask id="path-40-inside-20_822_9784" fill="white">
<path d="M440 352H557.333V469.333H440V352Z"/>
</mask>
<path d="M440 352H557.333V469.333H440V352Z" fill="#EFF4FF"/>
<path d="M557.333 469.333V470.067H558.067V469.333H557.333ZM556.6 352V469.333H558.067V352H556.6ZM557.333 468.6H440V470.067H557.333V468.6Z" fill="#B2CCFF" mask="url(#path-40-inside-20_822_9784)"/>
</g>
</g>
<g filter="url(#filter0_d_822_9784)">
<g clip-path="url(#clip1_822_9784)">
<path d="M32 48C32 39.1634 39.1634 32 48 32H480C488.837 32 496 39.1634 496 48V396H32V48Z" fill="white"/>
<path d="M119.648 105.808H116V88.576H122.744C127.088 88.576 129.608 90.592 129.608 94.168C129.608 96.496 128.168 98.344 125.72 99.16L130.16 105.808H125.816L121.928 99.712H119.648V105.808ZM119.648 91.6V96.712H122.576C124.784 96.712 125.96 95.848 125.96 94.168C125.96 92.464 124.784 91.6 122.576 91.6H119.648Z" fill="#101828"/>
<path d="M145.654 100.456C145.654 103.744 143.014 106.048 138.694 106.048C134.35 106.048 131.638 103.72 131.374 100.072H135.07C135.166 101.968 136.39 103.192 138.622 103.192C140.47 103.192 141.79 102.376 141.79 100.984C141.79 99.904 140.95 99.256 139.486 98.968L136.654 98.416C134.038 97.912 132.022 96.496 132.022 93.64C132.022 90.568 134.734 88.36 138.454 88.36C142.318 88.36 145.15 90.616 145.39 94.216H141.694C141.574 92.416 140.326 91.192 138.502 91.192C136.726 91.192 135.718 92.2 135.718 93.4C135.718 94.576 136.798 95.08 138.046 95.32L140.998 95.92C144.022 96.52 145.654 97.912 145.654 100.456Z" fill="#101828"/>
<path d="M162.426 88.576L156.186 105.808H152.202L146.01 88.576H149.946L154.314 101.56L158.778 88.576H162.426Z" fill="#101828"/>
<path d="M170.758 100.192H168.046V105.808H164.398V88.576H170.758C174.958 88.576 177.574 90.568 177.574 94.312C177.574 98.056 174.958 100.192 170.758 100.192ZM170.734 91.648H168.046V97.12H170.734C172.798 97.12 173.95 96.04 173.95 94.336C173.95 92.632 172.798 91.648 170.734 91.648Z" fill="#101828"/>
<path d="M189.318 105.808H186.006V95.848H183.414V92.992H186.006V92.296C186.006 89.752 187.374 88.312 190.038 88.312C190.854 88.312 191.55 88.456 192.102 88.696V91.336C191.742 91.192 191.262 91.12 190.83 91.12C189.918 91.12 189.318 91.48 189.318 92.368V92.992H192.654V95.848H189.318V105.808Z" fill="#101828"/>
<path d="M199.681 106.048C195.961 106.048 193.177 103.12 193.177 99.4C193.177 95.656 195.961 92.752 199.681 92.752C203.401 92.752 206.185 95.656 206.185 99.4C206.185 103.12 203.401 106.048 199.681 106.048ZM199.681 103.096C201.337 103.096 202.753 101.776 202.753 99.4C202.753 97.024 201.337 95.728 199.681 95.728C198.025 95.728 196.609 97.024 196.609 99.4C196.609 101.776 198.025 103.096 199.681 103.096Z" fill="#101828"/>
<path d="M211.65 99.592V105.808H208.314V92.992H211.386V95.464C212.322 93.832 214.314 92.848 216.378 92.848V96.304C213.546 96.088 211.65 96.76 211.65 99.592Z" fill="#101828"/>
<path d="M231.094 102.568V105.472C230.278 105.88 229.51 106.048 228.526 106.048C225.886 106.048 224.23 104.536 224.23 101.656V95.848H221.638V92.992H224.23V89.2H227.542V92.992H231.214V95.848H227.542V100.888C227.542 102.376 228.214 102.976 229.414 102.976C230.038 102.976 230.614 102.832 231.094 102.568Z" fill="#101828"/>
<path d="M236.587 98.824V105.808H233.251V88.576H236.587V94.672C237.475 93.496 238.579 92.752 240.259 92.752C242.827 92.752 244.603 94.432 244.603 97.528V105.808H241.291V98.656C241.291 96.76 240.547 95.704 239.035 95.704C237.715 95.704 236.587 96.76 236.587 98.824Z" fill="#101828"/>
<path d="M253.046 106.024C249.206 106.024 246.638 103.36 246.638 99.352C246.638 95.536 249.302 92.752 252.998 92.752C257.054 92.752 259.742 96.04 259.142 100.216H250.046C250.262 102.304 251.27 103.456 252.974 103.456C254.438 103.456 255.422 102.736 255.806 101.464H259.118C258.398 104.368 256.166 106.024 253.046 106.024ZM252.926 95.2C251.366 95.2 250.382 96.208 250.094 98.104H255.614C255.518 96.328 254.51 95.2 252.926 95.2Z" fill="#101828"/>
<path d="M279.76 105.808L276.544 93.76L273.328 105.808H269.632L265.216 88.576H268.768L271.552 100.264L274.72 88.576H278.44L281.512 100.312L284.32 88.576H287.896L283.456 105.808H279.76Z" fill="#101828"/>
<path d="M294.225 106.024C290.385 106.024 287.817 103.36 287.817 99.352C287.817 95.536 290.481 92.752 294.177 92.752C298.233 92.752 300.921 96.04 300.321 100.216H291.225C291.441 102.304 292.449 103.456 294.153 103.456C295.617 103.456 296.601 102.736 296.985 101.464H300.297C299.577 104.368 297.345 106.024 294.225 106.024ZM294.105 95.2C292.545 95.2 291.561 96.208 291.273 98.104H296.793C296.697 96.328 295.689 95.2 294.105 95.2Z" fill="#101828"/>
<path d="M301.481 99.4C301.481 95.608 303.713 92.752 307.169 92.752C308.705 92.752 310.001 93.424 310.961 94.648V88.576H314.273V105.808H311.225V103.96C310.217 105.304 308.825 106.048 307.169 106.048C303.713 106.048 301.481 103.144 301.481 99.4ZM304.913 99.4C304.913 101.8 306.281 103.072 307.913 103.072C309.569 103.072 310.937 101.776 310.937 99.352C310.937 96.928 309.545 95.704 307.913 95.704C306.281 95.704 304.913 96.952 304.913 99.4Z" fill="#101828"/>
<path d="M316.411 99.4C316.411 95.608 318.643 92.752 322.099 92.752C323.635 92.752 324.931 93.424 325.891 94.648V88.576H329.203V105.808H326.155V103.96C325.147 105.304 323.755 106.048 322.099 106.048C318.643 106.048 316.411 103.144 316.411 99.4ZM319.843 99.4C319.843 101.8 321.211 103.072 322.843 103.072C324.499 103.072 325.867 101.776 325.867 99.352C325.867 96.928 324.475 95.704 322.843 95.704C321.211 95.704 319.843 96.952 319.843 99.4Z" fill="#101828"/>
<path d="M336.045 90.016C336.045 91.144 335.133 91.984 333.813 91.984C332.517 91.984 331.605 91.144 331.605 90.016C331.605 88.84 332.517 88 333.813 88C335.133 88 336.045 88.84 336.045 90.016ZM335.517 105.808H332.181V92.992H335.517V105.808Z" fill="#101828"/>
<path d="M341.821 98.824V105.808H338.485V92.992H341.557V94.816C342.493 93.544 343.813 92.752 345.493 92.752C348.061 92.752 349.837 94.432 349.837 97.528V105.808H346.525V98.656C346.525 96.76 345.781 95.704 344.269 95.704C342.949 95.704 341.821 96.76 341.821 98.824Z" fill="#101828"/>
<path d="M358.16 110.68C354.704 110.68 352.4 108.808 352.256 105.856H355.472C355.616 107.32 356.552 108.088 358.136 108.088C359.984 108.088 360.944 107.104 360.944 105.256V103.384C360.248 104.608 358.928 105.328 357.368 105.328C354.224 105.328 351.872 102.664 351.872 99.04C351.872 95.32 354.08 92.752 357.248 92.752C358.976 92.752 360.272 93.424 361.208 94.744V92.992H364.256V105.208C364.256 108.616 361.952 110.68 358.16 110.68ZM355.208 99.04C355.208 101.128 356.288 102.448 358.016 102.448C359.768 102.448 360.92 101.08 360.92 99.064C360.92 96.976 359.768 95.632 358.016 95.632C356.312 95.632 355.208 96.952 355.208 99.04Z" fill="#101828"/>
<path d="M377.946 106.048C374.226 106.048 371.442 103.12 371.442 99.4C371.442 95.656 374.226 92.752 377.946 92.752C381.666 92.752 384.45 95.656 384.45 99.4C384.45 103.12 381.666 106.048 377.946 106.048ZM377.946 103.096C379.602 103.096 381.018 101.776 381.018 99.4C381.018 97.024 379.602 95.728 377.946 95.728C376.29 95.728 374.874 97.024 374.874 99.4C374.874 101.776 376.29 103.096 377.946 103.096Z" fill="#101828"/>
<path d="M390.764 105.808H387.452V95.848H384.86V92.992H387.452V92.296C387.452 89.752 388.82 88.312 391.484 88.312C392.3 88.312 392.996 88.456 393.548 88.696V91.336C393.188 91.192 392.708 91.12 392.276 91.12C391.364 91.12 390.764 91.48 390.764 92.368V92.992H394.1V95.848H390.764V105.808Z" fill="#101828"/>
<path d="M122.36 128.192H119.648V133.808H116V116.576H122.36C126.56 116.576 129.176 118.568 129.176 122.312C129.176 126.056 126.56 128.192 122.36 128.192ZM122.336 119.648H119.648V125.12H122.336C124.4 125.12 125.552 124.04 125.552 122.336C125.552 120.632 124.4 119.648 122.336 119.648Z" fill="#101828"/>
<path d="M138.766 133.808V132.224C137.926 133.424 136.654 134.048 134.902 134.048C132.238 134.048 130.462 132.488 130.462 130.088C130.462 127.592 132.478 126.248 136.222 126.248C136.942 126.248 137.566 126.296 138.358 126.392V125.624C138.358 124.184 137.542 123.344 136.15 123.344C134.71 123.344 133.846 124.184 133.726 125.624H130.726C130.918 122.672 133.054 120.752 136.15 120.752C139.51 120.752 141.478 122.6 141.478 125.744V133.808H138.766ZM133.606 129.992C133.606 131.072 134.374 131.744 135.622 131.744C137.326 131.744 138.358 130.808 138.358 129.32V128.408C137.566 128.288 137.014 128.24 136.438 128.24C134.542 128.24 133.606 128.84 133.606 129.992Z" fill="#101828"/>
<path d="M152.153 128.408V120.992H155.465V133.808H152.417V132.128C151.721 133.256 150.305 134.048 148.673 134.048C146.105 134.048 144.233 132.488 144.233 129.152V120.992H147.569V128.504C147.569 130.304 148.457 131.096 149.801 131.096C151.001 131.096 152.153 130.136 152.153 128.408Z" fill="#101828"/>
<path d="M161.822 133.808H158.462V116.576H161.822V133.808Z" fill="#101828"/>
<path d="M177.461 133.808V132.224C176.621 133.424 175.349 134.048 173.597 134.048C170.933 134.048 169.157 132.488 169.157 130.088C169.157 127.592 171.173 126.248 174.917 126.248C175.637 126.248 176.261 126.296 177.053 126.392V125.624C177.053 124.184 176.237 123.344 174.845 123.344C173.405 123.344 172.541 124.184 172.421 125.624H169.421C169.613 122.672 171.749 120.752 174.845 120.752C178.205 120.752 180.173 122.6 180.173 125.744V133.808H177.461ZM172.301 129.992C172.301 131.072 173.069 131.744 174.317 131.744C176.021 131.744 177.053 130.808 177.053 129.32V128.408C176.261 128.288 175.709 128.24 175.133 128.24C173.237 128.24 172.301 128.84 172.301 129.992Z" fill="#101828"/>
<path d="M186.384 126.824V133.808H183.048V120.992H186.12V122.816C187.056 121.544 188.376 120.752 190.056 120.752C192.624 120.752 194.4 122.432 194.4 125.528V133.808H191.088V126.656C191.088 124.76 190.344 123.704 188.832 123.704C187.512 123.704 186.384 124.76 186.384 126.824Z" fill="#101828"/>
<path d="M196.435 127.4C196.435 123.608 198.666 120.752 202.122 120.752C203.658 120.752 204.954 121.424 205.914 122.648V116.576H209.227V133.808H206.178V131.96C205.17 133.304 203.778 134.048 202.122 134.048C198.666 134.048 196.435 131.144 196.435 127.4ZM199.867 127.4C199.867 129.8 201.235 131.072 202.867 131.072C204.523 131.072 205.891 129.776 205.891 127.352C205.891 124.928 204.499 123.704 202.867 123.704C201.235 123.704 199.867 124.952 199.867 127.4Z" fill="#101828"/>
<path d="M225.332 133.808L220.82 122.36V133.808H217.508V116.576H221.876L226.868 129.344L231.884 116.576H236.252V133.808H232.94V122.264L228.38 133.808H225.332Z" fill="#101828"/>
<path d="M247.117 133.808V132.224C246.277 133.424 245.005 134.048 243.253 134.048C240.589 134.048 238.813 132.488 238.813 130.088C238.813 127.592 240.829 126.248 244.573 126.248C245.293 126.248 245.917 126.296 246.709 126.392V125.624C246.709 124.184 245.893 123.344 244.501 123.344C243.061 123.344 242.197 124.184 242.077 125.624H239.077C239.269 122.672 241.405 120.752 244.501 120.752C247.861 120.752 249.829 122.6 249.829 125.744V133.808H247.117ZM241.957 129.992C241.957 131.072 242.725 131.744 243.973 131.744C245.677 131.744 246.709 130.808 246.709 129.32V128.408C245.917 128.288 245.365 128.24 244.789 128.24C242.893 128.24 241.957 128.84 241.957 129.992Z" fill="#101828"/>
<path d="M256.04 127.592V133.808H252.704V120.992H255.776V123.464C256.712 121.832 258.704 120.848 260.768 120.848V124.304C257.936 124.088 256.04 124.76 256.04 127.592Z" fill="#101828"/>
<path d="M266.365 118.016C266.365 119.144 265.453 119.984 264.133 119.984C262.837 119.984 261.925 119.144 261.925 118.016C261.925 116.84 262.837 116 264.133 116C265.453 116 266.365 116.84 266.365 118.016ZM265.837 133.808H262.501V120.992H265.837V133.808Z" fill="#101828"/>
<path d="M274.47 134.048C270.75 134.048 267.966 131.12 267.966 127.4C267.966 123.656 270.75 120.752 274.47 120.752C278.19 120.752 280.974 123.656 280.974 127.4C280.974 131.12 278.19 134.048 274.47 134.048ZM274.47 131.096C276.126 131.096 277.542 129.776 277.542 127.4C277.542 125.024 276.126 123.728 274.47 123.728C272.814 123.728 271.398 125.024 271.398 127.4C271.398 129.776 272.814 131.096 274.47 131.096Z" fill="#101828"/>
<path d="M286.439 126.824V133.808H283.103V120.992H286.175V122.816C287.111 121.544 288.431 120.752 290.111 120.752C292.679 120.752 294.455 122.432 294.455 125.528V133.808H291.143V126.656C291.143 124.76 290.399 123.704 288.887 123.704C287.567 123.704 286.439 124.76 286.439 126.824Z" fill="#101828"/>
<rect x="116" y="150.048" width="206" height="10" rx="2" fill="#D1E0FF"/>
<rect x="116" y="168.048" width="146" height="10" rx="2" fill="#D1E0FF"/>
<g filter="url(#filter1_dd_822_9784)">
<rect x="116" y="210.048" width="296" height="40" rx="10" fill="white"/>
<rect x="132" y="222.048" width="140" height="16" rx="4" fill="#EAECF0"/>
<rect x="116.5" y="210.548" width="295" height="39" rx="9.5" stroke="#D0D5DD"/>
</g>
<g filter="url(#filter2_dd_822_9784)">
<rect x="116" y="266.048" width="296" height="40" rx="10" fill="white"/>
<rect x="132" y="278.048" width="174" height="16" rx="4" fill="#EAECF0"/>
<g clip-path="url(#clip2_822_9784)">
<path d="M385.334 284.048L388 281.381L390.667 284.048" stroke="#98A2B3" stroke-width="1.33333" stroke-linecap="round" stroke-linejoin="round"/>
<path d="M390.667 288.048L388 290.715L385.334 288.048" stroke="#98A2B3" stroke-width="1.33333" stroke-linecap="round" stroke-linejoin="round"/>
</g>
<rect x="116.5" y="266.548" width="295" height="39" rx="9.5" stroke="#D0D5DD"/>
</g>
<g filter="url(#filter3_dd_822_9784)">
<rect x="116" y="322.048" width="296" height="90" rx="10" fill="white"/>
<rect x="132" y="334.048" width="230" height="16" rx="4" fill="#EAECF0"/>
<rect x="132" y="358.048" width="126" height="16" rx="4" fill="#EAECF0"/>
<rect x="116.5" y="322.548" width="295" height="89" rx="9.5" stroke="#D0D5DD"/>
</g>
<g clip-path="url(#clip3_822_9784)">
<path fill-rule="evenodd" clip-rule="evenodd" d="M403.507 162C400.859 161.473 398.109 161.969 395.813 163.39C393.516 164.81 391.844 167.048 391.133 169.653C390.725 170.984 390.59 172.383 390.736 173.767C390.882 175.151 391.307 176.491 391.984 177.707C392.662 178.923 393.578 179.989 394.679 180.841C395.779 181.693 397.04 182.314 398.387 182.667C400.187 183.167 402.075 183.267 403.918 182.958C405.761 182.649 407.514 181.94 409.053 180.88C410.503 179.69 411.632 178.157 412.34 176.42C413.048 174.683 413.311 172.798 413.107 170.933C412.975 169.044 412.236 167.248 411 165.813C409.763 164.429 408.104 163.491 406.28 163.147C406.05 163.12 405.819 163.18 405.631 163.314C405.443 163.448 405.311 163.647 405.262 163.873C405.212 164.098 405.247 164.334 405.362 164.535C405.476 164.736 405.661 164.887 405.88 164.96C407.275 165.312 408.514 166.119 409.4 167.253C410.26 168.381 410.737 169.755 410.76 171.173C410.867 172.619 410.616 174.068 410.03 175.393C409.444 176.719 408.541 177.88 407.4 178.773C406.166 179.537 404.781 180.026 403.34 180.206C401.9 180.385 400.437 180.251 399.053 179.813C398.074 179.564 397.155 179.12 396.351 178.507C395.548 177.893 394.877 177.124 394.378 176.244C393.88 175.365 393.565 174.394 393.452 173.39C393.339 172.385 393.43 171.368 393.72 170.4C394.183 168.268 395.443 166.394 397.243 165.159C399.042 163.925 401.244 163.425 403.4 163.76C403.507 163.771 403.616 163.76 403.719 163.728C403.821 163.696 403.917 163.644 403.999 163.574C404.081 163.504 404.149 163.419 404.197 163.322C404.245 163.226 404.273 163.121 404.28 163.013C404.319 162.894 404.329 162.767 404.308 162.643C404.287 162.52 404.236 162.403 404.16 162.303C404.084 162.203 403.985 162.124 403.871 162.071C403.757 162.018 403.632 161.994 403.507 162Z" fill="#98A2B3"/>
<path fill-rule="evenodd" clip-rule="evenodd" d="M388.707 194.347C388.97 192.686 389.68 191.128 390.76 189.84C391.568 188.808 392.46 187.845 393.427 186.96C394.351 185.994 395.349 185.102 396.413 184.293L398.387 183.04C398.501 183.002 398.607 182.94 398.697 182.859C398.787 182.778 398.859 182.68 398.909 182.57C398.959 182.459 398.986 182.34 398.988 182.219C398.99 182.098 398.967 181.978 398.92 181.867C398.876 181.747 398.808 181.637 398.72 181.545C398.632 181.452 398.526 181.378 398.409 181.328C398.291 181.278 398.165 181.253 398.037 181.254C397.91 181.255 397.783 181.282 397.667 181.333L395.16 182.32C393.791 182.957 392.502 183.753 391.32 184.693C390.516 185.345 389.799 186.098 389.187 186.933C387.517 189.044 386.733 191.722 387 194.4C387.013 194.612 387.105 194.812 387.258 194.96C387.411 195.108 387.614 195.194 387.827 195.2C387.942 195.208 388.057 195.191 388.166 195.151C388.274 195.111 388.373 195.049 388.456 194.969C388.539 194.888 388.604 194.791 388.647 194.684C388.69 194.577 388.711 194.462 388.707 194.347Z" fill="#98A2B3"/>
<path fill-rule="evenodd" clip-rule="evenodd" d="M406.013 182.96C406.419 183.208 406.787 183.514 407.107 183.867C407.827 184.56 408.493 185.387 408.787 185.68C409.517 186.345 410.203 187.058 410.84 187.813C411.484 188.5 412.056 189.25 412.547 190.053C413.221 191.17 413.691 192.398 413.933 193.68C413.936 193.803 413.965 193.924 414.017 194.035C414.069 194.146 414.144 194.245 414.237 194.325C414.33 194.406 414.439 194.466 414.557 194.502C414.674 194.537 414.798 194.548 414.92 194.533C415.042 194.527 415.161 194.496 415.27 194.442C415.379 194.388 415.476 194.313 415.556 194.221C415.636 194.129 415.696 194.022 415.733 193.906C415.771 193.79 415.784 193.668 415.773 193.547C415.871 191.547 415.458 189.556 414.573 187.76C413.998 186.678 413.24 185.704 412.333 184.88C411.748 184.386 411.124 183.94 410.467 183.547C410.04 183.28 408.92 182.533 407.8 182.027C407.375 181.764 406.918 181.557 406.44 181.413C406.241 181.363 406.031 181.389 405.85 181.485C405.669 181.581 405.531 181.741 405.461 181.934C405.391 182.126 405.396 182.338 405.473 182.527C405.55 182.717 405.695 182.871 405.88 182.96H406.013Z" fill="#98A2B3"/>
<path fill-rule="evenodd" clip-rule="evenodd" d="M405.747 170.427C406.568 171.331 407.46 172.169 408.413 172.933C408.498 173.021 408.599 173.091 408.712 173.139C408.824 173.187 408.945 173.211 409.067 173.211C409.189 173.211 409.309 173.187 409.422 173.139C409.534 173.091 409.635 173.021 409.72 172.933C409.885 172.756 409.977 172.522 409.977 172.28C409.977 172.038 409.885 171.804 409.72 171.627C408.84 170.693 407.827 168.96 407.053 168.133C406.802 167.826 406.469 167.595 406.093 167.467C405.723 167.334 405.317 167.334 404.947 167.467C404.49 167.645 404.052 167.868 403.64 168.133L400.68 169.813C399.874 170.383 398.97 170.799 398.013 171.04C396.955 171.291 395.874 171.434 394.787 171.467C394.679 171.456 394.571 171.466 394.468 171.498C394.365 171.53 394.27 171.583 394.188 171.652C394.105 171.722 394.038 171.808 393.99 171.904C393.942 172.001 393.913 172.106 393.907 172.213C393.892 172.428 393.962 172.641 394.101 172.805C394.241 172.97 394.439 173.073 394.653 173.093C396.123 173.415 397.634 173.514 399.133 173.387C400.184 173.271 401.209 172.992 402.173 172.56L405.24 170.72C405.376 170.613 405.518 170.515 405.667 170.427H405.747Z" fill="#98A2B3"/>
<path fill-rule="evenodd" clip-rule="evenodd" d="M400.893 192.88C400.881 192.933 400.881 192.987 400.893 193.04C401.053 193.653 401.453 193.787 401.827 193.68C401.923 193.699 402.023 193.698 402.119 193.677C402.215 193.656 402.306 193.616 402.386 193.558C402.466 193.501 402.534 193.427 402.584 193.343C402.635 193.258 402.667 193.164 402.68 193.067C402.693 193.005 402.693 192.942 402.68 192.88C402.689 192.711 402.689 192.542 402.68 192.373L403 191.28C403 190.64 403.293 190.053 403.347 189.387C403.333 188.735 403.28 188.085 403.187 187.44L403 185.973C403 185.973 403 185.52 402.84 185.36C402.866 185.255 402.866 185.145 402.84 185.04C402.84 184.88 401.533 184.24 401.24 185.36C401.24 185.52 401.24 185.947 401.08 186.027L400.707 187.44C400.587 188.074 400.507 188.716 400.467 189.36C400.503 190.024 400.592 190.684 400.733 191.333L400.973 192.48C400.964 192.622 400.964 192.765 400.973 192.907L400.893 192.88Z" fill="#528BFF"/>
<path fill-rule="evenodd" clip-rule="evenodd" d="M437.56 169.04C437.987 169.04 438.253 169.04 437.907 168.64C437.56 168.24 437.667 168.853 437.667 169.04H437.56ZM436.52 170.16C436.737 170.463 436.977 170.749 437.24 171.013C437.905 171.605 438.619 172.14 439.373 172.613C440.192 173.098 441.098 173.415 442.04 173.547C442.157 173.579 442.28 173.586 442.4 173.57C442.521 173.554 442.637 173.513 442.741 173.451C442.846 173.389 442.937 173.306 443.009 173.208C443.081 173.11 443.132 172.998 443.16 172.88C443.216 172.64 443.175 172.387 443.045 172.177C442.915 171.967 442.707 171.817 442.467 171.76C441.948 171.593 441.462 171.341 441.027 171.013C440.34 170.485 439.737 169.856 439.24 169.147C439.037 168.85 438.876 168.527 438.76 168.187C438.626 167.909 438.536 167.612 438.493 167.307C438.471 167.079 438.397 166.86 438.277 166.666C438.157 166.472 437.994 166.308 437.8 166.187C437.527 165.981 437.195 165.87 436.853 165.87C436.512 165.87 436.18 165.981 435.907 166.187L435.267 166.907L433.427 168.693C432.867 169.173 432.307 169.653 431.667 170.107C431.303 170.404 430.91 170.663 430.493 170.88L429.053 171.52L427.8 171.947C427.609 172.039 427.463 172.203 427.393 172.403C427.323 172.603 427.335 172.822 427.427 173.013C427.47 173.114 427.533 173.204 427.612 173.279C427.691 173.354 427.785 173.412 427.887 173.449C427.989 173.487 428.098 173.503 428.207 173.497C428.316 173.49 428.423 173.462 428.52 173.413H429.533L431.24 173.067C431.971 172.884 432.679 172.616 433.347 172.267C433.977 171.961 434.591 171.623 435.187 171.253C435.559 171.01 435.916 170.743 436.253 170.453L436.52 170.16Z" fill="#98A2B3"/>
<path fill-rule="evenodd" clip-rule="evenodd" d="M422.04 194.427C422.142 193.707 422.348 193.006 422.653 192.347C423.133 191.3 423.695 190.292 424.333 189.333C424.799 188.426 425.382 187.583 426.067 186.827C426.51 186.312 426.982 185.822 427.48 185.36C428.363 184.579 429.35 183.923 430.413 183.413L431.773 182.88C431.993 182.807 432.177 182.656 432.292 182.455C432.406 182.254 432.442 182.018 432.392 181.793C432.342 181.567 432.21 181.368 432.022 181.234C431.834 181.1 431.603 181.04 431.373 181.067L429.693 181.413C427.95 181.832 426.314 182.613 424.893 183.707C423.512 184.88 422.41 186.347 421.667 188C421.223 189.199 420.867 190.429 420.6 191.68C420.418 192.556 420.364 193.455 420.44 194.347C420.418 194.466 420.423 194.588 420.454 194.705C420.485 194.822 420.541 194.931 420.619 195.024C420.696 195.117 420.793 195.192 420.903 195.243C421.013 195.295 421.132 195.321 421.253 195.321C421.374 195.321 421.494 195.295 421.604 195.243C421.713 195.192 421.811 195.117 421.888 195.024C421.966 194.931 422.022 194.822 422.053 194.705C422.084 194.588 422.088 194.466 422.067 194.347L422.04 194.427Z" fill="#98A2B3"/>
<path fill-rule="evenodd" clip-rule="evenodd" d="M441.747 183.04C443.053 183.932 444.206 185.031 445.16 186.293C445.824 187.078 446.448 187.897 447.027 188.747C448.052 190.105 448.771 191.67 449.133 193.333C449.147 193.576 449.255 193.804 449.435 193.968C449.614 194.133 449.85 194.221 450.093 194.213C450.329 194.213 450.556 194.122 450.725 193.957C450.895 193.793 450.993 193.569 451 193.333C451.093 191.503 450.755 189.676 450.013 188C449.681 187.278 449.28 186.59 448.813 185.947C448.344 185.313 447.807 184.732 447.213 184.213C445.829 182.954 444.166 182.04 442.36 181.547C442.26 181.508 442.154 181.491 442.047 181.494C441.941 181.498 441.836 181.523 441.739 181.567C441.642 181.612 441.555 181.676 441.483 181.755C441.411 181.834 441.356 181.926 441.32 182.027C441.248 182.218 441.252 182.43 441.332 182.618C441.411 182.807 441.56 182.958 441.747 183.04Z" fill="#98A2B3"/>
<path fill-rule="evenodd" clip-rule="evenodd" d="M435.48 190.16C435.48 190.16 435.213 190.16 435.24 190.16C435.267 190.16 435.347 190.267 435.48 190.16ZM435.8 189.787C434.68 188.453 432.707 186.16 431.427 184.747C431.366 184.661 431.288 184.587 431.199 184.531C431.109 184.475 431.01 184.438 430.906 184.42C430.801 184.403 430.695 184.406 430.592 184.43C430.489 184.454 430.392 184.498 430.307 184.56C430.131 184.688 430.013 184.88 429.978 185.095C429.943 185.31 429.994 185.529 430.12 185.707C430.92 187.093 431.96 189.28 432.787 190.827C433.038 191.26 433.314 191.679 433.613 192.08C433.817 192.399 434.087 192.671 434.404 192.878C434.721 193.085 435.079 193.222 435.453 193.28C435.921 193.246 436.372 193.09 436.76 192.827C437.232 192.508 437.662 192.132 438.04 191.707C438.525 191.18 438.97 190.618 439.373 190.027C440.227 188.827 441.133 187.36 442.04 186.24C442.205 186.062 442.297 185.829 442.297 185.587C442.297 185.344 442.205 185.111 442.04 184.933C441.866 184.762 441.631 184.667 441.387 184.667C441.142 184.667 440.908 184.762 440.733 184.933L436.067 189.467L435.8 189.787Z" fill="#528BFF"/>
<path fill-rule="evenodd" clip-rule="evenodd" d="M436.627 162.853C436.284 162.709 435.926 162.601 435.56 162.533C435.262 162.467 434.952 162.467 434.653 162.533C434.455 162.598 434.288 162.736 434.186 162.919C434.085 163.102 434.057 163.317 434.108 163.52C434.159 163.723 434.284 163.899 434.46 164.013C434.635 164.127 434.847 164.17 435.053 164.133L436.707 164.587L438.227 164.213C438.51 164.186 438.796 164.186 439.08 164.213C439.377 164.255 439.671 164.318 439.96 164.4C440.685 164.62 441.343 165.019 441.874 165.56C442.405 166.1 442.792 166.765 443 167.493C443.853 170 443.56 173.2 444.173 175.76C444.409 176.568 444.86 177.297 445.48 177.867C445.827 178.24 446.173 178.907 446.52 179.307C445.993 179.413 445.458 179.475 444.92 179.493C443.775 179.555 442.628 179.466 441.507 179.227C441.267 179.151 441.013 179.136 440.767 179.182C440.52 179.229 440.289 179.336 440.093 179.493C438.75 180.351 437.18 180.787 435.587 180.747C434.861 180.863 434.12 180.828 433.409 180.645C432.697 180.461 432.032 180.133 431.453 179.68C431.273 179.482 431.049 179.328 430.799 179.231C430.549 179.133 430.28 179.096 430.013 179.12C429.587 179.12 427.987 179.413 428.227 179.893C427.54 180.03 426.833 180.03 426.147 179.893C425.716 179.862 425.301 179.714 424.947 179.467C425.017 179.336 425.097 179.212 425.187 179.093C425.613 178.667 426.147 178.213 426.6 177.733C427.167 177.192 427.581 176.512 427.8 175.76C428.098 173 428.588 170.265 429.267 167.573C429.544 166.826 430 166.159 430.595 165.629C431.19 165.099 431.906 164.723 432.68 164.533C432.884 164.445 433.05 164.288 433.148 164.089C433.246 163.889 433.27 163.662 433.215 163.447C433.161 163.231 433.031 163.043 432.85 162.914C432.669 162.786 432.448 162.727 432.227 162.747C431.152 162.965 430.147 163.444 429.301 164.141C428.455 164.839 427.793 165.733 427.373 166.747C426.533 169.499 425.883 172.305 425.427 175.147C425.211 175.606 424.869 175.995 424.44 176.267C423.786 176.791 423.18 177.371 422.627 178C422.347 178.331 422.168 178.736 422.111 179.166C422.054 179.597 422.122 180.034 422.307 180.427C422.585 180.935 422.966 181.38 423.425 181.733C423.884 182.087 424.411 182.341 424.973 182.48C426.363 182.85 427.824 182.85 429.213 182.48C429.519 182.427 429.822 182.355 430.12 182.267C431.419 183.085 432.907 183.553 434.44 183.627C436.878 183.818 439.321 183.309 441.48 182.16C443.246 182.444 445.047 182.444 446.813 182.16C447.429 182.091 448.022 181.885 448.548 181.557C449.074 181.23 449.52 180.789 449.853 180.267C450.079 179.843 450.17 179.36 450.113 178.883C450.055 178.406 449.853 177.958 449.533 177.6C448.991 176.951 448.373 176.369 447.693 175.867C447.32 175.52 446.867 175.2 446.76 174.773C445.987 172.107 446.067 168.907 445.053 166.427C444.645 165.446 444 164.583 443.177 163.913C442.353 163.243 441.376 162.787 440.333 162.587C439.948 162.494 439.555 162.431 439.16 162.4C438.744 162.348 438.323 162.348 437.907 162.4L436.627 162.853Z" fill="#98A2B3"/>
<path fill-rule="evenodd" clip-rule="evenodd" d="M419.267 160.4C419.005 160.217 418.729 160.056 418.44 159.92C414.298 157.882 410.594 155.056 407.533 151.6C405.793 149.197 404.776 146.348 404.6 143.387C404.438 142.076 404.717 140.748 405.393 139.614C406.069 138.479 407.103 137.602 408.333 137.12C409.46 136.659 410.663 136.415 411.88 136.4C412.897 136.353 413.895 136.686 414.68 137.333C415.109 137.771 415.477 138.264 415.773 138.8C416.322 139.659 416.821 140.55 417.267 141.467C417.394 141.716 417.584 141.927 417.818 142.082C418.051 142.236 418.321 142.327 418.6 142.347C418.886 142.374 419.175 142.318 419.43 142.186C419.686 142.053 419.897 141.85 420.04 141.6C420.04 141.6 421.133 139.76 422.307 138.187C422.711 137.55 423.205 136.975 423.773 136.48C424.439 136.017 425.21 135.728 426.016 135.639C426.821 135.551 427.637 135.666 428.387 135.973C429.974 136.68 431.219 137.983 431.853 139.6C432.424 141.181 432.613 142.875 432.404 144.544C432.196 146.212 431.596 147.808 430.653 149.2C428.004 153.32 424.525 156.844 420.44 159.547C419.88 160.053 419.187 160.213 419.267 160.4ZM418.92 161.973C419.085 162.087 419.28 162.148 419.48 162.148C419.68 162.148 419.875 162.087 420.04 161.973C420.527 161.726 420.999 161.45 421.453 161.147C425.9 158.415 429.724 154.781 432.68 150.48C433.872 148.783 434.651 146.832 434.957 144.781C435.262 142.731 435.085 140.637 434.44 138.667C433.594 136.367 431.881 134.49 429.667 133.44C428.48 132.906 427.178 132.682 425.881 132.789C424.584 132.896 423.336 133.331 422.253 134.053C421.539 134.566 420.909 135.187 420.387 135.893C419.868 136.522 419.387 137.181 418.947 137.867L418.52 137.173C418.066 136.43 417.53 135.741 416.92 135.12C415.809 134.092 414.377 133.48 412.867 133.387C410.917 133.23 408.958 133.55 407.16 134.32C405.728 134.896 404.485 135.86 403.571 137.104C402.657 138.347 402.108 139.821 401.987 141.36C401.735 145.541 403.047 149.666 405.667 152.933C408.235 155.81 411.319 158.18 414.76 159.92C416.027 160.654 417.336 161.312 418.68 161.893L418.92 161.973Z" fill="#528BFF"/>
</g>
</g>
</g>
<circle cx="48" cy="48" r="4" fill="#D0D5DD"/>
<circle cx="61" cy="48" r="4" fill="#D0D5DD"/>
<circle cx="74" cy="48" r="4" fill="#D0D5DD"/>
<rect x="452" y="42" width="12" height="12" rx="4" fill="#EAECF0"/>
<rect x="472" y="42" width="12" height="12" rx="4" fill="#EAECF0"/>
</g>
<defs>
<filter id="filter0_d_822_9784" x="-20" y="12" width="568" height="468" filterUnits="userSpaceOnUse" color-interpolation-filters="sRGB">
<feFlood flood-opacity="0" result="BackgroundImageFix"/>
<feColorMatrix in="SourceAlpha" type="matrix" values="0 0 0 0 0 0 0 0 0 0 0 0 0 0 0 0 0 0 127 0" result="hardAlpha"/>
<feMorphology radius="12" operator="erode" in="SourceAlpha" result="effect1_dropShadow_822_9784"/>
<feOffset dy="32"/>
<feGaussianBlur stdDeviation="32"/>
<feColorMatrix type="matrix" values="0 0 0 0 0.0625882 0 0 0 0 0.0926346 0 0 0 0 0.15702 0 0 0 0.14 0"/>
<feBlend mode="normal" in2="BackgroundImageFix" result="effect1_dropShadow_822_9784"/>
<feBlend mode="normal" in="SourceGraphic" in2="effect1_dropShadow_822_9784" result="shape"/>
</filter>
<filter id="filter1_dd_822_9784" x="104" y="210.048" width="320" height="64" filterUnits="userSpaceOnUse" color-interpolation-filters="sRGB">
<feFlood flood-opacity="0" result="BackgroundImageFix"/>
<feColorMatrix in="SourceAlpha" type="matrix" values="0 0 0 0 0 0 0 0 0 0 0 0 0 0 0 0 0 0 127 0" result="hardAlpha"/>
<feMorphology radius="2" operator="erode" in="SourceAlpha" result="effect1_dropShadow_822_9784"/>
<feOffset dy="4"/>
<feGaussianBlur stdDeviation="3"/>
<feColorMatrix type="matrix" values="0 0 0 0 0.0627451 0 0 0 0 0.0941176 0 0 0 0 0.156863 0 0 0 0.03 0"/>
<feBlend mode="normal" in2="BackgroundImageFix" result="effect1_dropShadow_822_9784"/>
<feColorMatrix in="SourceAlpha" type="matrix" values="0 0 0 0 0 0 0 0 0 0 0 0 0 0 0 0 0 0 127 0" result="hardAlpha"/>
<feMorphology radius="4" operator="erode" in="SourceAlpha" result="effect2_dropShadow_822_9784"/>
<feOffset dy="12"/>
<feGaussianBlur stdDeviation="8"/>
<feColorMatrix type="matrix" values="0 0 0 0 0.0627451 0 0 0 0 0.0941176 0 0 0 0 0.156863 0 0 0 0.08 0"/>
<feBlend mode="normal" in2="effect1_dropShadow_822_9784" result="effect2_dropShadow_822_9784"/>
<feBlend mode="normal" in="SourceGraphic" in2="effect2_dropShadow_822_9784" result="shape"/>
</filter>
<filter id="filter2_dd_822_9784" x="104" y="266.048" width="320" height="64" filterUnits="userSpaceOnUse" color-interpolation-filters="sRGB">
<feFlood flood-opacity="0" result="BackgroundImageFix"/>
<feColorMatrix in="SourceAlpha" type="matrix" values="0 0 0 0 0 0 0 0 0 0 0 0 0 0 0 0 0 0 127 0" result="hardAlpha"/>
<feMorphology radius="2" operator="erode" in="SourceAlpha" result="effect1_dropShadow_822_9784"/>
<feOffset dy="4"/>
<feGaussianBlur stdDeviation="3"/>
<feColorMatrix type="matrix" values="0 0 0 0 0.0627451 0 0 0 0 0.0941176 0 0 0 0 0.156863 0 0 0 0.03 0"/>
<feBlend mode="normal" in2="BackgroundImageFix" result="effect1_dropShadow_822_9784"/>
<feColorMatrix in="SourceAlpha" type="matrix" values="0 0 0 0 0 0 0 0 0 0 0 0 0 0 0 0 0 0 127 0" result="hardAlpha"/>
<feMorphology radius="4" operator="erode" in="SourceAlpha" result="effect2_dropShadow_822_9784"/>
<feOffset dy="12"/>
<feGaussianBlur stdDeviation="8"/>
<feColorMatrix type="matrix" values="0 0 0 0 0.0627451 0 0 0 0 0.0941176 0 0 0 0 0.156863 0 0 0 0.08 0"/>
<feBlend mode="normal" in2="effect1_dropShadow_822_9784" result="effect2_dropShadow_822_9784"/>
<feBlend mode="normal" in="SourceGraphic" in2="effect2_dropShadow_822_9784" result="shape"/>
</filter>
<filter id="filter3_dd_822_9784" x="104" y="322.048" width="320" height="114" filterUnits="userSpaceOnUse" color-interpolation-filters="sRGB">
<feFlood flood-opacity="0" result="BackgroundImageFix"/>
<feColorMatrix in="SourceAlpha" type="matrix" values="0 0 0 0 0 0 0 0 0 0 0 0 0 0 0 0 0 0 127 0" result="hardAlpha"/>
<feMorphology radius="2" operator="erode" in="SourceAlpha" result="effect1_dropShadow_822_9784"/>
<feOffset dy="4"/>
<feGaussianBlur stdDeviation="3"/>
<feColorMatrix type="matrix" values="0 0 0 0 0.0627451 0 0 0 0 0.0941176 0 0 0 0 0.156863 0 0 0 0.03 0"/>
<feBlend mode="normal" in2="BackgroundImageFix" result="effect1_dropShadow_822_9784"/>
<feColorMatrix in="SourceAlpha" type="matrix" values="0 0 0 0 0 0 0 0 0 0 0 0 0 0 0 0 0 0 127 0" result="hardAlpha"/>
<feMorphology radius="4" operator="erode" in="SourceAlpha" result="effect2_dropShadow_822_9784"/>
<feOffset dy="12"/>
<feGaussianBlur stdDeviation="8"/>
<feColorMatrix type="matrix" values="0 0 0 0 0.0627451 0 0 0 0 0.0941176 0 0 0 0 0.156863 0 0 0 0.08 0"/>
<feBlend mode="normal" in2="effect1_dropShadow_822_9784" result="effect2_dropShadow_822_9784"/>
<feBlend mode="normal" in="SourceGraphic" in2="effect2_dropShadow_822_9784" result="shape"/>
</filter>
<radialGradient id="paint0_radial_822_9784" cx="0" cy="0" r="1" gradientUnits="userSpaceOnUse" gradientTransform="translate(264 -0.000119271) rotate(90) scale(488.521 505.624)">
<stop stop-color="white"/>
<stop offset="0.991144" stop-color="white" stop-opacity="0"/>
</radialGradient>
<clipPath id="clip0_822_9784">
<rect width="528" height="396" fill="white"/>
</clipPath>
<clipPath id="clip1_822_9784">
<path d="M32 48C32 39.1634 39.1634 32 48 32H480C488.837 32 496 39.1634 496 48V396H32V48Z" fill="white"/>
</clipPath>
<clipPath id="clip2_822_9784">
<rect width="16" height="16" fill="white" transform="translate(380 278.048)"/>
</clipPath>
<clipPath id="clip3_822_9784">
<rect width="64" height="64" fill="white" transform="translate(387 132)"/>
</clipPath>
</defs>
</svg>
