<svg width="1440" height="860" viewBox="0 0 1440 860" fill="none" xmlns="http://www.w3.org/2000/svg">
<g opacity="0.7">
<mask id="mask0_816_31586" style="mask-type:alpha" maskUnits="userSpaceOnUse" x="0" y="0" width="1440" height="860">
<rect width="1440" height="859.5" fill="url(#paint0_radial_816_31586)"/>
</mask>
<g mask="url(#mask0_816_31586)">
<rect x="185.25" y="14.25" width="118.5" height="118.5" stroke="#2970FF" stroke-width="1.5"/>
<rect x="303.75" y="14.25" width="118.5" height="118.5" stroke="#2970FF" stroke-width="1.5"/>
<rect x="422.25" y="14.25" width="118.5" height="118.5" stroke="#2970FF" stroke-width="1.5"/>
<rect x="540.75" y="14.25" width="118.5" height="118.5" stroke="#2970FF" stroke-width="1.5"/>
<rect x="659.25" y="14.25" width="118.5" height="118.5" stroke="#2970FF" stroke-width="1.5"/>
<rect x="777.75" y="14.25" width="118.5" height="118.5" stroke="#2970FF" stroke-width="1.5"/>
<rect x="896.25" y="14.25" width="118.5" height="118.5" fill="#2970FF" fill-opacity="0.15" stroke="#2970FF" stroke-width="1.5"/>
<rect x="1014.75" y="14.25" width="118.5" height="118.5" stroke="#2970FF" stroke-width="1.5"/>
<rect x="1133.25" y="14.25" width="118.5" height="118.5" stroke="#2970FF" stroke-width="1.5"/>
<rect x="185.25" y="132.75" width="118.5" height="118.5" stroke="#2970FF" stroke-width="1.5"/>
<rect x="303.75" y="132.75" width="118.5" height="118.5" stroke="#2970FF" stroke-width="1.5"/>
<rect x="422.25" y="132.75" width="118.5" height="118.5" stroke="#2970FF" stroke-width="1.5"/>
<rect x="540.75" y="132.75" width="118.5" height="118.5" stroke="#2970FF" stroke-width="1.5"/>
<rect x="659.25" y="132.75" width="118.5" height="118.5" stroke="#2970FF" stroke-width="1.5"/>
<rect x="777.75" y="132.75" width="118.5" height="118.5" stroke="#2970FF" stroke-width="1.5"/>
<rect x="896.25" y="132.75" width="118.5" height="118.5" stroke="#2970FF" stroke-width="1.5"/>
<rect x="1014.75" y="132.75" width="118.5" height="118.5" stroke="#2970FF" stroke-width="1.5"/>
<rect x="1133.25" y="132.75" width="118.5" height="118.5" stroke="#2970FF" stroke-width="1.5"/>
<rect x="185.25" y="251.25" width="118.5" height="118.5" stroke="#2970FF" stroke-width="1.5"/>
<rect x="303.75" y="251.25" width="118.5" height="118.5" stroke="#2970FF" stroke-width="1.5"/>
<rect x="422.25" y="251.25" width="118.5" height="118.5" stroke="#2970FF" stroke-width="1.5"/>
<rect x="540.75" y="251.25" width="118.5" height="118.5" stroke="#2970FF" stroke-width="1.5"/>
<rect x="659.25" y="251.25" width="118.5" height="118.5" fill="#2970FF" fill-opacity="0.15" stroke="#2970FF" stroke-width="1.5"/>
<rect x="777.75" y="251.25" width="118.5" height="118.5" stroke="#2970FF" stroke-width="1.5"/>
<rect x="896.25" y="251.25" width="118.5" height="118.5" fill="#2970FF" fill-opacity="0.15" stroke="#2970FF" stroke-width="1.5"/>
<rect x="1014.75" y="251.25" width="118.5" height="118.5" stroke="#2970FF" stroke-width="1.5"/>
<rect x="1133.25" y="251.25" width="118.5" height="118.5" stroke="#2970FF" stroke-width="1.5"/>
<rect x="185.25" y="369.75" width="118.5" height="118.5" stroke="#2970FF" stroke-width="1.5"/>
<rect x="303.75" y="369.75" width="118.5" height="118.5" stroke="#2970FF" stroke-width="1.5"/>
<rect x="422.25" y="369.75" width="118.5" height="118.5" stroke="#2970FF" stroke-width="1.5"/>
<rect x="540.75" y="369.75" width="118.5" height="118.5" stroke="#2970FF" stroke-width="1.5"/>
<rect x="659.25" y="369.75" width="118.5" height="118.5" stroke="#2970FF" stroke-width="1.5"/>
<rect x="777.75" y="369.75" width="118.5" height="118.5" stroke="#2970FF" stroke-width="1.5"/>
<rect x="896.25" y="369.75" width="118.5" height="118.5" stroke="#2970FF" stroke-width="1.5"/>
<rect x="1014.75" y="369.75" width="118.5" height="118.5" stroke="#2970FF" stroke-width="1.5"/>
<rect x="1133.25" y="369.75" width="118.5" height="118.5" stroke="#2970FF" stroke-width="1.5"/>
<rect x="185.25" y="488.25" width="118.5" height="118.5" stroke="#2970FF" stroke-width="1.5"/>
<rect x="303.75" y="488.25" width="118.5" height="118.5" stroke="#2970FF" stroke-width="1.5"/>
<rect x="422.25" y="488.25" width="118.5" height="118.5" stroke="#2970FF" stroke-width="1.5"/>
<rect x="540.75" y="488.25" width="118.5" height="118.5" fill="#2970FF" fill-opacity="0.15" stroke="#2970FF" stroke-width="1.5"/>
<rect x="659.25" y="488.25" width="118.5" height="118.5" stroke="#2970FF" stroke-width="1.5"/>
<rect x="777.75" y="488.25" width="118.5" height="118.5" stroke="#2970FF" stroke-width="1.5"/>
<rect x="896.25" y="488.25" width="118.5" height="118.5" stroke="#2970FF" stroke-width="1.5"/>
<rect x="1014.75" y="488.25" width="118.5" height="118.5" stroke="#2970FF" stroke-width="1.5"/>
<rect x="1133.25" y="488.25" width="118.5" height="118.5" stroke="#2970FF" stroke-width="1.5"/>
<rect x="185.25" y="606.75" width="118.5" height="118.5" stroke="#2970FF" stroke-width="1.5"/>
<rect x="303.75" y="606.75" width="118.5" height="118.5" stroke="#2970FF" stroke-width="1.5"/>
<rect x="422.25" y="606.75" width="118.5" height="118.5" stroke="#2970FF" stroke-width="1.5"/>
<rect x="540.75" y="606.75" width="118.5" height="118.5" stroke="#2970FF" stroke-width="1.5"/>
<rect x="659.25" y="606.75" width="118.5" height="118.5" stroke="#2970FF" stroke-width="1.5"/>
<rect x="777.75" y="606.75" width="118.5" height="118.5" stroke="#2970FF" stroke-width="1.5"/>
<rect x="896.25" y="606.75" width="118.5" height="118.5" stroke="#2970FF" stroke-width="1.5"/>
<rect x="1014.75" y="606.75" width="118.5" height="118.5" stroke="#2970FF" stroke-width="1.5"/>
<rect x="1133.25" y="606.75" width="118.5" height="118.5" stroke="#2970FF" stroke-width="1.5"/>
<rect x="185.25" y="725.25" width="118.5" height="118.5" stroke="#2970FF" stroke-width="1.5"/>
<rect x="303.75" y="725.25" width="118.5" height="118.5" stroke="#2970FF" stroke-width="1.5"/>
<rect x="422.25" y="725.25" width="118.5" height="118.5" stroke="#2970FF" stroke-width="1.5"/>
<rect x="540.75" y="725.25" width="118.5" height="118.5" stroke="#2970FF" stroke-width="1.5"/>
<rect x="659.25" y="725.25" width="118.5" height="118.5" stroke="#2970FF" stroke-width="1.5"/>
<rect x="777.75" y="725.25" width="118.5" height="118.5" stroke="#2970FF" stroke-width="1.5"/>
<rect x="896.25" y="725.25" width="118.5" height="118.5" stroke="#2970FF" stroke-width="1.5"/>
<rect x="1014.75" y="725.25" width="118.5" height="118.5" stroke="#2970FF" stroke-width="1.5"/>
<rect x="1133.25" y="725.25" width="118.5" height="118.5" stroke="#2970FF" stroke-width="1.5"/>
</g>
</g>
<defs>
<radialGradient id="paint0_radial_816_31586" cx="0" cy="0" r="1" gradientUnits="userSpaceOnUse" gradientTransform="translate(720 429.75) rotate(90) scale(529.785 887.598)">
<stop stop-color="#D9D9D9" stop-opacity="0.2"/>
<stop offset="0.802083" stop-color="#D9D9D9" stop-opacity="0"/>
</radialGradient>
</defs>
</svg>
