<svg width="49" height="48" viewBox="0 0 49 48" fill="none" xmlns="http://www.w3.org/2000/svg">
<path fill-rule="evenodd" clip-rule="evenodd" d="M21.0801 19.9999C22.8923 18.2495 24.4177 16.2248 25.6001 13.9999C26.1306 13.3848 26.5933 12.7142 26.9801 11.9999C28.7443 12.6606 30.68 12.706 32.4733 12.1288C34.2666 11.5516 35.8124 10.3856 36.8601 8.81989C39.3401 4.39989 33.9001 -0.660106 28.8601 0.199894C27.3519 0.506098 25.9607 1.23155 24.8463 2.29289C23.7319 3.35424 22.9394 4.70843 22.5601 6.19989C22.4677 7.22147 22.683 8.24734 23.1784 9.14552C23.6739 10.0437 24.4267 10.7731 25.3401 11.2399C21.6601 15.2399 21.9601 16.7399 20.0801 19.2399C20.046 19.3699 20.0512 19.5071 20.0951 19.6341C20.1389 19.7612 20.2194 19.8724 20.3264 19.9537C20.4334 20.035 20.5621 20.0828 20.6962 20.091C20.8304 20.0992 20.9639 20.0675 21.0801 19.9999ZM25.2001 7.99989C23.3801 5.61989 26.6801 2.09989 29.2001 1.47989C30.4215 1.22929 31.6915 1.39196 32.8103 1.94231C33.9291 2.49266 34.8331 3.39943 35.3801 4.51989C37.8201 9.59989 28.2801 12.2999 25.2001 7.99989Z" fill="#101828"/>
<path fill-rule="evenodd" clip-rule="evenodd" d="M32.1001 7.41988C32.599 7.3157 33.0444 7.03687 33.356 6.63356C33.6677 6.23025 33.8251 5.72895 33.8001 5.21988C33.7263 4.61154 33.4351 4.05039 32.9801 3.63988C31.9401 3.23988 31.1001 6.99988 31.1801 7.15988C31.2684 7.31557 31.4145 7.43017 31.5867 7.47885C31.7589 7.52752 31.9434 7.50633 32.1001 7.41988Z" fill="#101828"/>
<path fill-rule="evenodd" clip-rule="evenodd" d="M46.0401 28.7598C45.1455 26.3223 44.0967 23.9441 42.9001 21.6398C39.9801 16.5398 40.3601 13.3798 39.0401 13.3598C38.9023 13.3633 38.7681 13.4043 38.6518 13.4782C38.5355 13.5522 38.4415 13.6564 38.3798 13.7797C38.3182 13.9029 38.2912 14.0407 38.3018 14.1781C38.3125 14.3155 38.3602 14.4474 38.4401 14.5598C38.2401 15.0398 39.2801 16.7798 39.3601 17.0798C40.4201 21.3998 41.2201 20.4798 44.3601 29.0798C44.3601 29.2198 44.3601 29.4798 44.3601 29.8398C41.9897 30.9583 39.3083 31.2335 36.7601 30.6198C36.5317 30.5932 36.3007 30.6362 36.0972 30.7433C35.8938 30.8504 35.7274 31.0165 35.6201 31.2198C35.1601 32.1398 36.5001 32.8798 36.2601 34.9598C36.0601 37.3398 35.7401 38.4798 32.6001 41.8598C28.6001 42.8598 20.9401 44.7798 17.3001 45.5398C16.7601 45.6398 16.1801 45.5398 15.8801 45.6598C10.0601 39.6598 7.56009 39.4598 5.38009 28.2998C4.61318 24.768 4.35057 21.1453 4.60009 17.5398C4.78009 16.8398 7.34009 16.0198 8.04009 15.8198C10.4601 15.0998 10.9201 15.2198 16.8201 13.6198C16.9002 13.5988 16.9754 13.5622 17.0413 13.5121C17.1073 13.4621 17.1628 13.3995 17.2046 13.328C17.2463 13.2565 17.2736 13.1775 17.2849 13.0954C17.2961 13.0134 17.2911 12.9299 17.2701 12.8498C17.2491 12.7697 17.2125 12.6945 17.1624 12.6285C17.1124 12.5626 17.0498 12.5071 16.9783 12.4653C16.9068 12.4235 16.8278 12.3962 16.7457 12.385C16.6637 12.3737 16.5802 12.3788 16.5001 12.3998C10.2201 13.9998 6.26009 14.2598 3.76009 15.9998C1.26009 17.7398 3.44009 34.5398 7.56009 40.1798C9.32009 42.5598 12.9801 45.6598 14.7201 47.5798C15.4001 48.3198 15.8401 48.4598 35.6201 43.1798C39.0797 42.3713 42.2283 40.5711 44.6801 37.9998C45.514 36.8943 45.995 35.563 46.0601 34.1798C46.2402 32.3773 46.2335 30.5609 46.0401 28.7598ZM43.3001 36.7598C41.0958 38.9437 38.3248 40.4677 35.3001 41.1598C36.5344 40.2043 37.4846 38.9302 38.0485 37.4747C38.6124 36.0192 38.7685 34.4374 38.5001 32.8998C40.591 32.9047 42.6513 32.3965 44.5001 31.4198C44.5001 32.8198 44.2801 35.7598 43.3001 36.7598Z" fill="#101828"/>
<path fill-rule="evenodd" clip-rule="evenodd" d="M31.4801 33.6798C30.9201 33.6798 29.1001 34.4598 28.7001 34.5198C26.2601 34.9598 25.0601 34.8198 19.8401 35.9598C19.6801 35.9598 16.6201 36.7198 16.2401 36.9198C16.1492 36.9776 16.0744 37.0574 16.0226 37.1518C15.9708 37.2462 15.9436 37.3522 15.9436 37.4598C15.9436 37.5675 15.9708 37.6735 16.0226 37.7679C16.0744 37.8623 16.1492 37.942 16.2401 37.9998C17.5235 38.0567 18.8095 37.9897 20.0801 37.7998C23.1464 37.7361 26.1863 37.2171 29.1001 36.2598C29.4801 36.1398 31.4601 35.6598 31.6801 35.1798C31.7858 35.1758 31.8896 35.1497 31.9846 35.1032C32.0797 35.0567 32.164 34.9909 32.2322 34.9099C32.3004 34.829 32.3509 34.7347 32.3805 34.6331C32.4101 34.5315 32.4182 34.4249 32.4042 34.32C32.3902 34.2151 32.3545 34.1142 32.2993 34.024C32.2441 33.9337 32.1706 33.8559 32.0836 33.7956C31.9966 33.7354 31.898 33.694 31.7941 33.674C31.6902 33.6541 31.5832 33.6561 31.4801 33.6798Z" fill="#155EEF"/>
<path fill-rule="evenodd" clip-rule="evenodd" d="M12.8802 29.64C12.8775 29.7214 12.891 29.8026 12.9197 29.8788C12.9484 29.9551 12.9918 30.0249 13.0476 30.0843C13.1033 30.1438 13.1702 30.1917 13.2444 30.2252C13.3187 30.2588 13.3988 30.2774 13.4802 30.28C14.0602 30.28 18.1002 29.58 18.6602 29.52C21.3723 29.1433 24.0482 28.5412 26.6602 27.72C37.9202 24.32 36.2202 25.06 36.3402 24.9C36.4296 24.8016 36.49 24.6804 36.5147 24.5498C36.5394 24.4191 36.5275 24.2842 36.4802 24.16C36.2602 23.44 35.0802 23.64 34.0402 23.82C26.5202 25.12 19.8402 27.36 18.3402 27.68C14.7802 28.54 12.9002 28.78 12.8802 29.64Z" fill="#155EEF"/>
</svg>
