<svg width="48" height="48" viewBox="0 0 48 48" fill="none" xmlns="http://www.w3.org/2000/svg">
<g clip-path="url(#clip0_822_10078)">
<path fill-rule="evenodd" clip-rule="evenodd" d="M25.3201 20.6C27.0529 20.4808 28.7104 19.8456 30.0791 18.7763C31.4478 17.707 32.4652 16.2525 33.0001 14.6C33.668 12.3276 33.4611 9.88747 32.4201 7.75998C31.9801 6.91998 30.3201 5.75998 29.0801 3.75998C28.5488 2.90207 28.1825 1.95244 28.0001 0.959983C27.9546 0.725523 27.8413 0.509578 27.6742 0.338926C27.5071 0.168274 27.2936 0.0504221 27.0601 -1.63883e-05C26.8301 -0.0448752 26.5921 -0.0214332 26.3753 0.0674175C26.1585 0.156268 25.9724 0.306641 25.8401 0.499984C24.6715 1.72925 23.3853 2.84122 22.0001 3.81998C21.3453 4.43565 20.8216 5.17712 20.4601 5.99998C20.2322 6.54246 20.084 7.11506 20.0201 7.69998C19.931 8.41723 19.931 9.14274 20.0201 9.85998C20.0069 9.78739 20.0002 9.71377 20.0001 9.63998C19.885 9.4679 19.7973 9.27898 19.7401 9.07998C19.6001 8.65998 19.5201 8.21998 19.4001 7.79998C19.344 7.50718 19.2637 7.21953 19.1601 6.93998C19.0873 6.76324 18.9759 6.60504 18.834 6.47698C18.6921 6.34893 18.5234 6.25428 18.3401 6.19998C18.1256 6.15225 17.9022 6.1643 17.6941 6.23484C17.486 6.30537 17.3013 6.43168 17.1601 6.59998C16.8921 6.94054 16.6514 7.30165 16.4401 7.67998C16.0964 8.30465 15.8535 8.97961 15.7201 9.67998C15.5555 10.3742 15.4816 11.0868 15.5001 11.8C15.6223 14.2152 16.6423 16.4978 18.3601 18.2C20.4001 20 25.1801 20.58 25.3201 20.6ZM17.6401 10.5C17.6975 10.6478 17.7713 10.7886 17.8601 10.92C18.1081 11.3381 18.434 11.7047 18.8201 12C19.1822 12.3035 19.5953 12.5405 20.0401 12.7L21.5801 13.12C21.8428 13.1822 22.1178 13.1681 22.3729 13.0796C22.6279 12.991 22.8524 12.8316 23.0201 12.62C23.2316 12.3099 23.3174 11.931 23.2601 11.56C23.0899 10.9284 22.8829 10.3074 22.6401 9.69998C22.5491 9.21899 22.5155 8.72889 22.5401 8.23998C22.5346 7.82107 22.6163 7.4056 22.7801 7.01998C23.0253 6.49164 23.3798 6.02129 23.8201 5.63998C24.6001 4.87998 25.5001 4.23998 26.3401 3.49998C26.5687 4.01682 26.8431 4.51213 27.1601 4.97998C28.4601 6.97998 30.1601 7.93998 30.6201 8.73998C31.5149 10.3913 31.7576 12.3183 31.3001 14.14C30.9424 15.4542 30.171 16.6184 29.1001 17.46C29.2657 16.6517 29.1593 15.8113 28.7976 15.0698C28.4358 14.3282 27.839 13.7271 27.1001 13.36C26.9271 13.2834 26.7317 13.2741 26.5522 13.3338C26.3727 13.3936 26.222 13.5182 26.1295 13.6833C26.0369 13.8483 26.0093 14.0419 26.052 14.2262C26.0946 14.4106 26.2045 14.5724 26.3601 14.68C26.7076 14.9422 26.9601 15.3106 27.0792 15.7293C27.1983 16.148 27.1776 16.5941 27.0201 17C26.9061 17.3534 26.6712 17.6554 26.3566 17.8529C26.0421 18.0504 25.668 18.1308 25.3001 18.08C24.9402 18.0842 24.5846 18.0008 24.2641 17.8371C23.9435 17.6733 23.6676 17.4341 23.4601 17.14C23.2487 16.8494 23.1349 16.4993 23.1349 16.14C23.1349 15.7807 23.2487 15.4306 23.4601 15.14C23.6587 14.8388 23.9352 14.5969 24.2601 14.44C24.6708 14.2505 25.0997 14.1031 25.5401 14C25.7002 13.9575 25.8377 13.8545 25.9234 13.7128C26.0092 13.5711 26.0367 13.4016 26.0001 13.24C25.9661 13.0661 25.8655 12.9124 25.7198 12.8115C25.5741 12.7106 25.3948 12.6706 25.2201 12.7C24.5402 12.767 23.8696 12.9079 23.2201 13.12C22.7575 13.3267 22.3422 13.6262 22.0001 14C21.4719 14.5526 21.13 15.2568 21.0224 16.0136C20.9148 16.7705 21.0469 17.542 21.4001 18.22C20.7005 17.95 20.0664 17.5341 19.5401 17C18.2242 15.5516 17.5091 13.6566 17.5401 11.7C17.5246 11.2974 17.5582 10.8944 17.6401 10.5Z" fill="#101828"/>
<path fill-rule="evenodd" clip-rule="evenodd" d="M40.2201 22.94C38.6016 20.6072 36.5263 18.6272 34.1201 17.12C33.9557 17.0086 33.7537 16.9671 33.5587 17.0046C33.3637 17.0421 33.1915 17.1555 33.0801 17.32C32.9687 17.4844 32.9272 17.6864 32.9647 17.8814C33.0022 18.0764 33.1157 18.2486 33.2801 18.36C35.46 19.812 37.324 21.6896 38.7601 23.88C40.145 26.0234 40.8106 28.5525 40.6601 31.1C40.3845 34.0402 39.2273 36.8286 37.3401 39.1C35.5355 41.4464 33.121 43.2521 30.3601 44.32C27.4605 45.4125 24.3279 45.7381 21.2656 45.2651C18.2033 44.7921 15.3149 43.5365 12.8801 41.62C10.4033 39.7514 8.61739 37.113 7.80287 34.1192C6.98836 31.1254 7.19141 27.9458 8.38012 25.08C8.96361 23.5627 9.78008 22.1457 10.8001 20.88C11.8432 19.6132 13.0238 18.4661 14.3201 17.46C14.4283 17.3418 14.4913 17.1891 14.498 17.029C14.5046 16.8688 14.4545 16.7115 14.3564 16.5847C14.2583 16.458 14.1186 16.3699 13.962 16.3361C13.8053 16.3023 13.6417 16.3249 13.5001 16.4C12.0914 17.462 10.7976 18.6686 9.64012 20C8.47795 21.3561 7.52723 22.8799 6.82012 24.52C5.31615 27.7401 4.94623 31.3744 5.77056 34.8315C6.59489 38.2886 8.56494 41.365 11.3601 43.56C14.1139 45.768 17.3954 47.2205 20.8813 47.7746C24.3673 48.3287 27.9374 47.9652 31.2401 46.72C34.4215 45.4299 37.1884 43.2925 39.2401 40.54C41.3344 37.8578 42.5559 34.5979 42.7401 31.2C42.8069 28.2478 41.9235 25.3522 40.2201 22.94Z" fill="#101828"/>
<path fill-rule="evenodd" clip-rule="evenodd" d="M18.46 30.9599C19.2119 32.3094 20.2661 33.4663 21.54 34.3399C22.3458 34.8936 23.3323 35.119 24.2986 34.9704C25.2648 34.8217 26.138 34.3101 26.74 33.5399C27.2829 32.7968 27.5755 31.9003 27.5755 30.9799C27.5755 30.0596 27.2829 29.1631 26.74 28.4199C25.9577 27.3965 25.0035 26.5167 23.92 25.8199C21.1151 24.1029 18.1221 22.7138 15 21.6799C14.836 21.7387 14.7018 21.8601 14.6269 22.0175C14.5519 22.1748 14.5423 22.3555 14.6 22.5199L15.78 25.3599C16.5702 27.2742 17.4649 29.1437 18.46 30.9599ZM21.72 26.9599C22.8794 27.6931 23.8792 28.6522 24.66 29.7799C24.8923 30.1147 25.0167 30.5125 25.0167 30.9199C25.0167 31.3274 24.8923 31.7251 24.66 32.0599C24.413 32.3415 24.0659 32.5157 23.6925 32.5456C23.3191 32.5755 22.9487 32.4586 22.66 32.2199C21.6685 31.6016 20.8225 30.776 20.18 29.7999C19.04 27.9999 18 25.9999 17.18 24.6199L16.88 23.9999C18.36 24.8599 20.14 25.8199 21.72 26.8999V26.9599Z" fill="#155EEF"/>
<path fill-rule="evenodd" clip-rule="evenodd" d="M32.2402 23.5799C32.1204 23.649 32.0123 23.7368 31.9202 23.8399C30.6002 25.1399 30.8202 25.3799 30.8802 25.5199C31.0802 26.2199 32.8802 26.0199 33.0202 25.9799C33.1847 25.9536 33.3415 25.8923 33.4802 25.7999C33.6278 25.7209 33.7572 25.6119 33.8602 25.4799C35.1202 24.1799 35.0002 23.8399 34.8402 23.4799C34.4202 22.8199 32.2802 23.5799 32.2402 23.5799Z" fill="#101828"/>
<path fill-rule="evenodd" clip-rule="evenodd" d="M33.1402 31.36C33.1402 31.96 34.6202 32.56 35.0002 32.66C35.1797 32.6796 35.3608 32.6796 35.5402 32.66C35.7063 32.6791 35.8741 32.6791 36.0402 32.66C38.0402 32.14 38.0402 31.84 38.0402 31.52C38.0402 31.2 38.0402 30.76 36.0402 30.28C35.8675 30.2592 35.6929 30.2592 35.5202 30.28C35.3541 30.2604 35.1863 30.2604 35.0202 30.28C32.9602 30.8 33.1402 31.32 33.1402 31.36Z" fill="#101828"/>
<path fill-rule="evenodd" clip-rule="evenodd" d="M32.6602 38.6799C32.6021 38.5165 32.5353 38.3562 32.4602 38.1999C32.3639 38.053 32.2496 37.9186 32.1202 37.7999C31.9802 37.6599 30.6002 36.5199 30.1202 36.8599C29.9602 36.9599 29.5602 37.0999 30.1202 39.0599C30.1814 39.2187 30.255 39.3725 30.3402 39.5199C30.4374 39.6661 30.5516 39.8003 30.6802 39.9199C32.1202 41.2999 32.4602 41.1399 32.6802 40.9399C32.9002 40.7399 33.1602 40.3799 32.6602 38.6799Z" fill="#101828"/>
<path fill-rule="evenodd" clip-rule="evenodd" d="M23.7002 37.54C23.0602 37.54 22.5202 39.42 22.4802 39.54C22.4606 39.7396 22.4606 39.9405 22.4802 40.14C22.4594 40.3328 22.4594 40.5273 22.4802 40.72C22.8402 42.6 22.9602 42.84 23.4802 42.9C24.0002 42.96 24.3402 42.9 24.8602 40.76C24.8809 40.5539 24.8809 40.3462 24.8602 40.14C24.8906 39.9345 24.8906 39.7256 24.8602 39.52C24.8602 39.52 24.3002 37.56 23.7002 37.54Z" fill="#101828"/>
<path fill-rule="evenodd" clip-rule="evenodd" d="M16 39.1801C16.1524 39.0987 16.2936 38.9978 16.42 38.8801C16.5541 38.7659 16.6689 38.6308 16.76 38.4801C16.88 38.3201 17.76 36.7201 17.32 36.2801C16.88 35.8401 15.16 36.7001 15.14 36.7001C14.9795 36.7862 14.8314 36.8939 14.7 37.0201C14.5697 37.1529 14.4556 37.3005 14.36 37.4601C13.14 39.3001 13.64 39.6401 13.78 39.7601C13.92 39.8801 14.16 40.2001 16 39.1801Z" fill="#101828"/>
<path fill-rule="evenodd" clip-rule="evenodd" d="M14.0001 31.02C14.0001 30.18 11.8201 30 11.7601 30C11.4709 30.019 11.1869 30.0866 10.9201 30.2C8.92012 30.96 9.06012 31.36 9.08012 31.54C9.10012 31.72 9.28012 32.4 11.2601 32.56C11.4456 32.5902 11.6347 32.5902 11.8201 32.56C11.9939 32.544 12.1633 32.4966 12.3201 32.42C14.3401 31.48 14.0001 31.06 14.0001 31.02Z" fill="#101828"/>
</g>
<defs>
<clipPath id="clip0_822_10078">
<rect width="48" height="48" fill="white"/>
</clipPath>
</defs>
</svg>
