<svg width="48" height="48" viewBox="0 0 48 48" fill="none" xmlns="http://www.w3.org/2000/svg">
<g clip-path="url(#clip0_822_10150)">
<path fill-rule="evenodd" clip-rule="evenodd" d="M1.39989 6.72001C1.32468 6.61587 1.28255 6.4915 1.27899 6.36309C1.27542 6.23468 1.31058 6.10817 1.37989 6.00001C1.86918 5.33915 2.4966 4.79284 3.21848 4.39909C3.94035 4.00534 4.73935 3.7736 5.55989 3.72001C8.93559 3.3736 12.3349 3.32007 15.7199 3.56001H19.7199L39.9999 4.00001C41.0399 4.00001 43.0799 3.78001 44.6799 4.00001C45.5638 4.01948 46.424 4.29001 47.1599 4.78001C47.3301 4.92834 47.469 5.10907 47.5686 5.31167C47.6682 5.51427 47.7264 5.73467 47.7399 5.96001C47.7821 6.66605 47.7821 7.37398 47.7399 8.08001C47.7399 9.66001 48.1199 12.82 48.1199 15.42C48.1542 16.5765 48.0399 17.7326 47.7799 18.86C47.6562 19.2899 47.4449 19.6896 47.1592 20.0338C46.8735 20.378 46.5197 20.6593 46.1199 20.86C44.7211 21.4151 43.2242 21.6804 41.7199 21.64C39.8399 21.64 37.9799 21.64 36.0999 21.64C33.2999 21.64 30.5199 21.64 27.6999 21.48C24.4399 21.36 21.1999 21.28 17.9399 21.26L7.99989 21.1C6.29522 21.2168 4.58456 21.2168 2.87989 21.1C1.99962 21.0025 1.1766 20.6156 0.539888 20C0.250932 19.6741 0.0632745 19.271 -0.000112204 18.84C-0.0413037 18.174 -0.0413037 17.506 -0.000112204 16.84L0.479888 7.22001C0.482393 7.13943 0.501111 7.06019 0.534924 6.987C0.568736 6.91382 0.61695 6.8482 0.676686 6.79407C0.736423 6.73993 0.806456 6.69839 0.882604 6.67192C0.958752 6.64545 1.03945 6.6346 1.11989 6.64001C1.2176 6.64787 1.31277 6.67506 1.39989 6.72001ZM45.2599 6.16001C44.7746 6.04856 44.2778 5.99486 43.7799 6.00001C42.3599 6.00001 40.7399 6.00001 39.7799 6.00001L19.7799 5.24001H15.7799C12.4529 4.949 9.10687 4.949 5.77989 5.24001C5.16132 5.25738 4.5537 5.40745 3.99816 5.68004C3.44262 5.95263 2.95213 6.3414 2.55989 6.82001C2.4678 6.9771 2.31812 7.09212 2.14262 7.14066C1.96712 7.1892 1.77961 7.16745 1.61989 7.08001C1.6426 7.18547 1.6426 7.29455 1.61989 7.40001L1.55989 16.84C1.55989 17.26 1.43989 17.86 1.45989 18.42C1.45472 18.6095 1.51871 18.7943 1.63989 18.94C2.27269 19.3756 3.03309 19.5868 3.79989 19.54C5.29989 19.54 6.99989 19.54 8.01989 19.42C12.0199 19.32 15.8599 19.22 19.7799 19.2C22.3999 19.2 24.9999 19.2 27.6399 19.2C29.9599 19.2 32.2799 19.2 34.5799 19.2C36.8799 19.2 39.1799 19.2 41.4999 19.06C42.3787 19.0605 43.2558 18.9801 44.1199 18.82C44.7199 18.68 45.2799 18.52 45.4399 17.98C45.6301 17.0662 45.7107 16.1329 45.6799 15.2C45.6799 12.62 45.3999 9.50001 45.3399 7.92001C45.3399 7.72001 45.0199 6.58001 45.2599 6.16001Z" fill="#101828"/>
<path fill-rule="evenodd" clip-rule="evenodd" d="M1.39994 29.7801C1.33647 29.6744 1.30295 29.5534 1.30295 29.4301C1.30295 29.3068 1.33647 29.1858 1.39994 29.0801C1.88809 28.4148 2.51442 27.863 3.23594 27.4625C3.95746 27.062 4.75709 26.8224 5.57994 26.7601C8.95616 26.4193 12.3556 26.3724 15.7399 26.6201H19.7399L39.7399 26.9801C40.7799 26.9801 42.8199 26.7801 44.4199 26.9801C45.3023 27.0091 46.1599 27.2788 46.8999 27.7601C47.0707 27.9122 47.2099 28.0965 47.3094 28.3024C47.4089 28.5083 47.4669 28.7318 47.4799 28.9601C47.522 29.6595 47.522 30.3608 47.4799 31.0601C47.4799 32.6601 47.8599 35.8201 47.8599 38.4001C47.8954 39.5567 47.7811 40.7129 47.5199 41.8401C47.3941 42.269 47.182 42.6676 46.8965 43.0116C46.611 43.3555 46.2583 43.6375 45.8599 43.8401C44.4624 44.3978 42.9636 44.6567 41.4599 44.6001C39.5799 44.6001 37.7199 44.7201 35.8399 44.7201C33.0399 44.7201 30.2599 44.7201 27.4399 44.5401C24.1799 44.4201 20.9399 44.3601 17.6799 44.3201C14.4199 44.2801 11.1599 44.3201 7.89994 44.3201C6.19601 44.4569 4.48387 44.4569 2.77994 44.3201C1.89522 44.2391 1.06039 43.8743 0.399938 43.2801C0.118513 42.8691 -0.021857 42.3778 -6.21751e-05 41.8801C-0.0426225 41.2141 -0.0426225 40.5461 -6.21751e-05 39.8801L0.359938 30.2801C0.370246 30.1192 0.442843 29.9686 0.562328 29.8604C0.681812 29.7521 0.838782 29.6946 0.999938 29.7001C1.13801 29.6908 1.27606 29.7185 1.39994 29.7801ZM45.2599 29.2201C44.7738 29.111 44.278 29.0507 43.7799 29.0401C42.3599 29.0401 40.7399 29.0401 39.7799 29.0401L19.7799 28.2601H15.7799C12.4529 27.9702 9.10697 27.9702 5.77994 28.2601C5.16293 28.275 4.55628 28.422 4.00084 28.6911C3.4454 28.9602 2.95407 29.3452 2.55994 29.8201C2.45897 29.9624 2.30716 30.0605 2.13591 30.094C1.96467 30.1275 1.7871 30.0939 1.63994 30.0001C1.66095 30.1058 1.66095 30.2145 1.63994 30.3201L1.55994 39.8801C1.55994 40.3201 1.43994 40.9201 1.45994 41.4601C1.45526 41.6556 1.51892 41.8466 1.63994 42.0001C2.27274 42.4357 3.03314 42.6469 3.79994 42.6001C5.29994 42.6001 6.99994 42.4801 8.01994 42.4601C12.0199 42.3601 15.8599 42.2801 19.7799 42.2401C22.3999 42.2401 24.9999 42.2401 27.6399 42.2401H34.5799C36.8799 42.2401 39.1799 42.2401 41.4999 42.1001C42.3745 42.1369 43.2507 42.1035 44.1199 42.0001C44.7199 41.8601 45.2799 41.7001 45.4399 41.1601C45.6293 40.2394 45.7099 39.2996 45.6799 38.3601C45.6799 35.8001 45.3999 32.6801 45.3399 31.1001C45.3399 30.7601 45.0199 29.6201 45.2599 29.2201Z" fill="#101828"/>
<path fill-rule="evenodd" clip-rule="evenodd" d="M8.63988 14.58C8.40847 14.4484 8.21164 14.2638 8.06559 14.0412C7.91955 13.8187 7.82848 13.5646 7.79988 13.3C7.76975 12.7823 7.94185 12.2732 8.27988 11.88C8.70227 11.41 9.23002 11.0467 9.81988 10.82C10.3659 10.5784 10.9671 10.4886 11.5599 10.56L12.7999 10.86C12.9582 10.9425 13.0941 11.0622 13.1957 11.2089C13.2974 11.3556 13.3619 11.5249 13.3835 11.7021C13.4052 11.8793 13.3834 12.0591 13.32 12.226C13.2567 12.3928 13.1537 12.5418 13.0199 12.66C12.3149 13.5226 11.3053 14.0812 10.1999 14.22C10.1106 14.2173 10.0216 14.2323 9.93809 14.264C9.85456 14.2957 9.77811 14.3436 9.71311 14.4049C9.6481 14.4662 9.5958 14.5397 9.55922 14.6212C9.52263 14.7027 9.50247 14.7907 9.49988 14.88C9.49437 15.0623 9.56028 15.2396 9.68355 15.3741C9.80683 15.5086 9.97774 15.5896 10.1599 15.6C11.1066 15.6024 12.0405 15.3808 12.8851 14.9533C13.7298 14.5257 14.4613 13.9044 15.0199 13.14C15.2504 12.8071 15.4077 12.4291 15.4813 12.031C15.5548 11.6328 15.543 11.2236 15.4466 10.8303C15.3502 10.4371 15.1713 10.0688 14.9219 9.74978C14.6725 9.4308 14.3583 9.16842 13.9999 8.97998C13.7019 8.77176 13.3704 8.61617 13.0199 8.51998C12.6861 8.41558 12.3452 8.33538 11.9999 8.27998C10.9637 8.13831 9.90902 8.31991 8.97988 8.79998C8.08484 9.2484 7.33572 9.94203 6.81988 10.8C6.5505 11.2083 6.36569 11.6664 6.27637 12.1473C6.18706 12.6283 6.19505 13.1222 6.29988 13.6C6.42203 14.0512 6.64861 14.4673 6.9613 14.8147C7.27399 15.1621 7.66402 15.4311 8.09988 15.6C8.24606 15.6696 8.41368 15.6793 8.56691 15.627C8.72014 15.5747 8.84683 15.4645 8.91988 15.32C8.96672 15.1833 8.96438 15.0346 8.91326 14.8995C8.86214 14.7644 8.76545 14.6514 8.63988 14.58Z" fill="#155EEF"/>
<path fill-rule="evenodd" clip-rule="evenodd" d="M8.63994 37.6799C8.40853 37.5484 8.2117 37.3637 8.06565 37.1412C7.91961 36.9186 7.82853 36.6646 7.79994 36.3999C7.76981 35.8823 7.94191 35.3731 8.27994 34.9799C8.71088 34.5389 9.23793 34.2035 9.81994 33.9999C10.366 33.7584 10.9671 33.6686 11.5599 33.7399L12.7999 33.9999C12.9583 34.0824 13.0941 34.2022 13.1958 34.3489C13.2975 34.4956 13.3619 34.6649 13.3836 34.842C13.4053 35.0192 13.3835 35.199 13.3201 35.3659C13.2567 35.5328 13.1537 35.6818 13.0199 35.7999C12.315 36.6626 11.3053 37.2212 10.1999 37.3599C10.1106 37.3573 10.0217 37.3722 9.93815 37.404C9.85462 37.4357 9.77817 37.4836 9.71316 37.5449C9.64815 37.6062 9.59586 37.6797 9.55928 37.7612C9.52269 37.8427 9.50252 37.9306 9.49994 38.0199C9.49443 38.2023 9.56033 38.3796 9.68361 38.5141C9.80689 38.6486 9.97779 38.7296 10.1599 38.7399C11.1067 38.7424 12.0405 38.5208 12.8852 38.0932C13.7299 37.6657 14.4614 37.0443 15.0199 36.2799C15.272 35.944 15.447 35.5566 15.5324 35.1454C15.6178 34.7342 15.6116 34.3092 15.5143 33.9006C15.4169 33.492 15.2307 33.1099 14.969 32.7814C14.7073 32.4529 14.3764 32.1861 13.9999 31.9999C13.702 31.7917 13.3705 31.6361 13.0199 31.5399C12.6842 31.4625 12.3433 31.4091 11.9999 31.3799C10.927 31.2516 9.84102 31.4688 8.89994 31.9999C8.0049 32.4484 7.25578 33.142 6.73994 33.9999C6.48676 34.4114 6.31754 34.8688 6.24202 35.346C6.1665 35.8231 6.18619 36.3104 6.29994 36.7799C6.42209 37.2311 6.64867 37.6472 6.96136 37.9947C7.27404 38.3421 7.66408 38.6111 8.09994 38.7799C8.17061 38.8178 8.24817 38.8412 8.32802 38.8486C8.40787 38.856 8.4884 38.8474 8.56485 38.8231C8.64129 38.7989 8.7121 38.7596 8.77309 38.7075C8.83408 38.6554 8.88401 38.5916 8.91994 38.5199C8.99053 38.3708 9.00081 38.2002 8.94864 38.0437C8.89647 37.8872 8.78588 37.7569 8.63994 37.6799Z" fill="#155EEF"/>
</g>
<defs>
<clipPath id="clip0_822_10150">
<rect width="48" height="48" fill="white"/>
</clipPath>
</defs>
</svg>
