<svg width="18" height="18" viewBox="0 0 18 18" fill="none" xmlns="http://www.w3.org/2000/svg">
<path d="M11.8906 3.2925V14.5425C11.8906 15.795 12.7456 16.5 13.6831 16.5C14.5381 16.5 15.4756 15.9075 15.4756 14.5425V3.375C15.4756 2.22 14.6206 1.5 13.6831 1.5C12.7456 1.5 11.8906 2.295 11.8906 3.2925ZM7.20312 9V14.5425C7.20312 15.8025 8.07313 16.5 8.99563 16.5C9.85063 16.5 10.7881 15.9075 10.7881 14.5425V9.0825C10.7881 7.9275 9.93313 7.2075 8.99563 7.2075C8.05813 7.2075 7.20312 8.0025 7.20312 9ZM4.30813 12.9225C5.29813 12.9225 6.10063 13.725 6.10063 14.7075C6.10063 15.1829 5.91177 15.6388 5.57561 15.975C5.23946 16.3111 4.78353 16.5 4.30813 16.5C3.83272 16.5 3.3768 16.3111 3.04064 15.975C2.70448 15.6388 2.51562 15.1829 2.51562 14.7075C2.51562 13.725 3.31813 12.9225 4.30813 12.9225Z" fill="#2A6EFF"/>
</svg>
