<svg width="18" height="18" viewBox="0 0 18 18" fill="none" xmlns="http://www.w3.org/2000/svg">
<path d="M8.60225 2.88082C8.82192 2.66115 9.17808 2.66115 9.39775 2.88082L15.9148 9.39782C16.1344 9.61749 16.4906 9.61749 16.7102 9.39782C16.9299 9.17815 16.9299 8.822 16.7102 8.60233L10.1932 2.08532C9.53423 1.42631 8.46576 1.42631 7.80676 2.08532L1.28975 8.60233C1.07008 8.822 1.07008 9.17815 1.28975 9.39782C1.50942 9.61749 1.86558 9.61749 2.08525 9.39782L8.60225 2.88082Z" fill="#2A6EFF"/>
<path d="M9 4.07406L15.1193 10.1933C15.1415 10.2156 15.1643 10.2371 15.1875 10.2579V14.9063C15.1875 15.683 14.5579 16.3126 13.7812 16.3126H11.25C10.9393 16.3126 10.6875 16.0607 10.6875 15.7501V12.3751C10.6875 12.0644 10.4357 11.8126 10.125 11.8126H7.875C7.56434 11.8126 7.3125 12.0644 7.3125 12.3751V15.7501C7.3125 16.0607 7.06066 16.3126 6.75 16.3126H4.21875C3.4421 16.3126 2.8125 15.683 2.8125 14.9063V10.2579C2.83569 10.2371 2.85845 10.2156 2.88074 10.1933L9 4.07406Z" fill="#2A6EFF"/>
</svg>
