<svg width="18" height="18" viewBox="0 0 18 18" fill="none" xmlns="http://www.w3.org/2000/svg">
<path d="M8.4375 3.39965C7.30091 2.67209 5.94935 2.25 4.5 2.25C3.64633 2.25 2.82567 2.39652 2.06255 2.66624C1.83778 2.74569 1.6875 2.95819 1.6875 3.19659V13.8841C1.6875 14.0667 1.77613 14.2379 1.92522 14.3434C2.0743 14.4488 2.26529 14.4753 2.43745 14.4144C3.08184 14.1867 3.77581 14.0625 4.5 14.0625C5.99626 14.0625 7.36744 14.5929 8.4375 15.4768V3.39965Z" fill="#2A6EFF"/>
<path d="M9.5625 15.4768C10.6326 14.5929 12.0037 14.0625 13.5 14.0625C14.2242 14.0625 14.9182 14.1867 15.5625 14.4144C15.7347 14.4753 15.9257 14.4488 16.0748 14.3434C16.2239 14.2379 16.3125 14.0667 16.3125 13.8841V3.19659C16.3125 2.95819 16.1622 2.74569 15.9375 2.66624C15.1743 2.39652 14.3537 2.25 13.5 2.25C12.0507 2.25 10.6991 2.67209 9.5625 3.39965V15.4768Z" fill="#2A6EFF"/>
</svg>
