<svg width="18" height="18" viewBox="0 0 18 18" fill="none" xmlns="http://www.w3.org/2000/svg">
<path d="M14.6472 10.6248C14.7464 10.7967 14.7734 11.0009 14.7224 11.1927C14.6713 11.3845 14.5463 11.5482 14.3747 11.648L8.37474 15.148C8.25998 15.2149 8.12949 15.2503 7.99661 15.2503C7.86374 15.2503 7.73324 15.2149 7.61849 15.148L1.61849 11.648C1.4466 11.5478 1.32155 11.3834 1.27085 11.191C1.22016 10.9986 1.24797 10.7939 1.34818 10.622C1.44838 10.4501 1.61276 10.3251 1.80516 10.2744C1.99756 10.2237 2.20222 10.2515 2.37411 10.3517L7.99911 13.6317L13.6247 10.3517C13.7967 10.2528 14.0008 10.226 14.1924 10.2772C14.384 10.3283 14.5476 10.4534 14.6472 10.6248ZM13.6247 7.35171L7.99974 10.6317L2.37786 7.35171C2.20646 7.25968 2.006 7.23785 1.8188 7.29084C1.63161 7.34384 1.47233 7.46749 1.37459 7.63571C1.27686 7.80393 1.24831 8.00355 1.29499 8.19241C1.34166 8.38128 1.4599 8.54463 1.62474 8.64796L7.62474 12.148C7.73949 12.2149 7.86999 12.2503 8.00286 12.2503C8.13574 12.2503 8.26623 12.2149 8.38099 12.148L14.381 8.64796C14.5529 8.54767 14.6779 8.38321 14.7285 8.19075C14.7792 7.99829 14.7513 7.7936 14.651 7.62171C14.5507 7.44981 14.3862 7.3248 14.1938 7.27416C14.0013 7.22353 13.7966 7.25142 13.6247 7.35171ZM1.24974 4.99983C1.24998 4.86842 1.28475 4.73937 1.35057 4.62562C1.41638 4.51187 1.51093 4.41741 1.62474 4.35171L7.62474 0.851707C7.73962 0.785086 7.87006 0.75 8.00286 0.75C8.13566 0.75 8.26611 0.785086 8.38099 0.851707L14.381 4.35171C14.4944 4.41772 14.5884 4.51231 14.6538 4.62604C14.7192 4.73976 14.7536 4.86865 14.7536 4.99983C14.7536 5.13101 14.7192 5.2599 14.6538 5.37363C14.5884 5.48736 14.4944 5.58195 14.381 5.64796L8.38099 9.14796C8.26623 9.21495 8.13574 9.25025 8.00286 9.25025C7.86999 9.25025 7.73949 9.21495 7.62474 9.14796L1.62474 5.64796C1.51093 5.58225 1.41638 5.48779 1.35057 5.37404C1.28475 5.26029 1.24998 5.13125 1.24974 4.99983ZM3.48849 4.99983L7.99974 7.63171L12.511 4.99983L7.99974 2.36796L3.48849 4.99983Z" fill="#2A6EFF"/>
</svg>
