<svg width="18" height="18" viewBox="0 0 18 18" fill="none" xmlns="http://www.w3.org/2000/svg">
<path d="M11.3213 4.42787C10.8702 3.96835 10.3325 3.60277 9.73924 3.35224C9.146 3.10171 8.50901 2.9712 7.86506 2.96824C7.2211 2.96528 6.58294 3.08994 5.98743 3.335C5.39192 3.58007 4.85086 3.94069 4.39551 4.39605C3.94016 4.8514 3.57954 5.39245 3.33447 5.98796C3.0894 6.58347 2.96475 7.22163 2.96771 7.86559C2.97067 8.50955 3.10118 9.14654 3.35171 9.73977C3.60224 10.333 3.96782 10.8707 4.42733 11.3219C5.3444 12.2222 6.5799 12.724 7.86506 12.7181C9.15021 12.7122 10.3811 12.1991 11.2898 11.2903C12.1986 10.3816 12.7117 9.15075 12.7176 7.86559C12.7235 6.58044 12.2217 5.34493 11.3213 4.42787ZM3.36683 3.36737C4.51645 2.21804 6.0617 1.5513 7.6866 1.50349C9.31149 1.45568 10.8933 2.03042 12.1085 3.11017C13.3237 4.18992 14.0805 5.69311 14.2241 7.31235C14.3678 8.93159 13.8875 10.5445 12.8813 11.8214L16.8901 15.8301L15.8296 16.8906L11.8208 12.8819C10.5436 13.8843 8.93202 14.3616 7.31488 14.2166C5.69774 14.0715 4.19686 13.3149 3.11842 12.1012C2.03997 10.8875 1.46521 9.30802 1.51137 7.68504C1.55753 6.06207 2.22114 4.51784 3.36683 3.36737Z" fill="#4D4E55"/>
</svg>
