<svg width="18" height="18" viewBox="0 0 18 18" fill="none" xmlns="http://www.w3.org/2000/svg">
<path fill-rule="evenodd" clip-rule="evenodd" d="M7.50178 1.62364C7.58592 1.20296 7.95529 0.900146 8.38431 0.900146H9.60866C10.0377 0.900146 10.407 1.20296 10.4912 1.62364L10.7563 2.94922C11.2035 3.07906 11.6302 3.25712 12.0303 3.47742L13.1555 2.72727C13.5125 2.4893 13.9878 2.53636 14.2912 2.83972L15.1569 3.70547C15.4603 4.00883 15.5073 4.48413 15.2694 4.84109L14.5192 5.96632C14.7395 6.36647 14.9176 6.79314 15.0474 7.24033L16.373 7.50545C16.7937 7.58958 17.0965 7.95896 17.0965 8.38797V9.61232C17.0965 10.0413 16.7937 10.4107 16.373 10.4948L15.0474 10.76C14.9176 11.2071 14.7395 11.6338 14.5193 12.0339L15.2695 13.1592C15.5074 13.5162 15.4604 13.9915 15.157 14.2948L14.2913 15.1606C13.9879 15.4639 13.5126 15.511 13.1556 15.273L12.0304 14.5229C11.6302 14.7432 11.2035 14.9212 10.7563 15.0511L10.4912 16.3766C10.407 16.7973 10.0377 17.1001 9.60866 17.1001H8.38431C7.95529 17.1001 7.58592 16.7973 7.50178 16.3766L7.23667 15.0511C6.78948 14.9212 6.36281 14.7432 5.96266 14.5229L4.83742 15.273C4.48046 15.511 4.00515 15.4639 3.7018 15.1606L2.83605 14.2948C2.53269 13.9915 2.48562 13.5162 2.7236 13.1592L3.47375 12.034C3.25346 11.6338 3.0754 11.2072 2.94556 10.76L1.61998 10.4948C1.1993 10.4107 0.896484 10.0413 0.896484 9.61232L0.896484 8.38797C0.896484 7.95896 1.1993 7.58958 1.61998 7.50545L2.94556 7.24033C3.0754 6.79311 3.25348 6.36641 3.47379 5.96623L2.7237 4.84108C2.48573 4.48412 2.53279 4.00882 2.83615 3.70546L3.7019 2.83971C4.00525 2.53635 4.48056 2.48929 4.83752 2.72726L5.9627 3.47738C6.36284 3.25711 6.7895 3.07905 7.23667 2.94922L7.50178 1.62364ZM11.6965 9.00015C11.6965 10.4913 10.4877 11.7001 8.99648 11.7001C7.50531 11.7001 6.29648 10.4913 6.29648 9.00015C6.29648 7.50898 7.50531 6.30015 8.99648 6.30015C10.4877 6.30015 11.6965 7.50898 11.6965 9.00015Z" fill="#2A6EFF"/>
</svg>
