<svg width="18" height="18" viewBox="0 0 18 18" fill="none" xmlns="http://www.w3.org/2000/svg">
<path fill-rule="evenodd" clip-rule="evenodd" d="M5.44725 2.445C5.49166 2.03101 5.68756 1.64805 5.99727 1.36977C6.30698 1.09149 6.70863 0.93753 7.125 0.9375H10.875C11.2914 0.93753 11.693 1.09149 12.0027 1.36977C12.3124 1.64805 12.5083 2.03101 12.5527 2.445C13.1257 2.457 13.62 2.48625 14.043 2.56425C14.6115 2.66925 15.0953 2.86725 15.489 3.26175C15.9405 3.7125 16.134 4.28175 16.2255 4.95675C16.3125 5.60625 16.3125 6.4335 16.3125 7.45875V12.0413C16.3125 13.0665 16.3125 13.8938 16.2255 14.544C16.134 15.219 15.9405 15.7875 15.489 16.239C15.0375 16.6905 14.469 16.884 13.794 16.9755C13.1438 17.0625 12.3165 17.0625 11.2913 17.0625H6.70875C5.6835 17.0625 4.85625 17.0625 4.206 16.9755C3.531 16.884 2.9625 16.6905 2.511 16.239C2.0595 15.7875 1.866 15.219 1.77525 14.544C1.6875 13.8938 1.6875 13.0665 1.6875 12.0413V7.45875C1.6875 6.4335 1.6875 5.60625 1.77525 4.956C1.86525 4.281 2.06025 3.7125 2.511 3.261C2.90475 2.86725 3.3885 2.6685 3.957 2.56425C4.38 2.48625 4.875 2.457 5.44725 2.445ZM5.44875 3.57C4.91025 3.582 4.49475 3.609 4.16025 3.6705C3.73575 3.7485 3.489 3.8745 3.30675 4.05675C3.099 4.2645 2.964 4.5555 2.88975 5.10675C2.814 5.67225 2.8125 6.42375 2.8125 7.5V12C2.8125 13.0763 2.814 13.827 2.88975 14.394C2.964 14.9445 3.09975 15.2355 3.30675 15.4432C3.5145 15.651 3.8055 15.786 4.35675 15.8602C4.92225 15.936 5.67375 15.9375 6.75 15.9375H11.25C12.3263 15.9375 13.077 15.936 13.644 15.8602C14.1945 15.786 14.4855 15.6502 14.6932 15.4432C14.901 15.2355 15.036 14.9445 15.1102 14.3932C15.186 13.827 15.1875 13.0763 15.1875 12V7.5C15.1875 6.42375 15.186 5.67225 15.1102 5.106C15.036 4.5555 14.9002 4.2645 14.6932 4.05675C14.5103 3.8745 14.2642 3.74925 13.8397 3.6705C13.5052 3.609 13.0898 3.582 12.5513 3.57075C12.5033 3.98164 12.306 4.36058 11.997 4.6356C11.688 4.91061 11.2887 5.06253 10.875 5.0625H7.125C6.7112 5.06251 6.31183 4.91049 6.00278 4.63532C5.69374 4.36015 5.49657 3.98102 5.44875 3.57ZM7.125 2.0625C6.97582 2.0625 6.83274 2.12176 6.72725 2.22725C6.62176 2.33274 6.5625 2.47582 6.5625 2.625V3.375C6.5625 3.6855 6.8145 3.9375 7.125 3.9375H10.875C11.0242 3.9375 11.1673 3.87824 11.2727 3.77275C11.3782 3.66726 11.4375 3.52418 11.4375 3.375V2.625C11.4375 2.47582 11.3782 2.33274 11.2727 2.22725C11.1673 2.12176 11.0242 2.0625 10.875 2.0625H7.125ZM4.6875 7.875C4.6875 7.72582 4.74676 7.58274 4.85225 7.47725C4.95774 7.37176 5.10082 7.3125 5.25 7.3125H5.625C5.77418 7.3125 5.91726 7.37176 6.02275 7.47725C6.12824 7.58274 6.1875 7.72582 6.1875 7.875C6.1875 8.02418 6.12824 8.16726 6.02275 8.27275C5.91726 8.37824 5.77418 8.4375 5.625 8.4375H5.25C5.10082 8.4375 4.95774 8.37824 4.85225 8.27275C4.74676 8.16726 4.6875 8.02418 4.6875 7.875ZM7.3125 7.875C7.3125 7.72582 7.37176 7.58274 7.47725 7.47725C7.58274 7.37176 7.72582 7.3125 7.875 7.3125H12.75C12.8992 7.3125 13.0423 7.37176 13.1477 7.47725C13.2532 7.58274 13.3125 7.72582 13.3125 7.875C13.3125 8.02418 13.2532 8.16726 13.1477 8.27275C13.0423 8.37824 12.8992 8.4375 12.75 8.4375H7.875C7.72582 8.4375 7.58274 8.37824 7.47725 8.27275C7.37176 8.16726 7.3125 8.02418 7.3125 7.875ZM4.6875 10.5C4.6875 10.3508 4.74676 10.2077 4.85225 10.1023C4.95774 9.99676 5.10082 9.9375 5.25 9.9375H5.625C5.77418 9.9375 5.91726 9.99676 6.02275 10.1023C6.12824 10.2077 6.1875 10.3508 6.1875 10.5C6.1875 10.6492 6.12824 10.7923 6.02275 10.8977C5.91726 11.0032 5.77418 11.0625 5.625 11.0625H5.25C5.10082 11.0625 4.95774 11.0032 4.85225 10.8977C4.74676 10.7923 4.6875 10.6492 4.6875 10.5ZM7.3125 10.5C7.3125 10.3508 7.37176 10.2077 7.47725 10.1023C7.58274 9.99676 7.72582 9.9375 7.875 9.9375H12.75C12.8992 9.9375 13.0423 9.99676 13.1477 10.1023C13.2532 10.2077 13.3125 10.3508 13.3125 10.5C13.3125 10.6492 13.2532 10.7923 13.1477 10.8977C13.0423 11.0032 12.8992 11.0625 12.75 11.0625H7.875C7.72582 11.0625 7.58274 11.0032 7.47725 10.8977C7.37176 10.7923 7.3125 10.6492 7.3125 10.5ZM4.6875 13.125C4.6875 12.9758 4.74676 12.8327 4.85225 12.7273C4.95774 12.6218 5.10082 12.5625 5.25 12.5625H5.625C5.77418 12.5625 5.91726 12.6218 6.02275 12.7273C6.12824 12.8327 6.1875 12.9758 6.1875 13.125C6.1875 13.2742 6.12824 13.4173 6.02275 13.5227C5.91726 13.6282 5.77418 13.6875 5.625 13.6875H5.25C5.10082 13.6875 4.95774 13.6282 4.85225 13.5227C4.74676 13.4173 4.6875 13.2742 4.6875 13.125ZM7.3125 13.125C7.3125 12.9758 7.37176 12.8327 7.47725 12.7273C7.58274 12.6218 7.72582 12.5625 7.875 12.5625H12.75C12.8992 12.5625 13.0423 12.6218 13.1477 12.7273C13.2532 12.8327 13.3125 12.9758 13.3125 13.125C13.3125 13.2742 13.2532 13.4173 13.1477 13.5227C13.0423 13.6282 12.8992 13.6875 12.75 13.6875H7.875C7.72582 13.6875 7.58274 13.6282 7.47725 13.5227C7.37176 13.4173 7.3125 13.2742 7.3125 13.125Z" fill="#2A6EFF"/>
</svg>
