<svg width="18" height="18" viewBox="0 0 18 18" fill="none" xmlns="http://www.w3.org/2000/svg">
<path d="M2.53125 2.25C1.7546 2.25 1.125 2.8796 1.125 3.65625V4.21875C1.125 4.9954 1.7546 5.625 2.53125 5.625H15.4687C16.2454 5.625 16.875 4.9954 16.875 4.21875V3.65625C16.875 2.8796 16.2454 2.25 15.4687 2.25H2.53125Z" fill="#2A6EFF"/>
<path fill-rule="evenodd" clip-rule="evenodd" d="M2.31509 6.75L2.71992 13.6321C2.78988 14.8214 3.77472 15.75 4.96604 15.75H13.0337C14.2251 15.75 15.2099 14.8214 15.2799 13.6321L15.6847 6.75H2.31509ZM6.93732 9.5625C6.93732 9.25184 7.18916 9 7.49982 9H10.4998C10.8105 9 11.0623 9.25184 11.0623 9.5625C11.0623 9.87316 10.8105 10.125 10.4998 10.125H7.49982C7.18916 10.125 6.93732 9.87316 6.93732 9.5625Z" fill="#2A6EFF"/>
</svg>
